<svg width="84" height="68" viewBox="0 0 84 68" fill="none" xmlns="http://www.w3.org/2000/svg">
<path d="M33.1415 36.4956H51.5058C53.7899 36.4956 55.6474 34.5867 55.6474 32.2394V11.5912C55.6474 9.24388 53.7899 7.33496 51.5058 7.33496H33.1415C30.8575 7.33496 29 9.24388 29 11.5912V32.2394C29 34.5867 30.8575 36.4956 33.1415 36.4956ZM31.7891 11.5912C31.7891 10.8245 32.3974 10.2013 33.1415 10.2013H38.7866V18.3422L42.3237 14.4575L45.8607 18.3442V10.2033H51.5058C52.25 10.2033 52.8583 10.8265 52.8583 11.5932V32.2413C52.8583 33.0061 52.25 33.6312 51.5058 33.6312H33.1415C32.3974 33.6312 31.7891 33.0061 31.7891 32.2413V11.5912Z" fill="#263238"/>
<path d="M80.919 0H3.08122C1.5719 0 0.345703 1.26213 0.345703 2.81128V55.9307C0.345703 57.4818 1.5719 58.742 3.08122 58.742H36.1083V64.972H32.0107C31.2398 64.972 30.6162 65.6129 30.6162 66.4052C30.6162 67.1974 31.2398 67.8383 32.0107 67.8383H51.9895C52.7605 67.8383 53.3841 67.1974 53.3841 66.4052C53.3841 65.6129 52.7605 64.972 51.9895 64.972H47.892V58.742H80.919C82.4284 58.742 83.6546 57.4818 83.6546 55.9307V2.81128C83.6546 1.26213 82.4284 0 80.919 0ZM80.8655 2.81128V41.6934H3.12139L3.08122 2.86633L80.8655 2.81128ZM45.101 64.972H38.8992V58.742H45.101V64.972ZM46.6161 55.8993C46.574 55.8953 46.5396 55.8737 46.4975 55.8737C46.4554 55.8737 46.419 55.8953 46.377 55.8993L37.6558 55.9051C37.6042 55.8993 37.5583 55.8737 37.5047 55.8737C37.4511 55.8737 37.4052 55.8993 37.3536 55.9051L3.13669 55.9307L3.12522 44.5617H80.8655V55.8757L46.6161 55.8993Z" fill="#263238"/>
<path d="M41.9999 46.8735C40.0468 46.8735 38.4629 48.5013 38.4629 50.5085C38.4629 52.5158 40.0468 54.1435 41.9999 54.1435C43.9531 54.1435 45.537 52.5158 45.537 50.5085C45.537 48.5013 43.9531 46.8735 41.9999 46.8735Z" fill="#263238"/>
</svg>
