<svg width="71" height="87" viewBox="0 0 71 87" fill="none" xmlns="http://www.w3.org/2000/svg">
<path d="M28.7633 4.11619C27.3788 4.11619 26.1272 4.94851 25.5961 6.22727C25.065 7.50603 25.3571 8.97766 26.3395 9.9576C27.3182 10.9375 28.7937 11.2288 30.0758 10.6991C31.3579 10.1695 32.1962 8.92102 32.1962 7.53633C32.1924 5.6485 30.66 4.11997 28.7633 4.11619ZM28.7633 8.95877C28.1868 8.95877 27.6671 8.61071 27.4471 8.08106C27.2271 7.54762 27.3485 6.93472 27.7581 6.52988C28.164 6.12128 28.7785 6.00022 29.3133 6.21966C29.8444 6.43908 30.1934 6.96118 30.1934 7.53626C30.1934 7.91458 30.0416 8.27777 29.7761 8.54264C29.5068 8.81125 29.1427 8.96258 28.7633 8.96258L28.7633 8.95877ZM26.4078 47.4195C26.4078 46.8672 26.8592 46.4208 27.4091 46.4208H42.4224C42.6917 46.4132 42.9534 46.5154 43.1507 46.7007C43.3441 46.8899 43.4541 47.1509 43.4541 47.4196C43.4541 47.692 43.3441 47.9492 43.1507 48.1384C42.9534 48.3275 42.6917 48.4259 42.4224 48.4183H27.4091C26.8553 48.4183 26.4078 47.9718 26.4078 47.4195ZM23.9384 41.0598C24.3291 41.4495 24.3291 42.0813 23.9384 42.471L17.5433 48.8495C17.1526 49.2392 16.5191 49.2392 16.1285 48.8495L13.6022 46.3374C13.2115 45.9477 13.2115 45.3159 13.6022 44.9225C13.9929 44.5328 14.6264 44.5328 15.017 44.9225L16.8339 46.7309L22.5198 41.0598C22.7057 40.8706 22.9636 40.7647 23.2292 40.7647C23.4947 40.7647 23.7488 40.8707 23.9384 41.0598ZM15.017 29.1045L16.8339 30.9167L22.5198 25.2455C22.7057 25.0601 22.9598 24.9542 23.2254 24.9542C23.4909 24.9542 23.7488 25.0602 23.9347 25.2455C24.3254 25.6352 24.3254 26.2708 23.9347 26.6604L17.5433 33.039C17.1526 33.4287 16.5191 33.4287 16.1247 33.039L13.5984 30.5193L13.6022 30.5231C13.2115 30.1296 13.2077 29.4978 13.6022 29.1082C13.9929 28.7147 14.6263 28.7148 15.017 29.1045ZM26.4073 42.4894C26.4073 41.937 26.8549 41.4906 27.4086 41.4906H40.2526C40.8064 41.4906 41.2539 41.9371 41.2539 42.4894C41.2539 43.0417 40.8063 43.4881 40.2526 43.4881H27.4086C26.8548 43.4881 26.4073 43.0417 26.4073 42.4894ZM26.4073 26.6755C26.4111 26.1231 26.8587 25.6805 27.4086 25.6805H42.4219C42.9719 25.6805 43.4232 26.1269 43.4232 26.6792C43.4232 27.2278 42.9719 27.6742 42.4219 27.6742H27.4086C27.1431 27.6742 26.889 27.572 26.6993 27.3829C26.5135 27.1937 26.4073 26.9403 26.4073 26.6755ZM26.4073 31.605C26.4073 31.0564 26.8587 30.61 27.4086 30.6063H42.4219C42.6912 30.5987 42.9529 30.7008 43.1502 30.89C43.3436 31.0792 43.4536 31.3364 43.4536 31.605C43.4536 31.8774 43.3436 32.1347 43.1502 32.3239C42.9529 32.513 42.6912 32.6152 42.4219 32.6076H27.4086C26.8548 32.6038 26.4073 32.1574 26.4073 31.605ZM70.4042 12.8555C71.6445 10.6688 70.8859 7.89941 68.7086 6.64334C66.5276 5.38727 63.7434 6.11747 62.4651 8.28149L57.5303 16.8052V9.05708C57.5303 8.50472 57.0827 8.05834 56.529 8.05834H42.6081V5.4819C42.6081 4.92954 42.1606 4.48316 41.6068 4.48316H35.2761C34.2557 1.78565 31.665 0 28.7747 0C25.8843 0 23.2974 1.78575 22.2771 4.48316H15.9236C15.658 4.48316 15.4001 4.5891 15.2142 4.77447C15.0246 4.96363 14.9222 5.21711 14.9222 5.48195V8.05839H1.00134C0.447542 8.06218 0 8.5086 0 9.05713V76.9404C0 77.489 0.447591 77.9391 1.00134 77.9391H35.4956L35.2642 78.3477C35.0784 78.6769 35.0935 79.0855 35.3097 79.3995C36.3642 80.9544 37.6653 82.3277 39.1636 83.4665C39.4784 83.7086 39.9109 83.7388 40.2598 83.5421L41.7922 82.6833V82.6795C42.4333 82.3731 43.1805 82.3693 43.8215 82.672C44.5081 82.9216 45.0504 83.4627 45.297 84.1474L45.8167 86.0126C45.9191 86.3833 46.2263 86.6595 46.6056 86.7276C47.6146 86.9092 48.6349 87 49.6591 87C50.448 87 51.2408 86.947 52.0222 86.8373C52.4205 86.7843 52.7467 86.5006 52.8529 86.1147L53.327 84.4123C53.6077 83.6972 54.1919 83.1373 54.9201 82.8876C55.6332 82.5433 56.4525 82.5244 57.1808 82.8309L58.7852 83.7389V83.7351C59.1266 83.928 59.5515 83.9053 59.8701 83.6745C61.3153 82.619 62.586 81.3517 63.6442 79.9102C63.8756 79.5924 63.9022 79.1725 63.7087 78.8282L62.8022 77.2241V77.2279C62.4949 76.5053 62.5139 75.6843 62.8553 74.9769C63.1056 74.2467 63.667 73.6641 64.3877 73.3804L66.0946 72.9075H66.0908C66.4777 72.8015 66.7622 72.4762 66.8153 72.0789C67.0277 70.5164 67.0277 68.9275 66.8153 67.365C66.7621 66.9677 66.4777 66.6424 66.0908 66.5364L64.3877 66.0673C63.667 65.7836 63.1094 65.201 62.8553 64.4708C62.5139 63.7633 62.4949 62.9424 62.8022 62.2198L63.7049 60.6195H63.7087C63.9022 60.279 63.8756 59.8553 63.6442 59.5375C62.586 58.096 61.3153 56.8286 59.8701 55.7769C59.5515 55.5424 59.1304 55.5197 58.789 55.7088L57.5259 56.4163V35.0973L70.4042 12.8555ZM64.1986 9.28032H64.2024C64.9269 8.07723 66.4859 7.67626 67.7035 8.3799C68.9211 9.07981 69.3497 10.6271 68.667 11.8567L67.5632 13.7673L63.0949 11.1908L64.1986 9.28032ZM66.558 15.5L55.6532 34.3444L55.6456 34.3558L50.8738 42.6033L46.4055 40.0307L51.8714 30.5915V30.5877C51.8979 30.5499 51.9207 30.5082 51.9434 30.4628L57.3676 21.0879V21.0917C57.3903 21.0614 57.4093 21.0274 57.4245 20.9933L62.0938 12.9236L66.558 15.5ZM49.2201 43.9579L46.0907 45.7172L46.0565 42.1344L49.2201 43.9579ZM42.6086 10.0599H55.5244V20.2671L52.0424 26.2901V14.5313C52.0424 13.9827 51.5948 13.5364 51.0448 13.5326H42.6089L42.6086 10.0599ZM16.9256 6.48092H23.0135C23.4725 6.4847 23.8708 6.1707 23.9846 5.72806C24.5346 3.53756 26.5108 2.0015 28.7753 2.0015C31.0435 2.0015 33.016 3.53747 33.5698 5.72806C33.6836 6.1707 34.0819 6.48092 34.5408 6.48092H40.6061V16.2416H16.9253L16.9256 6.48092ZM15.9242 18.2397H41.6073C42.1611 18.2397 42.6086 17.7895 42.6086 17.2409V15.5309H50.0393V29.7487L44.1675 39.892C44.0803 40.0471 44.031 40.2249 44.0348 40.4027L44.0993 47.432C44.1031 47.7839 44.2965 48.1092 44.5999 48.2871C44.7517 48.3741 44.9262 48.4195 45.1006 48.4195C45.2751 48.4195 45.442 48.3741 45.5937 48.2908L50.0393 45.7901V52.4525C48.8899 52.426 47.7368 52.5168 46.6064 52.7211C46.2271 52.7892 45.9199 53.0653 45.8175 53.4361L45.2978 55.3051V55.3013C45.0513 55.986 44.5088 56.527 43.8223 56.7729C43.1813 57.0794 42.434 57.0756 41.793 56.7654L40.2644 55.9066C39.9154 55.7098 39.4868 55.7401 39.1682 55.9822C37.6699 57.121 36.3689 58.4944 35.3143 60.0492C35.0981 60.3632 35.083 60.7718 35.2688 61.1047C36.2854 62.898 36.642 64.1918 36.3271 64.9561C36.2626 65.1112 36.0653 65.5879 35.0032 65.8792L33.2546 66.3635C32.8753 66.4694 32.5908 66.7872 32.5339 67.1769C32.3708 68.2665 32.3139 69.3711 32.3632 70.4721H19.5571V59.4329C19.5571 59.1681 19.4509 58.9146 19.2613 58.7254C19.0754 58.5401 18.8213 58.4341 18.5557 58.4341H7.49073V15.5318H14.9214V17.2418C14.9214 17.7904 15.369 18.2405 15.9228 18.2405L15.9242 18.2397ZM17.5553 60.4302V69.0484L8.91459 60.4302H17.5553ZM2.00699 10.0596H14.9228V13.5326H6.49068C5.93688 13.5364 5.48934 13.9828 5.48934 14.5313V59.4308C5.48934 59.6956 5.59176 59.9491 5.78141 60.1382L17.8476 72.1691C18.0372 72.3545 18.2914 72.4567 18.5569 72.4567H32.5797C32.6897 72.7631 32.94 72.9977 33.2511 73.0847L34.9997 73.5689C35.6104 73.7468 36.0997 74.197 36.3311 74.7909C36.4866 75.1541 36.5359 75.5551 36.479 75.9448H2.00709L2.00699 10.0596ZM59.1993 57.7706C60.1059 58.4894 60.9252 59.3066 61.6421 60.207L61.0579 61.2323L61.0617 61.2361C60.4359 62.4921 60.4169 63.96 61.0086 65.235C61.4904 66.5326 62.5373 67.5465 63.8535 67.9893L64.9079 68.2806C64.9952 69.2377 64.9952 70.2025 64.9079 71.1634L63.8535 71.4548C62.5335 71.8974 61.4904 72.9075 61.0086 74.209C60.4169 75.4802 60.4359 76.9519 61.0617 78.2079L61.6459 79.237L61.6421 79.2332C60.9252 80.1374 60.1059 80.9545 59.1993 81.6734L58.1676 81.0907C56.9083 80.4703 55.4328 80.4552 54.1583 81.0453C52.8534 81.5258 51.8407 82.5662 51.4007 83.8828L51.1087 84.9345C49.9328 85.0442 48.7493 85.0215 47.5811 84.8589L47.2321 83.6103C46.8224 82.3316 45.8514 81.3063 44.5959 80.8259C43.3821 80.2773 41.9862 80.3189 40.8066 80.9394L39.8659 81.469C38.91 80.6783 38.0566 79.7779 37.3207 78.7792L37.9921 77.5874C38.0149 77.542 38.0376 77.5004 38.0604 77.455L38.0642 77.4588C38.0945 77.4058 38.1211 77.3528 38.1438 77.2961C38.6256 76.2065 38.6142 74.9656 38.1135 73.8836C37.6166 72.8054 36.6759 71.9882 35.5342 71.6477L34.4304 71.345V71.3413C34.3128 70.2668 34.3128 69.181 34.4304 68.1066L35.538 67.8002H35.5342C36.6987 67.5656 37.6811 66.79 38.1743 65.7156C38.8494 64.0926 38.0984 62.1556 37.317 60.6801C38.0529 59.6814 38.9101 58.7733 39.866 57.9826L40.8067 58.5123V58.5085C41.9825 59.1327 43.3822 59.1743 44.5922 58.6258C45.8515 58.1453 46.8226 57.12 47.2323 55.8413L47.5812 54.5928C48.7495 54.4301 49.933 54.4074 51.1088 54.5171L51.4009 55.5688H51.3971C51.8447 56.8892 52.865 57.9371 54.1775 58.4138C54.9285 58.7354 55.7479 58.8754 56.5633 58.8224C56.6089 58.8224 56.6544 58.8148 56.6999 58.8073C57.2158 58.7581 57.7165 58.6068 58.1678 58.3571L59.1993 57.7706ZM55.5314 56.7491V56.7529C55.3304 56.7037 55.1331 56.6432 54.9435 56.5638C54.2076 56.3141 53.6159 55.7541 53.3314 55.0316L52.8572 53.3329V53.3291C52.751 52.9546 52.4362 52.6708 52.0455 52.6103V44.567C52.0683 44.533 52.091 44.5027 52.11 44.4687L55.5313 38.5592L55.5314 56.7491ZM49.6483 59.4352V59.439C45.4682 59.4352 41.7017 61.9435 40.101 65.7949C38.5004 69.6425 39.3841 74.0727 42.3352 77.0239C45.2901 79.9711 49.7356 80.8525 53.5934 79.256C57.4549 77.6595 59.9697 73.9027 59.9697 69.7373C59.9621 64.0511 55.3421 59.4468 49.6446 59.4391L49.6483 59.4352ZM49.6483 78.0414C46.2799 78.0414 43.2454 76.0211 41.9558 72.9188C40.6662 69.8164 41.3792 66.2451 43.7576 63.8692C46.1396 61.4933 49.7165 60.782 52.8308 62.0683C55.9411 63.3508 57.9705 66.3774 57.9705 69.737C57.9667 74.3224 54.2419 78.0375 49.6446 78.0413L49.6483 78.0414Z" fill="#343330"/>
</svg>
