<svg width="74" height="77" viewBox="0 0 74 77" fill="none" xmlns="http://www.w3.org/2000/svg">
<path d="M28.3665 67.1768H16.0332V69.7117H28.3665V67.1768Z" fill="#343330"/>
<path d="M70.3 -0.000488281H46.8668C44.7701 -0.000488281 43.1668 1.64725 43.1668 3.80198V15.4629C43.1668 15.8431 43.0435 16.0966 42.7968 16.3501L39.4668 19.7723V22.8143H70.3C72.3967 22.8143 74 21.1666 74 19.0118V3.80198C74 1.64725 72.3967 -0.000488281 70.3 -0.000488281ZM71.5334 19.0118C71.5334 19.7723 71.04 20.2793 70.3 20.2793H42.4268L44.5234 18.1246C45.2634 17.3641 45.6334 16.4769 45.6334 15.4629V3.80198C45.6334 3.04149 46.1268 2.53449 46.8668 2.53449H70.3C71.04 2.53449 71.5334 3.04149 71.5334 3.80198V19.0118Z" fill="#343330"/>
<path d="M68.9431 52.6006L61.6665 49.1783C64.0098 47.1503 65.3665 44.1084 65.3665 40.9397V25.3495H50.5665C47.1132 25.3495 44.3999 28.138 44.3999 31.687V40.9397C44.3999 44.1084 45.7565 47.1503 48.0999 49.1783L41.9332 52.0936V44.7421C41.9332 40.9397 39.5899 37.5174 36.0132 36.3767L27.1333 33.3347V30.4195H30.9566C34.4099 30.4195 37.1232 27.631 37.1232 24.0821C37.1232 23.7018 37.1232 23.1948 36.9999 22.8146L35.3966 14.8294C33.9166 7.3512 26.7633 2.66149 19.4866 4.18247C14.3066 5.32321 10.2366 9.50593 9.12664 14.8294L7.39998 22.8146C6.65998 26.2368 8.87997 29.659 12.21 30.2927C12.58 30.4195 13.0733 30.4195 13.4433 30.4195H17.2666V33.3347L8.38664 36.3767C4.80999 37.6442 2.46666 40.9397 2.46666 44.7421V60.8392H0V76.0491H33.2999V73.5141H2.46666V63.3742H35.7666V76.0491H73.9998V60.7125C73.9998 57.1635 72.0265 53.9948 68.9431 52.6006ZM46.8665 40.9397V31.687C46.8665 29.5323 48.4699 27.8845 50.5665 27.8845H62.8998V40.9397C62.8998 45.5026 59.3232 49.1783 54.8832 49.1783C50.4432 49.1783 46.8665 45.5026 46.8665 40.9397ZM18.1299 24.8425L16.65 23.8286C16.28 23.5751 16.1566 23.1948 16.1566 22.8146V15.7166C17.7599 14.8294 19.7333 14.9561 21.3366 15.8434C23.4333 17.1109 26.1466 17.3644 28.3666 16.3504H28.4899V22.8146C28.4899 23.1948 28.2433 23.5751 27.9966 23.8286L26.5166 24.8425C25.5299 25.603 24.9133 26.7438 24.9133 28.0113V32.9545H19.9799V28.0113C19.7333 26.7438 19.1166 25.4763 18.1299 24.8425ZM20.9666 35.4895V37.3907L17.3899 40.1792L14.3066 37.0104L18.7466 35.4895H20.9666ZM23.4333 35.4895H25.6533L30.0932 37.0104L27.0099 40.1792L23.4333 37.3907V35.4895ZM33.7932 26.4903C33.0532 27.3775 32.0666 27.8845 30.9566 27.8845H27.1333C27.1333 27.5043 27.3799 27.124 27.6266 26.8705L29.1066 25.8565C30.0932 25.096 30.7099 23.9553 30.7099 22.6878V15.0829L32.5599 14.3224C32.6832 14.5759 32.6832 14.9561 32.8066 15.2096L34.4099 23.1948C34.7799 24.4623 34.5332 25.603 33.7932 26.4903ZM22.1999 6.3372C26.1466 6.3372 29.7232 8.49194 31.6966 12.0409L27.2566 13.9421C25.6533 14.5759 23.9266 14.4491 22.4466 13.5619C19.9799 12.0409 17.02 12.0409 14.5533 13.4351L11.47 15.2096V15.0829C12.58 10.0129 17.02 6.3372 22.1999 6.3372ZM10.6066 26.4903C9.86664 25.603 9.61997 24.4623 9.86664 23.3216L10.8533 18.6319L13.5666 16.9841V22.6878C13.5666 23.9553 14.1833 25.096 15.17 25.8565L16.65 26.8705C17.02 27.124 17.1433 27.5043 17.1433 27.8845H13.32C12.3333 27.8845 11.3466 27.3775 10.6066 26.4903ZM4.93332 44.7421C4.93332 41.9536 6.65998 39.5454 9.12664 38.7849L11.7166 37.8977L17.1433 43.4746L20.9666 40.5594V60.8392H13.5666V45.6294H11.1V60.8392H4.93332V44.7421ZM33.2999 60.8392V50.6993H30.8332V60.8392H23.4333V40.5594L27.2566 43.4746L32.6832 37.8977L35.2732 38.7849C37.7399 39.6722 39.4666 42.0804 39.4666 44.7421V53.361C37.1232 55.0088 35.7666 57.6705 35.7666 60.5857V60.8392H33.2999ZM71.5331 73.5141H38.2332V60.7125C38.2332 58.1775 39.5899 56.0228 41.8099 54.882L50.5665 50.8261C53.2798 52.0936 56.3632 52.0936 58.9532 50.8261L67.7098 54.882C69.9298 55.896 71.2865 58.1775 71.2865 60.7125V73.5141H71.5331Z" fill="#343330"/>
<path d="M69.0662 5.06958H48.0996V7.60456H69.0662V5.06958Z" fill="#343330"/>
<path d="M69.0662 10.1396H48.0996V12.6746H69.0662V10.1396Z" fill="#343330"/>
<path d="M64.1329 15.2095H48.0996V17.7445H64.1329V15.2095Z" fill="#343330"/>
<path d="M33.3004 45.6294H25.9004V48.1644H33.3004V45.6294Z" fill="#343330"/>
</svg>
