<svg width="72" height="74" viewBox="0 0 72 74" fill="none" xmlns="http://www.w3.org/2000/svg">
<path d="M4.92215 73.987L4.83153 73.9806C3.47523 73.9516 2.40958 73.8097 1.60322 73.3582L1.54072 73.326C0.621962 72.7843 0.10938 71.9039 0.00937541 70.4497V70.4432C0.00312474 70.4046 0 70.3659 0 70.3239V3.84044C0 3.77917 0.00625065 3.7179 0.0187512 3.65986C0.184382 2.44096 0.696909 1.51551 1.55946 0.886738C2.36885 0.293422 3.4689 5.15935e-06 4.85024 0.00322454L4.92212 0H41.6893L41.7612 0.00322454C42.98 -0.00322413 43.9551 0.299886 44.6895 0.912575L44.7145 0.935148C45.452 1.56393 45.9114 2.47649 46.0833 3.67278C46.0958 3.72759 46.0989 3.78241 46.0989 3.84046V15.7233C46.0989 16.1779 45.7395 16.5488 45.2989 16.5488C44.8582 16.5488 44.4988 16.1779 44.4988 15.7233V9.63534H1.60016V17.8968C2.56268 17.8774 3.5284 17.8677 4.5034 17.8677C5.70033 17.8677 7.11912 17.8839 8.77863 17.9161H8.79738C8.83801 17.9129 8.87863 17.9161 8.91926 17.9193C9.65991 18.0064 10.2537 18.3127 10.6912 18.8416C10.9662 19.1705 11.1662 19.58 11.2943 20.0637C19.2634 19.7219 23.5421 18.7126 27.3478 17.8129C30.8761 16.981 34.0137 16.2394 39.2548 16.191C39.3641 16.1814 39.4766 16.1942 39.586 16.2329C42.4361 17.2455 45.1331 18.5901 47.6552 20.1895C50.2209 21.8147 52.6085 23.7074 54.7961 25.7808C55.4118 25.7066 56.0149 25.6679 56.6087 25.6679C60.412 25.6679 63.9559 27.1222 66.6779 29.5567C69.3999 31.9848 71.3063 35.3963 71.8437 39.3015C71.9469 40.0464 72 40.8009 72 41.5652C72 45.9538 70.275 49.9265 67.4873 52.8024L67.4342 52.8508C64.6497 55.6981 60.8183 57.4586 56.5929 57.4586C53.0646 57.4586 49.8145 56.2108 47.2269 54.1244C44.7299 52.1156 42.8454 49.3231 41.9017 46.1244C37.4984 46.2372 32.7573 46.1727 28.7323 45.7922C25.2509 45.4666 22.2821 44.9023 20.4792 44.0156L20.4604 44.0091L20.4417 43.9994L20.4261 43.9898H20.4229L20.3886 43.9704L20.3729 43.9607L20.3354 43.9382C16.7697 41.5359 13.7851 40.2299 11.3846 40.0236C11.3253 40.6491 11.2096 41.1877 10.9784 41.6423C10.594 42.4 9.96585 42.8547 8.92204 42.9579L8.90641 42.9611H8.90329L8.88454 42.9644H8.77829C7.38446 42.9386 5.96256 42.9257 4.49994 42.9257C3.41549 42.9257 2.44985 42.9321 1.59669 42.9482V64.5395H44.4954V56.3234C44.4954 55.8688 44.8548 55.498 45.2954 55.498C45.736 55.498 46.0954 55.8688 46.0954 56.3234V70.331L46.0892 70.431V70.4375L46.0861 70.4568C46.0048 71.5628 45.5798 72.4205 44.8047 73.03C44.0859 73.5943 43.0797 73.9167 41.7952 73.9877H41.7827L41.6859 73.9942H4.91865L4.92215 73.987ZM23.307 71.8589C22.6101 71.8589 21.9819 71.5654 21.5256 71.0979C21.0725 70.6303 20.7881 69.9789 20.7881 69.2598C20.7881 68.5408 21.0725 67.8894 21.5256 67.4218C21.9787 66.9543 22.61 66.6608 23.307 66.6608C24.0039 66.6608 24.632 66.9543 25.0883 67.4218C25.5415 67.8894 25.8259 68.5408 25.8259 69.2598C25.8259 69.9789 25.5415 70.627 25.0883 71.0979C24.6352 71.5654 24.0039 71.8589 23.307 71.8589ZM22.6601 69.9306C22.8257 70.1015 23.0569 70.2079 23.307 70.2079C23.5601 70.2079 23.7914 70.1015 23.9539 69.9306C24.1195 69.7597 24.2226 69.5211 24.2226 69.2631C24.2226 69.002 24.1195 68.7633 23.9539 68.5924C23.7882 68.4215 23.557 68.3151 23.307 68.3151C23.0538 68.3151 22.8226 68.4215 22.6601 68.5924C22.4944 68.7633 22.3913 69.002 22.3913 69.2631C22.3913 69.5243 22.4944 69.7629 22.6601 69.9306ZM16.7785 5.55622C16.3379 5.55622 15.9785 5.1854 15.9785 4.73074C15.9785 4.27608 16.3379 3.90526 16.7785 3.90526H29.1479C29.5885 3.90526 29.9479 4.27608 29.9479 4.73074C29.9479 5.1854 29.5885 5.55622 29.1479 5.55622H16.7785ZM54.1306 38.7563C54.1899 39.5108 55.4744 40.1138 56.7713 40.7232C58.5683 41.5648 60.3902 42.4258 60.484 44.296L60.4871 44.3154V44.4282C60.4558 45.502 60.0152 46.3372 59.3495 46.9208C58.812 47.398 58.1245 47.7011 57.4025 47.8333V49.0619C57.4025 49.5166 57.0432 49.8874 56.6025 49.8874C56.1619 49.8874 55.8025 49.5166 55.8025 49.0619V47.8527C55.0587 47.7334 54.3462 47.44 53.7805 46.9692C53.068 46.3759 52.5836 45.515 52.5398 44.396C52.5242 43.9414 52.8649 43.5609 53.3055 43.5415C53.7462 43.5254 54.1149 43.8768 54.1337 44.3315C54.1556 44.9216 54.4087 45.3762 54.7806 45.6858C55.24 46.0663 55.8775 46.263 56.5213 46.2694L56.6026 46.2662L56.6682 46.2694C57.287 46.2469 57.8901 46.0469 58.312 45.6761C58.6527 45.3762 58.8808 44.9441 58.8964 44.3831C58.8527 43.5092 57.4745 42.8611 56.1213 42.2258C54.3681 41.4036 52.6398 40.5878 52.543 38.8336L52.5398 38.811V38.7143L52.543 38.6917C52.5992 37.5954 53.0774 36.7473 53.7805 36.1605C54.3462 35.6897 55.0587 35.3963 55.8025 35.277V34.0678C55.8025 33.6131 56.1618 33.2423 56.6025 33.2423C57.0431 33.2423 57.4025 33.6131 57.4025 34.0678V35.2931C58.1244 35.4253 58.8119 35.7284 59.3495 36.2057C60.0245 36.8022 60.4714 37.6535 60.4902 38.7498C60.4964 39.2045 60.1464 39.5785 59.7058 39.585C59.2651 39.5914 58.9026 39.2303 58.8964 38.7756C58.887 38.2017 58.6589 37.7599 58.312 37.4535C57.8901 37.0795 57.287 36.8828 56.6681 36.8602L56.6025 36.8634L56.5213 36.8602C55.8775 36.8667 55.2399 37.0634 54.7805 37.4439C54.418 37.747 54.1649 38.1887 54.1336 38.7627L54.1306 38.7563ZM44.4989 70.3409V66.1877H1.60026V70.3312C1.65651 71.1631 1.9034 71.6436 2.33466 71.8951L2.38154 71.9241C2.91594 72.2208 3.75344 72.3175 4.85669 72.3401L4.92232 72.3369H41.7239C42.674 72.2853 43.3771 72.0757 43.8365 71.7145C44.2303 71.405 44.4521 70.9439 44.4959 70.3408L44.4989 70.3409ZM4.838 1.65169C3.80043 1.64847 3.00976 1.84194 2.47853 2.23211C1.99727 2.58358 1.70663 3.13172 1.60034 3.87663V7.98473H44.499V3.89281C44.3865 3.1286 44.1177 2.5675 43.7052 2.21279L43.6927 2.20312C43.2521 1.83552 42.6145 1.65172 41.7802 1.65495L41.6927 1.6614H4.92545L4.84107 1.65495L4.838 1.65169ZM42.5236 34.9739C42.858 34.2162 43.2549 33.4971 43.6987 32.8199C44.1425 32.1395 44.6425 31.4914 45.1863 30.8852C43.3894 29.1665 41.5706 28.1411 39.8017 27.8283C37.9329 27.4962 36.0828 27.9508 34.3327 29.2052C33.2671 30.9884 33.5514 32.0364 34.5796 32.7232C35.9265 33.6163 38.386 34.1226 41.0205 34.6612L42.5206 34.9772L42.5236 34.9739ZM46.3207 29.7244C47.3489 28.7732 48.4989 27.9638 49.7427 27.3253C50.7114 26.8288 51.7396 26.4322 52.8115 26.1548C50.949 24.4781 48.9489 22.94 46.8238 21.5953C44.4361 20.0831 41.8829 18.8061 39.189 17.8355C34.1794 17.8903 31.1295 18.6094 27.7013 19.4188C23.8418 20.3281 19.5074 21.3536 11.4318 21.7017V38.379C14.1226 38.5918 17.3665 39.9783 21.1698 42.5321C22.7949 43.3286 25.5763 43.8445 28.8733 44.154C33.0079 44.541 37.9297 44.5958 42.4363 44.4636H42.5113C43.652 44.4281 44.7864 44.383 45.8865 44.3249C46.9647 44.2669 48.0334 44.1992 49.0585 44.1186C49.8554 43.8638 50.421 43.4317 50.7367 42.9126C50.8898 42.6643 50.9867 42.3902 51.0211 42.1033C51.0555 41.813 51.0336 41.5035 50.9461 41.1971C50.7242 40.4039 50.0992 39.5849 49.0397 38.9013L49.0335 38.8981L49.0179 38.8852L49.0022 38.8755L48.9991 38.8723C48.1928 38.3692 47.2397 37.9661 46.2146 37.6244C45.149 37.2697 43.9927 36.9795 42.8238 36.7215L40.705 36.2765C37.9142 35.7057 35.311 35.1705 33.7078 34.1064C31.839 32.8649 31.2608 31.0947 33.0328 28.2248L33.0422 28.2087C33.0672 28.1603 33.0984 28.1184 33.1328 28.0765C33.1578 28.0475 33.189 28.0184 33.2172 27.9894L33.264 27.9507C35.411 26.3642 37.708 25.7838 40.055 26.203C42.152 26.5771 44.2614 27.754 46.3053 29.7242L46.3207 29.7244ZM43.5612 46.0697C44.4456 48.7622 46.08 51.1097 48.2083 52.8219C50.5209 54.6857 53.4304 55.8014 56.5927 55.8014C60.3866 55.8014 63.8211 54.2246 66.3115 51.6772L66.3521 51.6289C68.8491 49.0524 70.396 45.4893 70.396 41.5588C70.396 40.8591 70.3492 40.1819 70.2585 39.5274C69.7773 36.0255 68.0709 32.9687 65.6302 30.7921C63.1926 28.6156 60.0175 27.3129 56.605 27.3129C55.9487 27.3129 55.2893 27.3612 54.6362 27.4548C53.1548 27.6708 51.7454 28.1319 50.4516 28.7962C49.1203 29.4798 47.9108 30.3794 46.8702 31.4435C46.1826 32.1464 45.5576 32.9106 45.017 33.7361C44.6826 34.2424 44.3826 34.7712 44.1169 35.3258C44.9982 35.5386 45.8732 35.774 46.7077 36.0513C47.8452 36.4318 48.914 36.8865 49.8328 37.4604L49.864 37.4798L49.8828 37.4895C51.3015 38.402 52.1547 39.566 52.4829 40.7301C52.6298 41.2622 52.6704 41.7943 52.6079 42.3037C52.5423 42.8196 52.3704 43.3162 52.0954 43.7708C51.5829 44.6253 50.7015 45.3154 49.4953 45.6926L49.4796 45.6991L49.4734 45.7023C49.4046 45.7281 49.3327 45.7442 49.2577 45.7506C48.2671 45.828 47.1608 45.9022 45.9638 45.9635C45.1951 46.0022 44.3856 46.0409 43.5544 46.0699L43.5612 46.0697ZM8.79409 41.3135C9.2066 41.2684 9.44099 41.1136 9.56288 40.8718C9.74413 40.5139 9.80976 39.9431 9.83476 39.2208L9.83164 39.166V20.9311C9.77851 20.47 9.65976 20.1282 9.47537 19.9089C9.31599 19.7154 9.07223 19.5961 8.75659 19.5574C7.36901 19.5316 5.94399 19.5187 4.50016 19.5187C3.42196 19.5187 2.45007 19.5252 1.59692 19.5413V41.2969C2.55944 41.2775 3.5314 41.2679 4.50016 41.2679C5.69085 41.2679 7.12842 41.2845 8.79409 41.3135ZM13.3661 47.2983C16.8194 47.2531 20.1539 47.2241 23.3634 47.2112C26.5791 47.1983 29.673 47.2048 32.6326 47.2209L32.7076 47.2177C33.1482 47.2177 33.5076 47.5885 33.5076 48.0432V54.057C33.5076 54.5116 33.1482 54.8824 32.7076 54.8824H24.0632L23.8569 58.036L23.5788 61.7023C23.5444 62.157 23.1569 62.4956 22.7163 62.4569C22.4225 62.4311 22.1788 62.2473 22.06 61.9893L22.0569 61.9861C21.7131 61.3734 21.3225 60.7059 20.8881 59.9901C20.6662 59.6225 20.4412 59.2581 20.2131 58.8905L19.2662 60.4126L17.6223 63.1309C17.3911 63.5178 16.8973 63.6403 16.5223 63.4017C16.1473 63.1631 16.0285 62.6536 16.2598 62.2667L17.9192 59.5323L18.8286 58.0716L17.8223 57.9877H17.8067C17.0254 57.9297 16.2785 57.8813 15.5722 57.8523H15.5534L15.5159 57.8491H15.5128L15.4753 57.8459L15.4566 57.8426H15.4534L15.4378 57.8394H15.4347L15.3941 57.833L15.3784 57.8297L15.3722 57.8265L15.3597 57.8233L15.3534 57.8201L15.3222 57.8104L15.3159 57.8072C15.2784 57.7943 15.2409 57.7782 15.2066 57.762L15.1972 57.7588L15.1909 57.7524L15.1816 57.7459L15.1753 57.7395L15.1659 57.733L15.1597 57.7266C15.0784 57.6782 15.0065 57.6105 14.944 57.5331L14.9065 57.4847L14.8753 57.4299L14.869 57.417L14.8628 57.4106L14.8565 57.4009L14.8503 57.3944L14.8472 57.3848L14.8409 57.3751L14.8378 57.3654L14.8315 57.3557L14.8284 57.3461L14.8222 57.3364L14.819 57.3267L14.8128 57.317L14.8003 57.2783L14.7972 57.2719L14.7847 57.2332L14.7815 57.2203V57.2139L14.7784 57.201V57.1945L14.7753 57.1816V57.1719L14.769 57.1429V57.1332L14.7659 57.1236V57.1139L14.7628 57.072V57.001L14.7659 56.9623V56.9591L14.769 56.9204L14.7722 56.9011V56.8979L14.7753 56.8817V56.8785L14.7815 56.8366L14.7847 56.8205L14.7878 56.814L14.7909 56.8011L14.794 56.7947L14.8034 56.7624L14.8065 56.756C14.819 56.7173 14.8347 56.6786 14.8503 56.6431L14.8534 56.6334L14.8597 56.627L14.8659 56.6173L14.8722 56.6109L14.8784 56.6012L14.8847 56.5947C14.9315 56.5109 14.9972 56.4367 15.0722 56.3723L15.1191 56.3336L17.0816 54.9534L16.0097 54.9599L13.3659 54.9405L13.2909 54.9438C12.8502 54.9438 12.4908 54.5729 12.4908 54.1183V48.1045C12.4908 47.6498 12.8502 47.279 13.2909 47.279L13.3627 47.2822L13.3661 47.2983ZM31.9109 48.8622C29.1702 48.846 26.3201 48.846 23.3666 48.8557C20.3914 48.8654 17.3007 48.8912 14.0974 48.9331V53.3153L16.013 53.3217L19.4632 53.312C20.6414 52.493 21.8227 51.6772 23.0071 50.8679L23.0227 50.855L23.0384 50.8453H23.0415L23.0884 50.8163L23.104 50.8098L23.1071 50.8066L23.1227 50.8002L23.1259 50.7969L23.1415 50.7905L23.1446 50.7873L23.1602 50.7808L23.2415 50.7389L23.254 50.7357L23.2602 50.7324L23.2727 50.7292L23.279 50.726L23.2915 50.7228H23.2977L23.3102 50.7195L23.3165 50.7163L23.329 50.7131H23.3352L23.3477 50.7099H23.354L23.3665 50.7066H23.3728L23.3884 50.7034H23.3946L23.4103 50.7002H23.4353L23.4728 50.697H23.5353L23.5509 50.7002H23.554L23.5696 50.7034H23.5759L23.5915 50.7066L23.629 50.7131H23.6384L23.6478 50.7163H23.6571L23.6946 50.7292L23.7009 50.7324L23.7134 50.7357L23.7196 50.7389L23.7321 50.7421L23.7384 50.7453L23.7696 50.755L23.7759 50.7582L23.7884 50.7615L23.9259 50.8324L23.9415 50.8421L23.979 50.8614L23.9884 50.8679L23.9947 50.8711L24.004 50.8775L24.0103 50.884L24.0197 50.8904L24.0415 50.913L24.0509 50.9195L24.1009 50.9711L24.1072 50.9807L24.1228 50.9968L24.1259 51.0033L24.1353 51.013L24.1384 51.0194L24.1478 51.0323L24.1509 51.0355L24.1603 51.0484L24.1634 51.0517L24.1728 51.0678V51.071L24.2009 51.1194L24.2072 51.1355L24.2103 51.1387L24.2165 51.1549L24.2197 51.1581L24.2259 51.1742L24.229 51.1774L24.2353 51.1935L24.2759 51.2774L24.279 51.2903L24.2822 51.2967L24.2853 51.3096L24.2884 51.3161L24.2915 51.329V51.3354L24.2947 51.3483L24.2978 51.3548L24.3009 51.3677V51.3741L24.304 51.387V51.3935L24.3072 51.4064V51.4128L24.3103 51.4289V51.4354L24.3134 51.4515V51.4773L24.3165 51.516V51.5805L24.3134 51.5966L24.2165 53.2315H31.9544V48.859L31.9109 48.8622ZM17.9631 56.3431C18.7069 56.4011 19.4726 56.4753 20.257 56.5592L20.2914 56.5624H20.2945L20.3132 56.5656L20.3289 56.5688H20.332L20.3476 56.572L17.9631 56.3463L17.9631 56.3431ZM20.507 56.614L20.5226 56.6204H20.5289L20.5351 56.6236L20.5445 56.6269L20.5476 56.6301H20.5508L20.5539 56.6333L20.5633 56.6365L20.582 56.6462H20.5851L20.5914 56.6494L20.6008 56.6559H20.6039L20.6226 56.6655L20.6289 56.672L20.6414 56.6784L20.6445 56.6817L20.657 56.6881L20.6601 56.6913L20.6726 56.6978L20.6789 56.7042L20.6914 56.7107L20.6945 56.7139L20.707 56.7204L20.7195 56.7333L20.7258 56.7365L20.7351 56.7462L20.7414 56.7494L20.8133 56.8236L20.8195 56.8332L20.8258 56.8397L20.832 56.8493L20.8351 56.8558L20.8445 56.8655L20.8476 56.8719L20.8601 56.888L20.8695 56.8977V56.9009L20.8726 56.9042L20.8789 56.9138L20.882 56.9171V56.9203L20.8914 56.9332L20.9008 56.9493L20.9039 56.9558C21.3664 57.6748 21.7977 58.3584 22.1915 59.0066L22.2759 57.9167C22.3821 56.3206 22.4884 54.7276 22.5852 53.1315C21.0414 54.1956 19.5038 55.2661 17.9694 56.3399L20.5133 56.6107L20.507 56.614ZM20.3507 56.5688H20.3539L20.3664 56.572H20.3758L20.3883 56.5753H20.3976L20.407 56.5785H20.4164L20.4258 56.5817H20.4351L20.4726 56.5946L20.5039 56.6107H20.507L20.3507 56.5656V56.5688Z" fill="#343330"/>
</svg>
