<svg width="100" height="72" viewBox="0 0 100 72" fill="none" xmlns="http://www.w3.org/2000/svg">
<path d="M67.4806 35.4876L56.7816 24.6968C56.3597 24.2753 55.7816 24.0384 55.1918 24.0705C54.6019 24.0906 54.0434 24.3676 53.6527 24.8292L48.5629 30.863L37.2429 20.586C36.1843 19.6185 34.5632 19.6707 33.5827 20.7104L19.1607 35.7528C18.6802 36.2466 18.6919 37.0495 19.1607 37.5393C19.3989 37.7841 19.7192 37.9206 20.0396 37.9206C20.1099 37.9206 20.188 37.9086 20.2583 37.9006C21.2583 37.8283 30.2783 37.7761 66.9303 37.9006C67.61 37.9006 68.1686 37.3345 68.1686 36.628C68.1803 36.1342 67.8907 35.6923 67.4806 35.4876ZM55.2896 26.7722L63.7896 35.343C59.1685 35.3229 53.6486 35.3109 48.0786 35.3028L55.2896 26.7722ZM25.7196 35.2909C24.6688 35.2909 23.7977 35.3029 23.0712 35.3029L35.3412 22.4886C35.4115 22.4163 35.513 22.4163 35.5912 22.4886L46.9312 32.7861L45.0718 34.986C44.9936 35.0783 44.9311 35.1907 44.8803 35.3031C42.8803 35.3031 40.8998 35.2911 38.9701 35.2911C33.3099 35.279 28.8526 35.2788 25.7196 35.2909Z" fill="#343330"/>
<path d="M48.5205 23.8936C50.7393 23.8936 52.5517 22.0349 52.5517 19.7508C52.5517 17.4705 50.7431 15.6079 48.5205 15.6079C46.3017 15.6079 44.4893 17.4666 44.4893 19.7508C44.4893 22.031 46.2901 23.8936 48.5205 23.8936ZM48.5205 18.157C49.372 18.157 50.0713 18.8756 50.0713 19.7508C50.0713 20.6339 49.372 21.3445 48.5205 21.3445C47.6689 21.3445 46.9697 20.6259 46.9697 19.7508C46.9697 18.8676 47.6611 18.157 48.5205 18.157Z" fill="#343330"/>
<path d="M96.3523 0H54.5203C52.782 0 51.3601 1.46128 51.3601 3.24773V5.63229H16.7121C14.9426 5.63229 13.5012 7.11361 13.5012 8.93212V10.3693H3.16116C1.69236 10.3693 0.489258 11.6017 0.489258 13.1152V39.2413C0.489258 40.7508 1.68846 41.9872 3.16116 41.9872L13.5012 41.9791V44.99C13.5012 46.8085 14.9426 48.2898 16.7121 48.2898H51.3721V50.6744C51.3721 52.4608 52.794 53.9221 54.5323 53.9221H96.3603C98.0986 53.9221 99.5205 52.4608 99.5205 50.6744V3.24823C99.5126 1.44976 98.1023 0 96.3523 0ZM3.16126 39.4214C3.0597 39.4214 2.96985 39.3291 2.96985 39.2247V13.1027C2.96985 12.9983 3.04797 12.906 3.16126 12.906H13.5013V39.4216L3.16126 39.4214ZM15.9813 44.9815V8.91959C15.9813 8.51011 16.3094 8.16888 16.7117 8.16888H70.2817C70.6802 8.16888 71.0122 8.50609 71.0122 8.91959V44.9815C71.0122 45.3909 70.6841 45.7322 70.2817 45.7322H16.7117C16.3094 45.7322 15.9813 45.3909 15.9813 44.9815ZM97.0323 50.6659C97.0323 51.0553 96.7315 51.3644 96.3526 51.3644H54.5206C54.1495 51.3644 53.8409 51.0553 53.8409 50.6659V48.2813H70.2819C72.0514 48.2813 73.4928 46.8 73.4928 44.9815L73.4889 8.91959C73.4889 7.10108 72.0475 5.61976 70.278 5.61976H53.84V3.24721C53.84 2.86585 54.1408 2.5487 54.5197 2.5487H96.3477C96.7188 2.5487 97.0274 2.85781 97.0274 3.24721L97.0323 50.6659Z" fill="#343330"/>
<path d="M22.5596 59.7061C20.3604 59.7061 18.5791 61.5447 18.5791 63.7968C18.5791 66.0489 20.3682 67.8875 22.5596 67.8875C24.7588 67.8875 26.5401 66.0489 26.5401 63.7968C26.5401 61.5487 24.7628 59.7061 22.5596 59.7061ZM22.5596 65.3383C21.7315 65.3383 21.0596 64.6479 21.0596 63.7968C21.0596 62.9457 21.7315 62.2553 22.5596 62.2553C23.3877 62.2553 24.0596 62.9457 24.0596 63.7968C24.0596 64.6519 23.3916 65.3383 22.5596 65.3383Z" fill="#343330"/>
<path d="M39.0205 57.8271C35.8096 57.8271 33.2119 60.5088 33.2119 63.7966C33.2119 67.0965 35.8213 69.7661 39.0205 69.7661C42.2314 69.7661 44.8291 67.0844 44.8291 63.7966C44.8291 60.5008 42.2197 57.8271 39.0205 57.8271ZM39.0205 67.2209C37.1807 67.2209 35.6924 65.6914 35.6924 63.8006C35.6924 61.9099 37.1807 60.3804 39.0205 60.3804C40.8603 60.3804 42.3486 61.9099 42.3486 63.8006C42.3525 65.6874 40.8603 67.2209 39.0205 67.2209Z" fill="#343330"/>
<path d="M58.2197 55.9448C54.0088 55.9448 50.5791 59.4695 50.5791 63.797C50.5791 68.1246 54.0088 71.6493 58.2197 71.6493C62.4306 71.6493 65.8603 68.1246 65.8603 63.797C65.872 59.4735 62.4423 55.9448 58.2197 55.9448ZM58.2197 69.1004C55.3681 69.1004 53.0595 66.7158 53.0595 63.7972C53.0595 60.8787 55.3798 58.4941 58.2197 58.4941C61.0596 58.4941 63.3799 60.8667 63.3799 63.7972C63.3799 66.7278 61.0713 69.1004 58.2197 69.1004Z" fill="#343330"/>
</svg>
