<svg width="40" height="40" viewBox="0 0 40 40" fill="none" xmlns="http://www.w3.org/2000/svg">
<rect x="0.311523" width="39.066" height="39.066" rx="4" fill="white"/>
<path d="M20.321 11.2867C15.2695 11.2867 11.1738 15.3824 11.1738 20.4339C11.1738 25.0197 14.5522 28.8066 18.9535 29.4683V22.8579H16.6903V20.4537H18.9535V18.8537C18.9535 16.2049 20.244 15.0424 22.4454 15.0424C23.4996 15.0424 24.0576 15.1209 24.3214 15.156V17.2545H22.8197C21.8852 17.2545 21.5589 18.141 21.5589 19.1396V20.4537H24.2977L23.9265 22.8579H21.5589V29.4873C26.0235 28.8821 29.4682 25.0647 29.4682 20.4339C29.4682 15.3824 25.3725 11.2867 20.321 11.2867Z" fill="#0068FA"/>
</svg>
