<svg width="40" height="40" viewBox="0 0 40 40" fill="none" xmlns="http://www.w3.org/2000/svg">
<rect x="0.62207" width="39.066" height="39.066" rx="4" fill="white"/>
<path d="M24.4501 29.0047L14.9218 29.0138C12.8256 29.0157 11.1091 27.3025 11.1067 25.2063L11.0977 15.6779C11.0958 13.5817 12.8089 11.8652 14.9052 11.8628L24.4335 11.8538C26.5297 11.8519 28.2462 13.565 28.2486 15.6613L28.2577 25.1896C28.26 27.2863 26.5464 29.0028 24.4501 29.0047Z" fill="url(#paint0_radial_403_3110)"/>
<path d="M24.4501 29.0047L14.9218 29.0138C12.8256 29.0157 11.1091 27.3025 11.1067 25.2063L11.0977 15.6779C11.0958 13.5817 12.8089 11.8652 14.9052 11.8628L24.4335 11.8538C26.5297 11.8519 28.2462 13.565 28.2486 15.6613L28.2577 25.1896C28.26 27.2863 26.5464 29.0028 24.4501 29.0047Z" fill="url(#paint1_radial_403_3110)"/>
<path d="M19.6777 23.7688C17.8392 23.7688 16.3428 22.2729 16.3428 20.4339C16.3428 18.5949 17.8392 17.099 19.6777 17.099C21.5162 17.099 23.0126 18.5949 23.0126 20.4339C23.0126 22.2729 21.5162 23.7688 19.6777 23.7688ZM19.6777 18.0518C18.3642 18.0518 17.2956 19.1204 17.2956 20.4339C17.2956 21.7474 18.3642 22.816 19.6777 22.816C20.9912 22.816 22.0598 21.7474 22.0598 20.4339C22.0598 19.1204 20.9912 18.0518 19.6777 18.0518Z" fill="white"/>
<path d="M23.2508 17.5755C23.6454 17.5755 23.9654 17.2555 23.9654 16.8609C23.9654 16.4662 23.6454 16.1462 23.2508 16.1462C22.8561 16.1462 22.5361 16.4662 22.5361 16.8609C22.5361 17.2555 22.8561 17.5755 23.2508 17.5755Z" fill="white"/>
<path d="M22.5363 26.6274H16.8193C14.9808 26.6274 13.4844 25.1315 13.4844 23.2925V17.5755C13.4844 15.7365 14.9808 14.2406 16.8193 14.2406H22.5363C24.3748 14.2406 25.8712 15.7365 25.8712 17.5755V23.2925C25.8712 25.1315 24.3748 26.6274 22.5363 26.6274ZM16.8193 15.1934C15.5058 15.1934 14.4372 16.262 14.4372 17.5755V23.2925C14.4372 24.606 15.5058 25.6746 16.8193 25.6746H22.5363C23.8497 25.6746 24.9183 24.606 24.9183 23.2925V17.5755C24.9183 16.262 23.8497 15.1934 22.5363 15.1934H16.8193Z" fill="white"/>
<defs>
<radialGradient id="paint0_radial_403_3110" cx="0" cy="0" r="1" gradientUnits="userSpaceOnUse" gradientTransform="translate(17.4769 29.0261) scale(21.3906)">
<stop stop-color="#FFDD55"/>
<stop offset="0.328" stop-color="#FF543F"/>
<stop offset="0.348" stop-color="#FC5245"/>
<stop offset="0.504" stop-color="#E64771"/>
<stop offset="0.643" stop-color="#D53E91"/>
<stop offset="0.761" stop-color="#CC39A4"/>
<stop offset="0.841" stop-color="#C837AB"/>
</radialGradient>
<radialGradient id="paint1_radial_403_3110" cx="0" cy="0" r="1" gradientUnits="userSpaceOnUse" gradientTransform="translate(13.859 11.6395) scale(14.2034 9.4637)">
<stop stop-color="#4168C9"/>
<stop offset="0.999" stop-color="#4168C9" stop-opacity="0"/>
</radialGradient>
</defs>
</svg>
