<svg width="19" height="18" viewBox="0 0 19 18" fill="none" xmlns="http://www.w3.org/2000/svg">
<path d="M2.30708 8.99999C2.30857 7.65778 2.84242 6.37098 3.7915 5.4219C4.74058 4.47282 6.02738 3.93897 7.36958 3.93749H14.1196V2.81249C14.1195 2.70117 14.1524 2.59233 14.2142 2.49975C14.276 2.40716 14.3639 2.335 14.4668 2.29239C14.5696 2.24977 14.6828 2.23863 14.7919 2.26038C14.9011 2.28212 15.0014 2.33576 15.0801 2.41452L16.7676 4.10202C16.8199 4.15426 16.8613 4.21629 16.8896 4.28458C16.918 4.35287 16.9325 4.42606 16.9325 4.49999C16.9325 4.57391 16.918 4.6471 16.8896 4.71539C16.8613 4.78368 16.8199 4.84571 16.7676 4.89795L15.0801 6.58545C15.0014 6.66421 14.9011 6.71785 14.7919 6.7396C14.6828 6.76134 14.5696 6.7502 14.4668 6.70759C14.3639 6.66497 14.276 6.59281 14.2142 6.50023C14.1524 6.40764 14.1195 6.2988 14.1196 6.18749V5.06249H7.36958C6.32564 5.0636 5.32477 5.4788 4.58658 6.21699C3.8484 6.95517 3.4332 7.95604 3.43208 8.99999C3.43208 9.14917 3.37282 9.29224 3.26733 9.39773C3.16184 9.50322 3.01877 9.56249 2.86958 9.56249C2.7204 9.56249 2.57732 9.50322 2.47184 9.39773C2.36635 9.29224 2.30708 9.14917 2.30708 8.99999ZM16.3696 8.43749C16.2204 8.43749 16.0773 8.49675 15.9718 8.60224C15.8663 8.70773 15.8071 8.8508 15.8071 8.99999C15.806 10.0439 15.3908 11.0448 14.6526 11.783C13.9144 12.5212 12.9135 12.9364 11.8696 12.9375H5.11958V11.8125C5.11967 11.7012 5.08673 11.5923 5.02493 11.4997C4.96312 11.4072 4.87524 11.335 4.7724 11.2924C4.66956 11.2498 4.5564 11.2386 4.44722 11.2604C4.33805 11.2821 4.23778 11.3358 4.15911 11.4145L2.47161 13.102C2.41932 13.1543 2.37783 13.2163 2.34952 13.2846C2.32121 13.3529 2.30664 13.4261 2.30664 13.5C2.30664 13.5739 2.32121 13.6471 2.34952 13.7154C2.37783 13.7837 2.41932 13.8457 2.47161 13.898L4.15911 15.5855C4.23778 15.6642 4.33805 15.7179 4.44722 15.7396C4.5564 15.7613 4.66956 15.7502 4.7724 15.7076C4.87524 15.665 4.96312 15.5928 5.02493 15.5002C5.08673 15.4076 5.11967 15.2988 5.11958 15.1875V14.0625H11.8696C13.2118 14.061 14.4986 13.5271 15.4477 12.5781C16.3967 11.629 16.9306 10.3422 16.9321 8.99999C16.9321 8.8508 16.8728 8.70773 16.7673 8.60224C16.6618 8.49675 16.5188 8.43749 16.3696 8.43749Z" fill="white"/>
</svg>
