<svg width="32" height="32" viewBox="0 0 32 32" fill="none" xmlns="http://www.w3.org/2000/svg">
<path d="M27.04 6.96795C26.7854 6.96795 26.5413 7.06777 26.3612 7.24543C26.1812 7.4231 26.0801 7.66406 26.0801 7.91532V10.0469C25.3181 9.17532 24.5405 8.33572 23.6657 7.46177C22.0648 5.88169 20.0275 4.80222 17.8085 4.35826C15.5895 3.91429 13.2871 4.12552 11.189 4.96553C9.09088 5.80555 7.29015 7.23711 6.01178 9.08135C4.73341 10.9256 4.0341 13.1007 4.00122 15.3349C3.96833 17.5691 4.60334 19.7634 5.8269 21.6435C7.05045 23.5236 8.80829 25.0061 10.8808 25.9059C12.9533 26.8057 15.2485 27.0828 17.4796 26.7027C19.7108 26.3225 21.779 25.3019 23.4257 23.7683C23.5175 23.6828 23.5912 23.5803 23.6428 23.4666C23.6943 23.353 23.7227 23.2304 23.7263 23.1059C23.7298 22.9814 23.7085 22.8575 23.6635 22.7411C23.6186 22.6248 23.5508 22.5183 23.4641 22.4278C23.3775 22.3373 23.2736 22.2645 23.1584 22.2136C23.0432 22.1628 22.919 22.1348 22.7929 22.1312C22.6668 22.1277 22.5412 22.1487 22.4233 22.1931C22.3054 22.2375 22.1975 22.3044 22.1058 22.3899C20.7331 23.6666 19.0097 24.5159 17.1508 24.8317C15.2919 25.1476 13.3799 24.916 11.6536 24.1659C9.92731 23.4158 8.46317 22.1805 7.44403 20.6141C6.42489 19.0477 5.89593 17.2198 5.9232 15.3585C5.95046 13.4972 6.53275 11.6851 7.59734 10.1485C8.66193 8.61183 10.1616 7.41875 11.9092 6.71822C13.6568 6.01768 15.5747 5.84074 17.4236 6.20949C19.2724 6.57825 20.9702 7.47634 22.305 8.79164C23.2817 9.76743 24.1373 10.7077 25.0001 11.7048H22.2402C21.9856 11.7048 21.7414 11.8046 21.5614 11.9823C21.3813 12.1599 21.2802 12.4009 21.2802 12.6522C21.2802 12.9034 21.3813 13.1444 21.5614 13.3221C21.7414 13.4997 21.9856 13.5995 22.2402 13.5995H27.04C27.2946 13.5995 27.5388 13.4997 27.7188 13.3221C27.8989 13.1444 28 12.9034 28 12.6522V7.91532C28 7.66406 27.8989 7.4231 27.7188 7.24543C27.5388 7.06777 27.2946 6.96795 27.04 6.96795Z" fill="#343330"/>
</svg>
