<svg width="40" height="40" viewBox="0 0 40 40" fill="none" xmlns="http://www.w3.org/2000/svg">
<rect x="0.5" y="0.5" width="39" height="39" rx="7.5" fill="white" fill-opacity="0.1" stroke="white"/>
<path d="M29.5308 28.4694L24.8368 23.7762C26.1973 22.1428 26.8757 20.0478 26.7309 17.9269C26.5861 15.8061 25.6293 13.8227 24.0593 12.3893C22.4894 10.956 20.4274 10.1831 18.3021 10.2314C16.1769 10.2797 14.1521 11.1455 12.6489 12.6487C11.1457 14.1518 10.2799 16.1767 10.2316 18.3019C10.1833 20.4272 10.9562 22.4892 12.3896 24.0591C13.8229 25.629 15.8063 26.5859 17.9272 26.7307C20.048 26.8755 22.1431 26.1971 23.7765 24.8366L28.4696 29.5306C28.5393 29.6003 28.622 29.6556 28.713 29.6933C28.8041 29.731 28.9017 29.7504 29.0002 29.7504C29.0988 29.7504 29.1963 29.731 29.2874 29.6933C29.3784 29.6556 29.4612 29.6003 29.5308 29.5306C29.6005 29.4609 29.6558 29.3782 29.6935 29.2872C29.7312 29.1961 29.7506 29.0985 29.7506 29C29.7506 28.9015 29.7312 28.8039 29.6935 28.7128C29.6558 28.6218 29.6005 28.5391 29.5308 28.4694ZM11.7502 18.5C11.7502 17.165 12.1461 15.8599 12.8878 14.7499C13.6295 13.6399 14.6837 12.7747 15.9171 12.2638C17.1505 11.7529 18.5077 11.6192 19.8171 11.8797C21.1264 12.1401 22.3292 12.783 23.2732 13.727C24.2172 14.671 24.8601 15.8738 25.1205 17.1831C25.381 18.4925 25.2473 19.8497 24.7364 21.0831C24.2255 22.3165 23.3603 23.3707 22.2503 24.1124C21.1403 24.8541 19.8352 25.25 18.5002 25.25C16.7106 25.248 14.9949 24.5362 13.7294 23.2708C12.464 22.0053 11.7522 20.2896 11.7502 18.5Z" fill="white"/>
</svg>
