<svg width="392" height="98" viewBox="0 0 392 98" fill="none" xmlns="http://www.w3.org/2000/svg">
<g clip-path="url(#clip0_175_4848)">
<path d="M58.6942 18.2754C54.4262 8.39272 47.0067 2.41064 36.6415 0.494675C34.8023 0.155495 32.9368 -0.0161133 31.0955 -0.0161133C24.857 -0.0161133 18.9012 1.90591 13.8741 5.54199C8.81665 9.20029 5.07356 14.3324 3.04656 20.3811C2.15823 22.3576 1.6434 25.2467 1.55861 28.7395C1.51823 29.2785 1.67167 31.5074 1.78271 32.2282C2.1017 34.2794 2.71747 36.2135 3.61589 37.9781C4.1388 39.0077 4.79899 41.2043 5.43899 43.3303C6.52113 46.932 7.05615 48.5573 7.62347 49.0135C8.55015 49.7565 9.58182 50.7074 10.5792 51.624C11.6734 52.6315 12.8061 53.6732 13.8599 54.503C19.4907 59.8713 26.028 65.5546 26.0926 65.6111L26.238 65.7383L36.2216 66.5257L36.4154 66.2895C37.2532 65.2699 56.964 41.277 58.1007 39.4983C59.9561 36.5911 60.9474 33.2195 61.0524 29.4703V29.4421C61.0402 25.6283 60.2488 21.8731 58.6942 18.2754Z" fill="#FFCF50"/>
<path d="M35.7048 65.3083L26.7165 64.5996C25.7192 63.7295 19.7997 58.5469 14.6494 53.6348L14.607 53.5985C13.5814 52.7909 12.4589 51.7592 11.3727 50.7599C10.3612 49.8292 9.31541 48.8661 8.36651 48.105C7.98695 47.7295 7.13093 44.8787 6.56361 42.991C6.21837 41.8403 5.86506 40.6713 5.52588 39.6578C9.24676 35.6684 14.6353 32.7268 20.8273 31.1702C24.1101 30.3425 27.617 29.9064 31.2208 29.9064C34.7862 29.9064 38.2487 30.3303 41.487 31.1298C47.6427 32.6481 52.9808 35.5311 56.6855 39.4539C54.182 42.7508 42.2845 57.2992 35.7048 65.3083Z" fill="url(#paint0_linear_175_4848)"/>
<path d="M59.8795 29.434V29.4441C59.7866 32.7976 58.9406 35.826 57.3618 38.4586C53.5764 34.5419 48.2282 31.6427 42.0866 30.072C41.7051 29.9751 41.3235 29.8822 40.9338 29.7934C37.8489 29.0969 34.5762 28.7314 31.2208 28.7314C27.8249 28.7314 24.5038 29.113 21.3684 29.8358C20.9808 29.9226 20.5952 30.0195 20.2136 30.1184C14.1649 31.6932 8.86923 34.5621 5.08778 38.4243C4.94242 38.0468 4.79907 37.7136 4.66178 37.4451C3.82191 35.7896 3.2445 33.9746 2.94368 32.0445C2.83062 31.3258 2.69737 29.1534 2.73169 28.8283L2.73371 28.7839C2.81043 25.4729 3.30709 22.6504 4.12879 20.8374L4.151 20.7789C6.09724 14.9523 9.69699 10.0119 14.5626 6.49295C19.3858 3.00223 25.1054 1.15491 31.0956 1.15491C32.8662 1.15491 34.659 1.32046 36.4276 1.64753C46.387 3.48677 53.5138 9.23668 57.6162 18.7398C59.1082 22.1901 59.8694 25.7919 59.8795 29.434Z" fill="url(#paint1_linear_175_4848)"/>
<path d="M22.1456 82.5762C20.0904 77.6157 15.1682 74.878 11.2051 71.464C3.0385 65.4234 -0.407811 59.4574 0.706637 49.7524C8.94184 64.5916 25.9876 63.5276 22.9653 84.8717L22.1456 82.5762Z" fill="url(#paint2_linear_175_4848)"/>
<path d="M22.9653 85.4613C22.719 85.4613 22.497 85.3078 22.4122 85.0716L21.5965 82.7882C20.0965 79.1784 16.9146 76.7132 13.8358 74.3309C12.8364 73.5556 11.8027 72.7561 10.8356 71.9243C6.47071 68.6941 3.64623 65.6192 1.94831 62.2476C0.131274 58.6418 -0.448156 54.6504 0.121182 49.6879C0.149447 49.4355 0.339224 49.2296 0.589571 49.1791C0.839918 49.1307 1.09228 49.2478 1.21746 49.4698C4.24383 54.923 8.44724 58.1593 12.5113 61.2866C15.9233 63.9132 19.1455 66.3925 21.2977 69.9498C23.7144 73.9433 24.4291 78.712 23.5448 84.9565C23.5064 85.223 23.2924 85.431 23.0239 85.4572C23.0057 85.4592 22.9855 85.4613 22.9653 85.4613ZM1.13468 51.6139C0.672347 59.6372 3.70478 65.1892 11.5544 70.9936C11.5665 71.0017 11.5766 71.0118 11.5887 71.0199C12.5356 71.8355 13.5632 72.631 14.5565 73.4022C17.7383 75.8673 21.0272 78.4132 22.6565 82.2754C23.4479 71.1814 18.019 67.0042 11.7987 62.2173C8.03941 59.3242 4.16711 56.3423 1.13468 51.6139Z" fill="url(#paint3_linear_175_4848)"/>
<path d="M40.7057 82.5762C42.7609 77.6157 47.6831 74.878 51.6462 71.464C59.8128 65.4234 63.2591 59.4574 62.1446 49.7524C53.9094 64.5916 36.8636 63.5276 39.886 84.8717L40.7057 82.5762Z" fill="url(#paint4_linear_175_4848)"/>
<path d="M39.888 85.4612C39.8678 85.4612 39.8477 85.4613 39.8295 85.4592C39.561 85.433 39.3449 85.225 39.3086 84.9585C38.4243 78.714 39.139 73.9453 41.5557 69.9518C43.7078 66.3945 46.9301 63.9132 50.342 61.2886C54.4061 58.1613 58.6095 54.925 61.6359 49.4718C61.7591 49.2498 62.0135 49.1327 62.2638 49.1811C62.5142 49.2316 62.7039 49.4355 62.7322 49.6899C63.3015 54.6524 62.7221 58.6438 60.9051 62.2496C59.2071 65.6192 56.3827 68.6941 52.0177 71.9264C51.0507 72.7582 50.017 73.5576 49.0176 74.3329C45.9408 76.7173 42.7589 79.1804 41.2569 82.7902L40.4412 85.0736C40.3544 85.3078 40.1323 85.4612 39.888 85.4612ZM61.7187 51.6139C58.6863 56.3423 54.8119 59.3242 51.0547 62.2173C44.8344 67.0042 39.4055 71.1834 40.1969 82.2754C41.8262 78.4152 45.115 75.8673 48.2948 73.4022C49.2882 72.633 50.3158 71.8375 51.2627 71.0199C51.2728 71.0098 51.2849 71.0017 51.297 70.9936C59.1486 65.1892 62.181 59.6371 61.7187 51.6139Z" fill="url(#paint5_linear_175_4848)"/>
<path d="M29.8862 45.5188C30.6556 45.5188 31.2793 44.8951 31.2793 44.1257C31.2793 43.3564 30.6556 42.7327 29.8862 42.7327C29.1169 42.7327 28.4932 43.3564 28.4932 44.1257C28.4932 44.8951 29.1169 45.5188 29.8862 45.5188Z" fill="#010101"/>
<path d="M37.6268 69.8328C39.6821 64.8723 44.6042 62.1346 48.5674 58.7206C56.7339 52.68 60.1802 46.714 59.0658 37.009C50.8306 51.8482 33.7848 50.7842 36.8071 72.1283L37.6268 69.8328Z" fill="url(#paint6_linear_175_4848)"/>
<path d="M36.8071 72.7177C36.7869 72.7177 36.7667 72.7177 36.7485 72.7157C36.48 72.6895 36.264 72.4815 36.2277 72.215C35.3434 65.9705 36.0581 61.2018 38.4747 57.2083C40.6269 53.651 43.8491 51.1697 47.2611 48.5451C51.3252 45.4178 55.5286 42.1814 58.555 36.7283C58.6781 36.5062 58.9325 36.3891 59.1829 36.4376C59.4332 36.4881 59.623 36.692 59.6513 36.9464C60.2206 41.9089 59.6412 45.9003 57.8241 49.5061C56.1262 52.8757 53.3017 55.9505 48.9368 59.1808C47.9698 60.0126 46.9361 60.8121 45.9367 61.5874C42.8598 63.9717 39.678 66.4348 38.178 70.0447L37.3623 72.3281C37.2755 72.5623 37.0534 72.7177 36.8071 72.7177ZM58.6378 38.8684C55.6053 43.5967 51.731 46.5787 47.9738 49.4718C41.7535 54.2587 36.3246 58.4378 37.116 69.5298C38.7453 65.6696 42.0341 63.1218 45.2139 60.6566C46.2072 59.8874 47.2349 59.092 48.1838 58.2743C48.1939 58.2642 48.206 58.2561 48.2181 58.2481C56.0697 52.4437 59.1021 46.8916 58.6378 38.8684Z" fill="url(#paint7_linear_175_4848)"/>
<path d="M25.0792 69.8328C23.024 64.8723 18.1018 62.1346 14.1387 58.7206C5.97209 52.68 2.52578 46.714 3.64023 37.009C11.8754 51.8482 28.9212 50.7842 25.8989 72.1283L25.0792 69.8328Z" fill="url(#paint8_linear_175_4848)"/>
<path d="M25.8988 72.7177C25.6525 72.7177 25.4304 72.5643 25.3456 72.3281L24.53 70.0447C23.0299 66.4348 19.8481 63.9697 16.7692 61.5874C15.7699 60.8121 14.7362 60.0126 13.7691 59.1808C9.40418 55.9505 6.5797 52.8757 4.88178 49.5061C3.06475 45.9003 2.48532 41.9089 3.05465 36.9464C3.08292 36.694 3.2727 36.4881 3.52305 36.4376C3.77339 36.3891 4.02576 36.5062 4.15093 36.7283C7.1773 42.1814 11.3807 45.4178 15.4448 48.5451C18.8568 51.1717 22.079 53.651 24.2312 57.2083C26.6478 61.2018 27.3625 65.9705 26.4782 72.215C26.4399 72.4815 26.2259 72.6895 25.9574 72.7157C25.9392 72.7157 25.919 72.7177 25.8988 72.7177ZM4.06815 38.8684C3.60582 46.8916 6.63825 52.4437 14.4878 58.2481C14.5 58.2561 14.51 58.2662 14.5222 58.2743C15.469 59.09 16.4967 59.8874 17.49 60.6566C20.6718 63.1218 23.9606 65.6676 25.5879 69.5298C26.3793 58.4358 20.9504 54.2587 14.7301 49.4718C10.9729 46.5807 7.10058 43.5987 4.06815 38.8684Z" fill="url(#paint9_linear_175_4848)"/>
<path d="M36.7204 95.9576C29.7369 92.586 26.1634 87.0219 26.1028 79.4186C26.0443 72.0656 26.0564 64.5895 26.0685 57.3598C26.0745 54.0649 25.9332 50.6347 25.9332 47.3519C25.9332 45.5591 25.3538 44.4326 23.9244 44.0046C23.4055 43.8087 21.9559 43.946 21.9559 43.946L22.3819 43.1506C23.6417 40.742 26.0947 39.3065 28.9455 39.3065C29.2806 39.3065 29.6238 39.3267 29.963 39.3691C33.0621 39.7426 35.6907 42.0502 36.359 44.9817C36.5306 45.7388 36.6154 46.5868 36.6174 47.574C36.6335 64.206 36.7809 77.86 36.7648 90.2279C36.7607 92.4972 37.2554 94.5585 38.1659 95.6407C38.5091 96.0485 38.9614 96.4482 39.3894 96.7874C39.561 96.9227 39.4015 97.1912 39.1996 97.1044C38.3415 96.7389 37.3301 96.2907 36.7204 95.9576Z" fill="#EF4637"/>
<path d="M39.2742 97.708C39.1713 97.708 39.0683 97.6878 38.9674 97.6454C37.8226 97.1589 36.9767 96.7672 36.4518 96.4825C29.2583 93.0059 25.5778 87.2661 25.5152 79.4266C25.4567 72.0555 25.4688 64.5855 25.4809 57.3617C25.4829 55.682 25.4486 53.9376 25.4123 52.2498C25.38 50.6347 25.3436 48.965 25.3436 47.3559C25.3436 46.2153 25.1539 44.9898 23.7527 44.5718L23.7144 44.5597C23.4802 44.4729 22.6423 44.477 22.0063 44.5375L20.9202 44.6405L21.861 42.882C23.2217 40.2816 25.8686 38.7271 28.9414 38.7271C29.3007 38.7271 29.6662 38.7493 30.0276 38.7937C33.3669 39.1975 36.2034 41.6908 36.9262 44.8585C37.1079 45.658 37.1988 46.5484 37.1988 47.58C37.2069 55.5689 37.2452 62.7382 37.2795 69.6732C37.3179 76.9413 37.3522 83.8077 37.3441 90.236C37.3421 92.4124 37.8246 94.3404 38.608 95.2691C38.8826 95.5942 39.2641 95.9515 39.7467 96.3331C40.0535 96.5754 40.1323 96.9973 39.9324 97.3345C39.7911 97.5707 39.5387 97.708 39.2742 97.708ZM24.1101 43.4493C25.7313 43.9419 26.5207 45.2199 26.5207 47.3519C26.5207 48.9489 26.555 50.6125 26.5893 52.2216C26.6236 53.9154 26.66 55.6679 26.658 57.3597C26.6458 64.5814 26.6317 72.0474 26.6923 79.4125C26.7508 86.7735 30.2113 92.162 36.9787 95.4266L37.005 95.4407C37.1322 95.5094 37.2836 95.5881 37.4592 95.6749C36.6375 94.4636 36.1732 92.5113 36.1772 90.2259C36.1853 83.8016 36.151 76.9373 36.1126 69.6712C36.0763 62.7361 36.0399 55.5649 36.0318 47.574C36.0318 46.6312 35.9511 45.8276 35.7875 45.1129C35.1738 42.4177 32.7511 40.2958 29.8943 39.9525C29.5793 39.9142 29.2604 39.896 28.9474 39.896C26.3652 39.896 24.1383 41.172 22.9653 43.3141C23.3772 43.3141 23.8173 43.3464 24.1101 43.4493Z" fill="url(#paint10_linear_175_4848)"/>
<path d="M29.1978 43.8612C29.7564 43.8612 30.2092 43.4084 30.2092 42.8497C30.2092 42.2911 29.7564 41.8383 29.1978 41.8383C28.6391 41.8383 28.1863 42.2911 28.1863 42.8497C28.1863 43.4084 28.6391 43.8612 29.1978 43.8612Z" fill="url(#paint11_linear_175_4848)"/>
<path d="M44.3094 30.0941H42.1734C42.1452 30.086 42.1149 30.08 42.0866 30.0719C41.707 29.975 41.3235 29.8821 40.9358 29.7953C40.3402 29.66 39.7366 29.5389 39.1269 29.4299C38.7877 24.6248 34.7801 20.8293 29.8862 20.8293C24.7965 20.8293 20.6658 24.9358 20.6234 30.0154L20.3125 30.0941H15.463C15.463 30.0941 16.7834 29.9609 18.2491 29.2179C19.2869 28.693 19.5614 27.3363 18.8023 26.454C17.7545 25.2305 16.6098 24.6026 16.5613 24.5744C16.6098 24.5885 17.8615 24.9559 19.4746 24.8308C20.6335 24.744 21.3987 23.5891 21.0373 22.4828C20.5507 20.9928 19.7633 19.9934 19.6927 19.9026C19.7835 19.9732 20.7829 20.7586 22.2769 21.2472C23.3812 21.6086 24.5361 20.8434 24.6229 19.6805C24.7481 18.0815 24.3887 16.8338 24.3685 16.7692C24.4028 16.8318 25.0267 17.9684 26.2421 19.0082C27.1264 19.7693 28.4871 19.4947 29.012 18.457C29.755 16.9872 29.8862 15.6709 29.8862 15.6709C29.8862 15.6709 30.0195 16.9872 30.7624 18.457C31.2874 19.4947 32.6441 19.7693 33.5304 19.0082C34.7458 17.9684 35.3737 16.8318 35.408 16.7692C35.3878 16.8338 35.0284 18.0815 35.1516 19.6805C35.2424 20.8414 36.3932 21.6086 37.4996 21.2472C38.9896 20.7586 39.9889 19.9732 40.0798 19.9026C40.0111 19.9934 39.2238 20.9928 38.7372 22.4828C38.3718 23.5912 39.139 24.744 40.2999 24.8308C41.911 24.9559 43.1667 24.5885 43.2112 24.5744C43.1627 24.6026 42.018 25.2305 40.9701 26.454C40.213 27.3363 40.4876 28.693 41.5274 29.2179C42.9931 29.9609 44.3094 30.0941 44.3094 30.0941Z" fill="#F4C120"/>
<path d="M25.7353 24.2131C25.483 24.6027 25.3416 24.3604 25.1963 24.1848C24.213 22.9936 23.2157 21.8126 22.2506 20.6052C19.8138 17.5567 17.3911 14.4939 14.9643 11.4373C14.8957 11.3505 14.8452 11.2495 14.8412 11.1143C18.5823 15.3782 22.184 19.7593 25.7353 24.2131Z" fill="url(#paint12_linear_175_4848)"/>
<path d="M34.9639 25.8403C34.8488 25.695 34.7822 25.6061 34.6591 25.4507C39.3389 22.1921 43.9966 18.9497 48.6543 15.7053C48.7067 15.778 48.7572 15.8527 48.8097 15.9254C44.2005 19.2263 39.5913 22.5273 34.9639 25.8403Z" fill="url(#paint13_linear_175_4848)"/>
<path d="M6.28095 27.5624C11.938 27.9096 17.593 28.2589 23.25 28.6062C23.2702 28.6809 23.2904 28.7556 23.3106 28.8323C23.1693 28.8989 23.0259 29.0301 22.8866 29.0221C21.6107 28.9615 20.3347 28.8868 19.0608 28.798C16.9591 28.6506 14.8574 28.4971 12.7577 28.3336C10.6741 28.1701 8.5906 27.9924 6.50909 27.8188C6.42227 27.8107 6.33748 27.7683 6.25269 27.7421C6.26076 27.6835 6.27085 27.6229 6.28095 27.5624Z" fill="url(#paint14_linear_175_4848)"/>
<path d="M7.57106 21.3562C8.75617 21.7539 9.94733 22.1355 11.1264 22.5494C15.1541 23.9647 19.1779 25.3941 23.2016 26.8154C23.4277 26.8961 23.7124 26.9325 23.5388 27.4049C18.1765 25.4526 12.8324 23.5084 7.48828 21.5621C7.51655 21.4955 7.54481 21.4269 7.57106 21.3562Z" fill="url(#paint15_linear_175_4848)"/>
<path d="M20.369 7.78906C20.692 8.48963 21.0252 9.18616 21.3361 9.89278C23.244 14.2294 25.1478 18.5661 27.0497 22.9048C27.1466 23.1269 27.3565 23.3893 26.8457 23.5569C24.6168 18.3258 22.39 13.0968 20.1631 7.8678C20.2317 7.83954 20.3004 7.81531 20.369 7.78906Z" fill="url(#paint16_linear_175_4848)"/>
<path d="M10.5651 15.6709C15.2107 18.9133 19.8542 22.1557 24.4897 25.39C24.2979 25.7978 24.2959 25.8019 23.9325 25.5475C21.8974 24.1161 19.8522 22.6947 17.8292 21.2431C15.4832 19.5573 13.1574 17.8453 10.8256 16.1413C10.6964 16.0464 10.5773 15.9374 10.4541 15.8344C10.4925 15.7799 10.5288 15.7254 10.5651 15.6709Z" fill="url(#paint17_linear_175_4848)"/>
<path d="M52.9626 27.8007C52.2802 27.8694 51.5978 27.9541 50.9134 28.0026C46.1104 28.3519 41.3074 28.6931 36.5043 29.0363C36.4377 29.0403 36.363 29.0625 36.3065 29.0383C36.1773 28.9838 36.0581 28.9051 35.937 28.8364C36.0481 28.7718 36.1551 28.6608 36.2701 28.6487C37.114 28.5699 37.958 28.4993 38.8019 28.4508C43.3445 28.1823 47.887 27.9178 52.4317 27.6553C52.6073 27.6453 52.7829 27.6533 52.9606 27.6533C52.9586 27.7038 52.9606 27.7523 52.9626 27.8007Z" fill="url(#paint18_linear_175_4848)"/>
<path d="M32.8783 6.1194C32.8016 6.81593 32.737 7.51246 32.6502 8.20698C32.3029 10.987 31.9617 13.7671 31.5943 16.5431C31.3217 18.5964 31.0148 20.6456 30.71 22.6928C30.6918 22.8119 30.5545 22.9128 30.4718 23.0239C30.4193 22.9048 30.3102 22.7776 30.3244 22.6686C31.1118 17.173 31.9092 11.6795 32.7067 6.18603C32.7107 6.15978 32.741 6.13556 32.7592 6.11133C32.7996 6.11537 32.84 6.11739 32.8783 6.1194Z" fill="url(#paint19_linear_175_4848)"/>
<path d="M26.5167 6.13354C26.6076 6.66048 26.7146 7.18541 26.7893 7.71638C27.4696 12.5396 28.144 17.3648 28.8203 22.1901C28.8425 22.3536 28.899 22.5192 28.889 22.6807C28.8809 22.7998 28.788 22.9129 28.7335 23.03C28.6548 22.933 28.5235 22.8422 28.5074 22.7352C28.3297 21.6066 28.1621 20.474 28.0107 19.3414C27.6514 16.6461 27.294 13.9529 26.9528 11.2556C26.7489 9.64446 26.5813 8.0273 26.3996 6.41216C26.3895 6.32534 26.4077 6.23651 26.4117 6.14768C26.4481 6.14162 26.4824 6.13758 26.5167 6.13354Z" fill="url(#paint20_linear_175_4848)"/>
<path d="M32.3776 23.5326C31.8709 23.4721 32.0122 23.2399 32.1071 23.0259C33.4618 19.9268 34.8044 16.8237 36.1732 13.7328C36.9848 11.8976 37.8348 10.0805 38.6686 8.25541C38.7393 8.10197 38.82 7.95257 38.8968 7.80115C38.9573 7.82941 39.0199 7.85768 39.0805 7.88594C36.8475 13.0988 34.6146 18.3137 32.3776 23.5326Z" fill="url(#paint21_linear_175_4848)"/>
<path d="M35.5493 27.2151C35.6543 27.096 35.7351 26.9163 35.8663 26.8679C38.6867 25.8544 41.5072 24.8409 44.3377 23.8577C46.5747 23.0804 48.8238 22.3415 51.0688 21.5884C51.2626 21.5238 51.4625 21.4794 51.6604 21.4269C51.6806 21.4874 51.7007 21.548 51.7189 21.6086C46.3889 23.5367 41.059 25.4627 35.729 27.3908C35.6705 27.3322 35.6099 27.2737 35.5493 27.2151Z" fill="url(#paint22_linear_175_4848)"/>
<path d="M33.4517 24.1847C37.0716 19.8057 40.6875 15.4307 44.3054 11.0557C44.3559 11.094 44.4064 11.1324 44.4568 11.1707C44.3842 11.2838 44.3195 11.4029 44.2368 11.5079C40.8349 15.7376 37.4289 19.9652 34.025 24.1928C33.8777 24.3745 33.7404 24.6148 33.4517 24.1847Z" fill="url(#paint23_linear_175_4848)"/>
<path d="M21.2574 15.675C22.9775 18.3622 24.6976 21.0494 26.4157 23.7366C26.3976 23.7871 26.3794 23.8396 26.3632 23.8901C26.2259 23.8598 26.016 23.8759 25.9655 23.7932C24.3483 21.1524 22.7453 18.5015 21.1423 15.8527C21.1302 15.8305 21.1483 15.7901 21.1524 15.7578C21.1887 15.7296 21.223 15.7033 21.2574 15.675Z" fill="url(#paint24_linear_175_4848)"/>
<path d="M29.3774 22.82C29.3774 19.6987 29.3774 16.5795 29.3774 13.4582C29.4219 13.4562 29.4663 13.4542 29.5107 13.4521C29.5329 13.7711 29.5713 14.0881 29.5773 14.4071C29.6318 17.0479 29.6823 19.6866 29.7308 22.3274C29.7368 22.7251 29.7287 22.7251 29.3774 22.82Z" fill="url(#paint25_linear_175_4848)"/>
<path d="M34.3339 25.1175C34.233 24.9883 34.1643 24.9015 34.0513 24.7582C36.3993 22.5697 38.7352 20.3933 41.0711 18.2189C41.1236 18.2734 41.1761 18.3279 41.2286 18.3824C38.9512 20.6073 36.6718 22.8341 34.3339 25.1175Z" fill="url(#paint26_linear_175_4848)"/>
<path d="M25.2064 13.9811C25.269 14.1406 25.3457 14.2981 25.3942 14.4616C26.2259 17.1993 27.0557 19.9389 27.8754 22.6806C27.934 22.8785 28.1762 23.2157 27.5948 23.2358C26.7448 20.1751 25.8908 17.1064 25.0388 14.0376C25.0953 14.0174 25.1519 13.9992 25.2064 13.9811Z" fill="url(#paint27_linear_175_4848)"/>
<path d="M31.3096 23.2339C31.247 23.1188 31.1077 22.9815 31.134 22.8886C31.9638 19.9107 32.8097 16.9368 33.6556 13.9629C33.6617 13.9407 33.7041 13.9266 33.8575 13.9428C33.0681 17.0236 32.2787 20.1065 31.4893 23.1874C31.4288 23.2036 31.3682 23.2197 31.3096 23.2339Z" fill="url(#paint28_linear_175_4848)"/>
<path d="M23.9991 26.2219C23.8981 26.7104 23.6781 26.5449 23.4701 26.4359C21.4229 25.3759 19.3737 24.32 17.3306 23.2581C16.6603 22.9088 16.0001 22.5434 15.3339 22.184C15.3621 22.1255 15.3924 22.0689 15.4207 22.0104C18.2775 23.4135 21.1363 24.8167 23.9991 26.2219Z" fill="url(#paint29_linear_175_4848)"/>
<path d="M45.212 26.0139C42.1109 26.7266 39.0098 27.4392 35.9088 28.1519C35.6705 27.8067 35.8643 27.7138 36.1167 27.6613C37.7218 27.3201 39.3248 26.9749 40.9318 26.6458C42.2139 26.3833 43.4999 26.1411 44.786 25.8927C44.9152 25.8685 45.0505 25.8645 45.1837 25.8503C45.1938 25.9028 45.2019 25.9594 45.212 26.0139Z" fill="url(#paint30_linear_175_4848)"/>
<path d="M37.8186 15.6447C37.5743 16.0869 37.3381 16.5331 37.0837 16.9691C35.8098 19.1597 34.5358 21.3482 33.2498 23.5307C33.1629 23.678 32.9752 23.7669 32.8339 23.884C32.7733 23.8274 32.7147 23.7729 32.6542 23.7164C34.3218 20.9908 35.9894 18.2653 37.6571 15.5377C37.7096 15.5741 37.7641 15.6084 37.8186 15.6447Z" fill="url(#paint31_linear_175_4848)"/>
<path d="M23.3086 28.2852C20.1591 27.627 17.0479 26.9769 13.9368 26.3268C13.9408 26.2804 13.9448 26.234 13.9509 26.1875C14.0357 26.1774 14.1225 26.1472 14.2012 26.1613C17.1004 26.6923 19.9996 27.2232 22.8968 27.7683C23.0926 27.8047 23.4439 27.7764 23.3086 28.2852Z" fill="url(#paint32_linear_175_4848)"/>
<path d="M25.0994 24.8713C24.9702 25.0106 24.8935 25.0913 24.7885 25.2044C22.4102 22.9735 20.0844 20.793 17.7566 18.6126C17.8071 18.5581 17.8575 18.5015 17.908 18.447C20.2803 20.5669 22.6525 22.6848 25.0994 24.8713Z" fill="url(#paint33_linear_175_4848)"/>
<path d="M43.7482 21.855C43.6371 21.9297 43.5301 22.0104 43.413 22.075C40.8409 23.4862 38.2668 24.8995 35.6866 26.3006C35.5614 26.3693 35.3757 26.3269 35.2202 26.337C35.2949 26.2179 35.3413 26.0442 35.4483 25.9877C38.1234 24.5946 40.8046 23.2117 43.4877 21.8307C43.5523 21.7964 43.629 21.7843 43.6997 21.7621C43.7179 21.7944 43.732 21.8247 43.7482 21.855Z" fill="url(#paint34_linear_175_4848)"/>
<path d="M44.4669 30.1326H42.3309C42.3026 30.1245 42.0765 30.1406 42.0482 30.1326C41.6687 30.0357 41.4648 29.9832 41.0791 29.8943C40.4836 29.7591 39.8537 29.6177 39.2439 29.5107C38.8684 29.4421 38.5111 29.3755 38.1295 29.3189C35.9369 28.9818 33.704 28.8425 31.3944 28.8425C28.1358 28.8425 24.8853 29.0706 21.859 29.7389C21.7318 29.7671 21.5581 29.8116 21.433 29.8398C21.1846 29.8964 21.011 29.9246 20.7667 29.9872L20.4053 30.0781L15.6245 30.1326C15.6245 30.1326 16.9449 29.9993 18.4106 29.2564C19.4484 28.7314 19.7229 27.3747 18.9638 26.4924C17.916 25.269 16.7713 24.6411 16.7228 24.6128C16.7713 24.627 18.023 24.9944 19.6361 24.8692C20.795 24.7824 21.5602 23.6276 21.1988 22.5212C20.7122 21.0312 19.9248 20.0319 19.8542 19.941C19.945 20.0117 20.9444 20.797 22.4384 21.2856C23.5427 21.647 24.6976 20.8818 24.7844 19.7189C24.9096 18.12 24.5502 16.8723 24.53 16.8076C24.5643 16.8702 25.1882 18.0069 26.4036 19.0466C27.2879 19.8078 28.6486 19.5332 29.1735 18.4955C29.9165 17.0257 30.0477 15.7094 30.0477 15.7094C30.0477 15.7094 30.181 17.0257 30.9239 18.4955C31.4489 19.5332 32.8056 19.8078 33.6919 19.0466C34.9073 18.0069 35.5352 16.8702 35.5695 16.8076C35.5493 16.8723 35.1899 18.12 35.3131 19.7189C35.4039 20.8798 36.5547 21.647 37.6611 21.2856C39.1511 20.797 40.1504 20.0117 40.2413 19.941C40.1726 20.0319 39.3853 21.0312 38.8987 22.5212C38.5333 23.6296 39.3005 24.7824 40.4614 24.8692C42.0725 24.9944 43.3282 24.627 43.3726 24.6128C43.3242 24.6411 42.1795 25.269 41.1316 26.4924C40.3745 27.3747 40.6491 28.7314 41.6889 29.2564C43.1506 29.9993 44.4669 30.1326 44.4669 30.1326Z" fill="url(#paint35_linear_175_4848)"/>
<path d="M44.5921 30.0942H42.4561C42.4279 30.0861 42.3976 30.08 42.3693 30.072C41.9897 29.9751 41.6062 29.8822 41.2185 29.7954C40.6229 29.6601 40.0193 29.539 39.4096 29.43C39.034 29.3613 38.6585 29.2967 38.2769 29.2402C36.0844 28.903 33.8636 28.8424 31.5559 28.8424C28.2974 28.8424 25.055 29.0827 22.0286 29.751C21.9014 29.7792 21.7763 29.8075 21.6531 29.8358C21.4048 29.8923 21.1564 29.9508 20.9101 30.0134L20.5992 30.0922H15.7498C15.7498 30.0922 17.0701 29.9589 18.5359 29.216C19.5736 28.691 19.8482 27.3343 19.0891 26.452C18.0412 25.2286 16.8965 24.6007 16.8481 24.5724C16.8965 24.5865 18.1482 24.954 19.7614 24.8288C20.9202 24.742 21.6854 23.5872 21.324 22.4808C20.8374 20.9908 20.0501 19.9915 19.9794 19.9006C20.0703 19.9713 21.0696 20.7566 22.5636 21.2452C23.668 21.6066 24.8228 20.8414 24.9096 19.6785C25.0348 18.0795 24.6754 16.8318 24.6552 16.7672C24.6896 16.8298 25.3134 17.9665 26.5288 19.0062C27.4131 19.7674 28.7739 19.4928 29.2988 18.4551C30.0417 16.9853 30.173 15.6689 30.173 15.6689C30.173 15.6689 30.3062 16.9853 31.0492 18.4551C31.5741 19.4928 32.9308 19.7674 33.8171 19.0062C35.0325 17.9665 35.6604 16.8298 35.6947 16.7672C35.6745 16.8318 35.3152 18.0795 35.4383 19.6785C35.5292 20.8394 36.68 21.6066 37.7863 21.2452C39.2763 20.7566 40.2757 19.9713 40.3665 19.9006C40.2979 19.9915 39.5105 20.9908 39.024 22.4808C38.6585 23.5892 39.4257 24.742 40.5866 24.8288C42.1977 24.954 43.4535 24.5865 43.4979 24.5724C43.4494 24.6007 42.3047 25.2286 41.2569 26.452C40.4998 27.3343 40.7744 28.691 41.8141 29.216C43.2758 29.9609 44.5921 30.0942 44.5921 30.0942Z" fill="url(#paint36_linear_175_4848)"/>
<path d="M37.9922 29.3108C35.7997 28.9736 33.5223 28.8424 31.2127 28.8424C27.9541 28.8424 24.7703 29.1533 21.7439 29.8236C21.9216 25.4789 25.4971 22.0144 29.8862 22.0144C34.0997 22.0124 37.5662 25.2104 37.9922 29.3108Z" fill="url(#paint37_linear_175_4848)"/>
</g>
<path d="M79.96 50.622C79.128 50.622 78.384 50.55 77.728 50.406C77.072 50.262 76.352 50.07 75.568 49.83C75.088 49.654 74.728 49.558 74.488 49.542L74.68 45.198H76.216L76.624 48.318C76.896 48.574 77.336 48.806 77.944 49.014C78.568 49.206 79.248 49.302 79.984 49.302C81.2 49.302 82.12 49.03 82.744 48.486C83.384 47.942 83.704 47.19 83.704 46.23C83.704 45.606 83.528 45.07 83.176 44.622C82.84 44.174 82.384 43.79 81.808 43.47C81.248 43.15 80.472 42.774 79.48 42.342C78.584 41.942 77.8 41.534 77.128 41.118C76.472 40.702 75.896 40.15 75.4 39.462C74.92 38.758 74.68 37.918 74.68 36.942C74.68 36.062 74.912 35.278 75.376 34.59C75.856 33.886 76.536 33.334 77.416 32.934C78.312 32.534 79.352 32.334 80.536 32.334C81.272 32.334 81.92 32.39 82.48 32.502C83.056 32.614 83.704 32.766 84.424 32.958C84.744 33.07 85.016 33.142 85.24 33.174L85.096 37.206H83.632L83.152 34.254C82.992 34.094 82.656 33.942 82.144 33.798C81.648 33.654 81.104 33.582 80.512 33.582C79.408 33.582 78.568 33.814 77.992 34.278C77.432 34.742 77.152 35.414 77.152 36.294C77.152 36.934 77.32 37.47 77.656 37.902C78.008 38.334 78.44 38.702 78.952 39.006C79.464 39.31 80.28 39.726 81.4 40.254C82.44 40.75 83.288 41.198 83.944 41.598C84.6 41.998 85.16 42.526 85.624 43.182C86.104 43.822 86.344 44.59 86.344 45.486C86.344 46.334 86.104 47.15 85.624 47.934C85.16 48.718 84.44 49.366 83.464 49.878C82.504 50.374 81.336 50.622 79.96 50.622ZM89.626 32.454L87.61 32.19V31.158L91.522 30.702H91.57L92.098 31.062V36.63L92.002 38.67C92.514 38.206 93.218 37.766 94.114 37.35C95.01 36.934 95.914 36.726 96.826 36.726C97.834 36.726 98.618 36.918 99.178 37.302C99.738 37.686 100.13 38.278 100.354 39.078C100.578 39.862 100.69 40.926 100.69 42.27V48.966L102.37 49.182V50.358H96.634V49.182L98.194 48.966V42.246C98.194 41.302 98.13 40.566 98.002 40.038C97.874 39.494 97.634 39.094 97.282 38.838C96.93 38.566 96.402 38.43 95.698 38.43C95.122 38.43 94.506 38.574 93.85 38.862C93.194 39.15 92.618 39.486 92.122 39.87V48.966L93.778 49.182V50.358H88.186V49.182L89.626 48.99V32.454ZM104.198 49.182L105.998 49.038V38.886L104.27 38.454V37.158L107.582 36.726H107.63L108.158 37.158V37.59L108.086 39.462H108.158C108.318 39.19 108.606 38.838 109.022 38.406C109.438 37.974 109.974 37.582 110.63 37.23C111.286 36.862 111.998 36.678 112.766 36.678C113.086 36.678 113.35 36.718 113.558 36.798V39.486C113.446 39.406 113.262 39.334 113.006 39.27C112.766 39.19 112.494 39.15 112.19 39.15C110.862 39.15 109.63 39.558 108.494 40.374V49.014L111.542 49.206V50.358H104.198V49.182ZM117.975 34.638C117.463 34.638 117.079 34.494 116.823 34.206C116.567 33.918 116.439 33.55 116.439 33.102C116.439 32.59 116.591 32.166 116.895 31.83C117.215 31.494 117.647 31.326 118.191 31.326C118.735 31.326 119.135 31.47 119.391 31.758C119.647 32.046 119.775 32.414 119.775 32.862C119.775 33.406 119.615 33.838 119.295 34.158C118.991 34.478 118.559 34.638 117.999 34.638H117.975ZM117.015 38.886L115.191 38.454V37.182L118.911 36.726H118.959L119.511 37.158V48.99L121.431 49.182V50.358H115.071V49.182L117.015 48.966V38.886ZM131.686 34.014L129.07 33.726V32.526H135.43L138.814 43.326L139.606 46.374L140.326 43.326L143.686 32.526H149.998V33.726L147.358 34.014L149.278 48.918L151.366 49.182V50.358H144.454V49.182L146.638 48.942L145.558 38.166L145.054 33.534L144.046 36.99L140.038 49.542H138.478L134.59 38.046L133.174 33.51L132.742 38.166L131.782 48.942L134.158 49.182V50.358H127.894V49.182L129.934 48.942L131.686 34.014ZM152.596 46.758C152.596 45.254 153.348 44.15 154.852 43.446C156.356 42.726 158.26 42.342 160.564 42.294V41.622C160.564 40.87 160.484 40.278 160.324 39.846C160.164 39.414 159.884 39.102 159.484 38.91C159.1 38.702 158.548 38.598 157.828 38.598C157.012 38.598 156.276 38.718 155.62 38.958C154.98 39.182 154.34 39.462 153.7 39.798L153.1 38.55C153.308 38.374 153.692 38.142 154.252 37.854C154.812 37.566 155.46 37.31 156.196 37.086C156.932 36.862 157.668 36.75 158.404 36.75C159.54 36.75 160.436 36.91 161.092 37.23C161.764 37.534 162.244 38.03 162.532 38.718C162.82 39.406 162.964 40.326 162.964 41.478V49.182H164.38V50.238C164.06 50.318 163.652 50.398 163.156 50.478C162.676 50.558 162.252 50.598 161.884 50.598C161.436 50.598 161.132 50.526 160.972 50.382C160.812 50.254 160.732 49.958 160.732 49.494V48.702C160.252 49.182 159.66 49.622 158.956 50.022C158.268 50.422 157.484 50.622 156.604 50.622C155.452 50.622 154.492 50.294 153.724 49.638C152.972 48.966 152.596 48.006 152.596 46.758ZM157.636 48.99C158.052 48.99 158.532 48.862 159.076 48.606C159.62 48.35 160.116 48.046 160.564 47.694V43.566C158.82 43.566 157.5 43.838 156.604 44.382C155.724 44.91 155.284 45.606 155.284 46.47C155.284 47.334 155.492 47.974 155.908 48.39C156.34 48.79 156.916 48.99 157.636 48.99ZM171.233 50.622C170.273 50.622 169.393 50.382 168.593 49.902C167.793 49.422 167.153 48.686 166.673 47.694C166.209 46.702 165.977 45.478 165.977 44.022C165.977 42.662 166.257 41.422 166.817 40.302C167.377 39.182 168.177 38.302 169.217 37.662C170.273 37.006 171.513 36.678 172.937 36.678C173.753 36.678 174.497 36.766 175.169 36.942V32.454L172.721 32.166V31.134L177.041 30.702H177.113L177.641 31.086V49.134H179.033V50.238C178.521 50.35 178.073 50.438 177.689 50.502C177.321 50.566 176.929 50.598 176.513 50.598C176.097 50.598 175.801 50.526 175.625 50.382C175.449 50.238 175.361 49.934 175.361 49.47V48.702C174.913 49.246 174.321 49.702 173.585 50.07C172.865 50.438 172.081 50.622 171.233 50.622ZM172.193 48.918C172.817 48.918 173.401 48.782 173.945 48.51C174.489 48.222 174.897 47.894 175.169 47.526V38.742C175.041 38.55 174.737 38.382 174.257 38.238C173.793 38.078 173.297 37.998 172.769 37.998C171.521 37.998 170.521 38.478 169.769 39.438C169.033 40.382 168.665 41.846 168.665 43.83C168.665 45.558 168.993 46.838 169.649 47.67C170.305 48.502 171.153 48.918 172.193 48.918ZM182.251 32.454L180.235 32.19V31.158L184.147 30.702H184.195L184.723 31.062V36.63L184.627 38.67C185.139 38.206 185.843 37.766 186.739 37.35C187.635 36.934 188.539 36.726 189.451 36.726C190.459 36.726 191.243 36.918 191.803 37.302C192.363 37.686 192.755 38.278 192.979 39.078C193.203 39.862 193.315 40.926 193.315 42.27V48.966L194.995 49.182V50.358H189.259V49.182L190.819 48.966V42.246C190.819 41.302 190.755 40.566 190.627 40.038C190.499 39.494 190.259 39.094 189.907 38.838C189.555 38.566 189.027 38.43 188.323 38.43C187.747 38.43 187.131 38.574 186.475 38.862C185.819 39.15 185.243 39.486 184.747 39.87V48.966L186.403 49.182V50.358H180.811V49.182L182.251 48.99V32.454ZM196.775 46.758C196.775 45.254 197.527 44.15 199.031 43.446C200.535 42.726 202.439 42.342 204.743 42.294V41.622C204.743 40.87 204.663 40.278 204.503 39.846C204.343 39.414 204.063 39.102 203.663 38.91C203.279 38.702 202.727 38.598 202.007 38.598C201.191 38.598 200.455 38.718 199.799 38.958C199.159 39.182 198.519 39.462 197.879 39.798L197.279 38.55C197.487 38.374 197.871 38.142 198.431 37.854C198.991 37.566 199.639 37.31 200.375 37.086C201.111 36.862 201.847 36.75 202.583 36.75C203.719 36.75 204.615 36.91 205.271 37.23C205.943 37.534 206.423 38.03 206.711 38.718C206.999 39.406 207.143 40.326 207.143 41.478V49.182H208.559V50.238C208.239 50.318 207.831 50.398 207.335 50.478C206.855 50.558 206.431 50.598 206.063 50.598C205.615 50.598 205.311 50.526 205.151 50.382C204.991 50.254 204.911 49.958 204.911 49.494V48.702C204.431 49.182 203.839 49.622 203.135 50.022C202.447 50.422 201.663 50.622 200.783 50.622C199.631 50.622 198.671 50.294 197.903 49.638C197.151 48.966 196.775 48.006 196.775 46.758ZM201.815 48.99C202.231 48.99 202.711 48.862 203.255 48.606C203.799 48.35 204.295 48.046 204.743 47.694V43.566C202.999 43.566 201.679 43.838 200.783 44.382C199.903 44.91 199.463 45.606 199.463 46.47C199.463 47.334 199.671 47.974 200.087 48.39C200.519 48.79 201.095 48.99 201.815 48.99ZM209.124 37.038H214.692V38.166L212.988 38.478L215.412 45.39L216.42 48.438L217.284 45.486L219.708 38.478L218.076 38.166V37.038H222.948V38.166L221.7 38.478L217.068 50.55H215.028L210.204 38.478L209.124 38.166V37.038ZM228.34 53.646C229.044 53.438 229.676 53.062 230.236 52.518C230.796 51.99 231.204 51.334 231.46 50.55C231.668 49.942 231.804 49.238 231.868 48.438C231.932 47.622 231.964 46.374 231.964 44.694V34.038L229.66 33.726V32.526H236.716V33.726L234.532 34.038V43.758V44.886C234.532 46.15 234.516 47.166 234.484 47.934C234.452 48.702 234.38 49.358 234.268 49.902C233.98 51.182 233.348 52.238 232.372 53.07C231.396 53.902 230.268 54.43 228.988 54.654L228.34 53.646ZM238.705 46.758C238.705 45.254 239.457 44.15 240.961 43.446C242.465 42.726 244.369 42.342 246.673 42.294V41.622C246.673 40.87 246.593 40.278 246.433 39.846C246.273 39.414 245.993 39.102 245.593 38.91C245.209 38.702 244.657 38.598 243.937 38.598C243.121 38.598 242.385 38.718 241.729 38.958C241.089 39.182 240.449 39.462 239.809 39.798L239.209 38.55C239.417 38.374 239.801 38.142 240.361 37.854C240.921 37.566 241.569 37.31 242.305 37.086C243.041 36.862 243.777 36.75 244.513 36.75C245.649 36.75 246.545 36.91 247.201 37.23C247.873 37.534 248.353 38.03 248.641 38.718C248.929 39.406 249.073 40.326 249.073 41.478V49.182H250.489V50.238C250.169 50.318 249.761 50.398 249.265 50.478C248.785 50.558 248.361 50.598 247.993 50.598C247.545 50.598 247.241 50.526 247.081 50.382C246.921 50.254 246.841 49.958 246.841 49.494V48.702C246.361 49.182 245.769 49.622 245.065 50.022C244.377 50.422 243.593 50.622 242.713 50.622C241.561 50.622 240.601 50.294 239.833 49.638C239.081 48.966 238.705 48.006 238.705 46.758ZM243.745 48.99C244.161 48.99 244.641 48.862 245.185 48.606C245.729 48.35 246.225 48.046 246.673 47.694V43.566C244.929 43.566 243.609 43.838 242.713 44.382C241.833 44.91 241.393 45.606 241.393 46.47C241.393 47.334 241.601 47.974 242.017 48.39C242.449 48.79 243.025 48.99 243.745 48.99ZM253.598 38.886L251.87 38.454V37.158L255.302 36.726H255.374L255.878 37.158V38.166L255.854 38.742C256.43 38.23 257.19 37.766 258.134 37.35C259.078 36.934 259.982 36.726 260.846 36.726C261.854 36.726 262.63 36.918 263.174 37.302C263.734 37.686 264.126 38.278 264.35 39.078C264.574 39.862 264.686 40.926 264.686 42.27V48.99L266.366 49.158V50.358H260.678V49.182L262.166 48.99V42.246C262.166 41.302 262.102 40.566 261.974 40.038C261.846 39.494 261.606 39.094 261.254 38.838C260.902 38.566 260.39 38.43 259.718 38.43C259.142 38.43 258.526 38.574 257.87 38.862C257.214 39.15 256.63 39.486 256.118 39.87V48.966L257.75 49.182V50.358H252.086V49.182L253.598 48.966V38.886ZM279.671 50.622C278.839 50.622 278.095 50.55 277.439 50.406C276.783 50.262 276.063 50.07 275.279 49.83C274.799 49.654 274.439 49.558 274.199 49.542L274.391 45.198H275.927L276.335 48.318C276.607 48.574 277.047 48.806 277.655 49.014C278.279 49.206 278.959 49.302 279.695 49.302C280.911 49.302 281.831 49.03 282.455 48.486C283.095 47.942 283.415 47.19 283.415 46.23C283.415 45.606 283.239 45.07 282.887 44.622C282.551 44.174 282.095 43.79 281.519 43.47C280.959 43.15 280.183 42.774 279.191 42.342C278.295 41.942 277.511 41.534 276.839 41.118C276.183 40.702 275.607 40.15 275.111 39.462C274.631 38.758 274.391 37.918 274.391 36.942C274.391 36.062 274.623 35.278 275.087 34.59C275.567 33.886 276.247 33.334 277.127 32.934C278.023 32.534 279.063 32.334 280.247 32.334C280.983 32.334 281.631 32.39 282.191 32.502C282.767 32.614 283.415 32.766 284.135 32.958C284.455 33.07 284.727 33.142 284.951 33.174L284.807 37.206H283.343L282.863 34.254C282.703 34.094 282.367 33.942 281.855 33.798C281.359 33.654 280.815 33.582 280.223 33.582C279.119 33.582 278.279 33.814 277.703 34.278C277.143 34.742 276.863 35.414 276.863 36.294C276.863 36.934 277.031 37.47 277.367 37.902C277.719 38.334 278.151 38.702 278.663 39.006C279.175 39.31 279.991 39.726 281.111 40.254C282.151 40.75 282.999 41.198 283.655 41.598C284.311 41.998 284.871 42.526 285.335 43.182C285.815 43.822 286.055 44.59 286.055 45.486C286.055 46.334 285.815 47.15 285.335 47.934C284.871 48.718 284.151 49.366 283.175 49.878C282.215 50.374 281.047 50.622 279.671 50.622ZM293.945 50.622C292.009 50.622 290.529 49.99 289.505 48.726C288.497 47.462 287.993 45.774 287.993 43.662C287.993 42.27 288.257 41.046 288.785 39.99C289.313 38.934 290.049 38.118 290.993 37.542C291.953 36.966 293.041 36.678 294.257 36.678C295.745 36.678 296.897 37.094 297.713 37.926C298.545 38.742 298.985 39.918 299.033 41.454C299.033 42.43 298.977 43.174 298.865 43.686H290.609C290.641 45.27 291.009 46.55 291.713 47.526C292.417 48.486 293.417 48.966 294.713 48.966C295.353 48.966 296.017 48.854 296.705 48.63C297.409 48.39 297.953 48.11 298.337 47.79L298.793 48.846C298.329 49.326 297.641 49.742 296.729 50.094C295.817 50.446 294.889 50.622 293.945 50.622ZM296.393 42.414C296.441 42.078 296.465 41.734 296.465 41.382C296.449 40.342 296.225 39.526 295.793 38.934C295.377 38.326 294.713 38.022 293.801 38.022C292.873 38.022 292.129 38.358 291.569 39.03C291.025 39.702 290.713 40.83 290.633 42.414H296.393ZM299.992 37.038H305.56V38.166L303.856 38.478L306.28 45.39L307.288 48.438L308.152 45.486L310.576 38.478L308.944 38.166V37.038H313.816V38.166L312.568 38.478L307.936 50.55H305.896L301.072 38.478L299.992 38.166V37.038ZM314.736 46.758C314.736 45.254 315.488 44.15 316.992 43.446C318.496 42.726 320.4 42.342 322.704 42.294V41.622C322.704 40.87 322.624 40.278 322.464 39.846C322.304 39.414 322.024 39.102 321.624 38.91C321.24 38.702 320.688 38.598 319.968 38.598C319.152 38.598 318.416 38.718 317.76 38.958C317.12 39.182 316.48 39.462 315.84 39.798L315.24 38.55C315.448 38.374 315.832 38.142 316.392 37.854C316.952 37.566 317.6 37.31 318.336 37.086C319.072 36.862 319.808 36.75 320.544 36.75C321.68 36.75 322.576 36.91 323.232 37.23C323.904 37.534 324.384 38.03 324.672 38.718C324.96 39.406 325.104 40.326 325.104 41.478V49.182H326.52V50.238C326.2 50.318 325.792 50.398 325.296 50.478C324.816 50.558 324.392 50.598 324.024 50.598C323.576 50.598 323.272 50.526 323.112 50.382C322.952 50.254 322.872 49.958 322.872 49.494V48.702C322.392 49.182 321.8 49.622 321.096 50.022C320.408 50.422 319.624 50.622 318.744 50.622C317.592 50.622 316.632 50.294 315.864 49.638C315.112 48.966 314.736 48.006 314.736 46.758ZM319.776 48.99C320.192 48.99 320.672 48.862 321.216 48.606C321.76 48.35 322.256 48.046 322.704 47.694V43.566C320.96 43.566 319.64 43.838 318.744 44.382C317.864 44.91 317.424 45.606 317.424 46.47C317.424 47.334 317.632 47.974 318.048 48.39C318.48 48.79 319.056 48.99 319.776 48.99ZM335.925 34.014L334.005 33.726V32.526H338.469L346.461 44.238L347.805 46.782V34.014L345.717 33.726V32.526H351.381V33.726L349.461 34.014V50.358H347.565L339.405 38.382L337.557 35.214V48.942L339.837 49.182V50.358H334.005V49.182L335.925 48.918V34.014ZM355.001 56.334C354.729 56.334 354.457 56.318 354.185 56.286C353.929 56.254 353.745 56.206 353.633 56.142V54.054C353.729 54.118 353.913 54.166 354.185 54.198C354.473 54.23 354.745 54.246 355.001 54.246C355.769 54.246 356.441 53.974 357.017 53.43C357.609 52.902 358.177 51.878 358.721 50.358H357.569L353.009 38.478L351.905 38.166V37.038H357.689V38.166L355.841 38.454L358.193 45.534L359.297 49.038L360.329 45.51L362.465 38.454L360.857 38.166V37.038H365.681V38.166L364.481 38.454C362.129 45.654 360.745 49.742 360.329 50.718C359.785 52.094 359.289 53.166 358.841 53.934C358.393 54.718 357.865 55.31 357.257 55.71C356.649 56.126 355.897 56.334 355.001 56.334ZM366.791 46.758C366.791 45.254 367.543 44.15 369.047 43.446C370.551 42.726 372.455 42.342 374.759 42.294V41.622C374.759 40.87 374.679 40.278 374.519 39.846C374.359 39.414 374.079 39.102 373.679 38.91C373.295 38.702 372.743 38.598 372.023 38.598C371.207 38.598 370.471 38.718 369.815 38.958C369.175 39.182 368.535 39.462 367.895 39.798L367.295 38.55C367.503 38.374 367.887 38.142 368.447 37.854C369.007 37.566 369.655 37.31 370.391 37.086C371.127 36.862 371.863 36.75 372.599 36.75C373.735 36.75 374.631 36.91 375.287 37.23C375.959 37.534 376.439 38.03 376.727 38.718C377.015 39.406 377.159 40.326 377.159 41.478V49.182H378.575V50.238C378.255 50.318 377.847 50.398 377.351 50.478C376.871 50.558 376.447 50.598 376.079 50.598C375.631 50.598 375.327 50.526 375.167 50.382C375.007 50.254 374.927 49.958 374.927 49.494V48.702C374.447 49.182 373.855 49.622 373.151 50.022C372.463 50.422 371.679 50.622 370.799 50.622C369.647 50.622 368.687 50.294 367.919 49.638C367.167 48.966 366.791 48.006 366.791 46.758ZM371.831 48.99C372.247 48.99 372.727 48.862 373.271 48.606C373.815 48.35 374.311 48.046 374.759 47.694V43.566C373.015 43.566 371.695 43.838 370.799 44.382C369.919 44.91 369.479 45.606 369.479 46.47C369.479 47.334 369.687 47.974 370.103 48.39C370.535 48.79 371.111 48.99 371.831 48.99ZM382.476 48.438C382.636 48.678 382.972 48.894 383.484 49.086C384.012 49.278 384.564 49.374 385.14 49.374C386.052 49.374 386.724 49.198 387.156 48.846C387.588 48.494 387.804 48.006 387.804 47.382C387.804 46.95 387.668 46.574 387.396 46.254C387.124 45.934 386.74 45.654 386.244 45.414C385.764 45.158 385.068 44.854 384.156 44.502C382.924 44.038 382.02 43.486 381.444 42.846C380.884 42.19 380.604 41.334 380.604 40.278C380.604 39.574 380.812 38.958 381.228 38.43C381.66 37.902 382.244 37.494 382.98 37.206C383.732 36.902 384.564 36.75 385.476 36.75C386.212 36.75 386.852 36.806 387.396 36.918C387.956 37.03 388.404 37.142 388.74 37.254C389.076 37.366 389.3 37.438 389.412 37.47V40.446H387.948L387.468 38.67C387.372 38.478 387.116 38.318 386.7 38.19C386.284 38.046 385.82 37.974 385.308 37.974C384.588 37.974 384.004 38.134 383.556 38.454C383.124 38.774 382.908 39.206 382.908 39.75C382.908 40.23 383.02 40.63 383.244 40.95C383.484 41.254 383.78 41.502 384.132 41.694C384.484 41.886 384.964 42.11 385.572 42.366L386.052 42.558C386.948 42.91 387.676 43.246 388.236 43.566C388.796 43.886 389.26 44.31 389.628 44.838C390.012 45.35 390.204 45.982 390.204 46.734C390.204 47.918 389.74 48.862 388.812 49.566C387.9 50.27 386.644 50.622 385.044 50.622C384.26 50.622 383.436 50.518 382.572 50.31C381.724 50.086 381.028 49.862 380.484 49.638V46.566H382.044L382.476 48.438Z" fill="#003366"/>
<path d="M77.18 65.438C76.6467 65.438 76.1533 65.3514 75.7 65.178C75.2533 64.998 74.8633 64.748 74.53 64.428C74.2033 64.1014 73.9467 63.7214 73.76 63.288C73.5733 62.8547 73.48 62.378 73.48 61.858C73.48 61.338 73.5733 60.8614 73.76 60.428C73.9467 59.9947 74.2067 59.618 74.54 59.298C74.8733 58.9714 75.2633 58.7214 75.71 58.548C76.1633 58.368 76.6567 58.278 77.19 58.278C77.73 58.278 78.2267 58.3714 78.68 58.558C79.14 58.738 79.53 59.008 79.85 59.368L79.2 59.998C78.9333 59.718 78.6333 59.5114 78.3 59.378C77.9667 59.238 77.61 59.168 77.23 59.168C76.8367 59.168 76.47 59.2347 76.13 59.368C75.7967 59.5014 75.5067 59.688 75.26 59.928C75.0133 60.168 74.82 60.4547 74.68 60.788C74.5467 61.1147 74.48 61.4714 74.48 61.858C74.48 62.2447 74.5467 62.6047 74.68 62.938C74.82 63.2647 75.0133 63.548 75.26 63.788C75.5067 64.028 75.7967 64.2147 76.13 64.348C76.47 64.4814 76.8367 64.548 77.23 64.548C77.61 64.548 77.9667 64.4814 78.3 64.348C78.6333 64.208 78.9333 63.9947 79.2 63.708L79.85 64.338C79.53 64.698 79.14 64.9714 78.68 65.158C78.2267 65.3447 77.7267 65.438 77.18 65.438ZM83.572 65.418C83.0053 65.418 82.5053 65.3014 82.072 65.068C81.6453 64.8347 81.312 64.5147 81.072 64.108C80.8386 63.7014 80.722 63.2347 80.722 62.708C80.722 62.1814 80.8353 61.7147 81.062 61.308C81.2953 60.9014 81.612 60.5847 82.012 60.358C82.4186 60.1247 82.8753 60.008 83.382 60.008C83.8953 60.008 84.3486 60.1214 84.742 60.348C85.1353 60.5747 85.442 60.8947 85.662 61.308C85.8886 61.7147 86.002 62.1914 86.002 62.738C86.002 62.778 85.9986 62.8247 85.992 62.878C85.992 62.9314 85.9886 62.9814 85.982 63.028H81.472V62.338H85.482L85.092 62.578C85.0986 62.238 85.0286 61.9347 84.882 61.668C84.7353 61.4014 84.532 61.1947 84.272 61.048C84.0186 60.8947 83.722 60.818 83.382 60.818C83.0486 60.818 82.752 60.8947 82.492 61.048C82.232 61.1947 82.0286 61.4047 81.882 61.678C81.7353 61.9447 81.662 62.2514 81.662 62.598V62.758C81.662 63.1114 81.742 63.428 81.902 63.708C82.0686 63.9814 82.2986 64.1947 82.592 64.348C82.8853 64.5014 83.222 64.578 83.602 64.578C83.9153 64.578 84.1986 64.5247 84.452 64.418C84.712 64.3114 84.9386 64.1514 85.132 63.938L85.662 64.558C85.422 64.838 85.122 65.0514 84.762 65.198C84.4086 65.3447 84.012 65.418 83.572 65.418ZM90.465 60.008C90.8983 60.008 91.2783 60.0914 91.605 60.258C91.9383 60.4247 92.1983 60.678 92.385 61.018C92.5717 61.358 92.665 61.788 92.665 62.308V65.358H91.705V62.418C91.705 61.9047 91.5783 61.518 91.325 61.258C91.0783 60.998 90.7283 60.868 90.275 60.868C89.935 60.868 89.6383 60.9347 89.385 61.068C89.1317 61.2014 88.935 61.398 88.795 61.658C88.6617 61.918 88.595 62.2414 88.595 62.628V65.358H87.635V60.058H88.555V61.488L88.405 61.108C88.5783 60.7614 88.845 60.4914 89.205 60.298C89.565 60.1047 89.985 60.008 90.465 60.008ZM96.5616 65.418C96.0283 65.418 95.615 65.2747 95.3216 64.988C95.0283 64.7014 94.8816 64.2914 94.8816 63.758V58.898H95.8416V63.718C95.8416 64.0047 95.9116 64.2247 96.0516 64.378C96.1983 64.5314 96.405 64.608 96.6716 64.608C96.9716 64.608 97.2216 64.5247 97.4216 64.358L97.7216 65.048C97.575 65.1747 97.3983 65.268 97.1916 65.328C96.9916 65.388 96.7816 65.418 96.5616 65.418ZM93.9816 60.848V60.058H97.3616V60.848H93.9816ZM101.366 65.418C100.8 65.418 100.3 65.3014 99.8665 65.068C99.4398 64.8347 99.1065 64.5147 98.8665 64.108C98.6332 63.7014 98.5165 63.2347 98.5165 62.708C98.5165 62.1814 98.6298 61.7147 98.8565 61.308C99.0898 60.9014 99.4065 60.5847 99.8065 60.358C100.213 60.1247 100.67 60.008 101.176 60.008C101.69 60.008 102.143 60.1214 102.536 60.348C102.93 60.5747 103.236 60.8947 103.456 61.308C103.683 61.7147 103.796 62.1914 103.796 62.738C103.796 62.778 103.793 62.8247 103.786 62.878C103.786 62.9314 103.783 62.9814 103.776 63.028H99.2665V62.338H103.276L102.886 62.578C102.893 62.238 102.823 61.9347 102.676 61.668C102.53 61.4014 102.326 61.1947 102.066 61.048C101.813 60.8947 101.516 60.818 101.176 60.818C100.843 60.818 100.546 60.8947 100.286 61.048C100.026 61.1947 99.8232 61.4047 99.6765 61.678C99.5298 61.9447 99.4565 62.2514 99.4565 62.598V62.758C99.4565 63.1114 99.5365 63.428 99.6965 63.708C99.8632 63.9814 100.093 64.1947 100.386 64.348C100.68 64.5014 101.016 64.578 101.396 64.578C101.71 64.578 101.993 64.5247 102.246 64.418C102.506 64.3114 102.733 64.1514 102.926 63.938L103.456 64.558C103.216 64.838 102.916 65.0514 102.556 65.198C102.203 65.3447 101.806 65.418 101.366 65.418ZM105.43 65.358V60.058H106.35V61.498L106.26 61.138C106.406 60.7714 106.653 60.4914 107 60.298C107.346 60.1047 107.773 60.008 108.28 60.008V60.938C108.24 60.9314 108.2 60.928 108.16 60.928C108.126 60.928 108.093 60.928 108.06 60.928C107.546 60.928 107.14 61.0814 106.84 61.388C106.54 61.6947 106.39 62.138 106.39 62.718V65.358H105.43ZM112.957 65.358V59.588C112.957 59.068 113.107 58.6547 113.407 58.348C113.713 58.0347 114.147 57.878 114.707 57.878C114.913 57.878 115.11 57.9047 115.297 57.958C115.49 58.0047 115.653 58.0814 115.787 58.188L115.497 58.918C115.397 58.838 115.283 58.778 115.157 58.738C115.03 58.6914 114.897 58.668 114.757 58.668C114.477 58.668 114.263 58.748 114.117 58.908C113.97 59.0614 113.897 59.2914 113.897 59.598V60.308L113.917 60.748V65.358H112.957ZM112.057 60.848V60.058H115.437V60.848H112.057ZM118.834 65.418C118.301 65.418 117.827 65.3014 117.414 65.068C117.001 64.8347 116.674 64.5147 116.434 64.108C116.194 63.6947 116.074 63.228 116.074 62.708C116.074 62.1814 116.194 61.7147 116.434 61.308C116.674 60.9014 117.001 60.5847 117.414 60.358C117.827 60.1247 118.301 60.008 118.834 60.008C119.361 60.008 119.831 60.1247 120.244 60.358C120.664 60.5847 120.991 60.9014 121.224 61.308C121.464 61.708 121.584 62.1747 121.584 62.708C121.584 63.2347 121.464 63.7014 121.224 64.108C120.991 64.5147 120.664 64.8347 120.244 65.068C119.831 65.3014 119.361 65.418 118.834 65.418ZM118.834 64.578C119.174 64.578 119.477 64.5014 119.744 64.348C120.017 64.1947 120.231 63.978 120.384 63.698C120.537 63.4114 120.614 63.0814 120.614 62.708C120.614 62.328 120.537 62.0014 120.384 61.728C120.231 61.448 120.017 61.2314 119.744 61.078C119.477 60.9247 119.174 60.848 118.834 60.848C118.494 60.848 118.191 60.9247 117.924 61.078C117.657 61.2314 117.444 61.448 117.284 61.728C117.124 62.0014 117.044 62.328 117.044 62.708C117.044 63.0814 117.124 63.4114 117.284 63.698C117.444 63.978 117.657 64.1947 117.924 64.348C118.191 64.5014 118.494 64.578 118.834 64.578ZM123.212 65.358V60.058H124.132V61.498L124.042 61.138C124.188 60.7714 124.435 60.4914 124.782 60.298C125.128 60.1047 125.555 60.008 126.062 60.008V60.938C126.022 60.9314 125.982 60.928 125.942 60.928C125.908 60.928 125.875 60.928 125.842 60.928C125.328 60.928 124.922 61.0814 124.622 61.388C124.322 61.6947 124.172 62.138 124.172 62.718V65.358H123.212ZM131.649 61.378H135.249V62.228H131.649V61.378ZM131.739 64.488H135.819V65.358H130.739V58.358H135.679V59.228H131.739V64.488ZM139.72 65.418C139.206 65.418 138.746 65.3047 138.34 65.078C137.94 64.8514 137.623 64.5347 137.39 64.128C137.156 63.7214 137.04 63.248 137.04 62.708C137.04 62.168 137.156 61.698 137.39 61.298C137.623 60.8914 137.94 60.5747 138.34 60.348C138.746 60.1214 139.206 60.008 139.72 60.008C140.166 60.008 140.57 60.108 140.93 60.308C141.29 60.508 141.576 60.808 141.79 61.208C142.01 61.608 142.12 62.108 142.12 62.708C142.12 63.308 142.013 63.808 141.8 64.208C141.593 64.608 141.31 64.9114 140.95 65.118C140.59 65.318 140.18 65.418 139.72 65.418ZM139.8 64.578C140.133 64.578 140.433 64.5014 140.7 64.348C140.973 64.1947 141.186 63.978 141.34 63.698C141.5 63.4114 141.58 63.0814 141.58 62.708C141.58 62.328 141.5 62.0014 141.34 61.728C141.186 61.448 140.973 61.2314 140.7 61.078C140.433 60.9247 140.133 60.848 139.8 60.848C139.46 60.848 139.156 60.9247 138.89 61.078C138.623 61.2314 138.41 61.448 138.25 61.728C138.09 62.0014 138.01 62.328 138.01 62.708C138.01 63.0814 138.09 63.4114 138.25 63.698C138.41 63.978 138.623 64.1947 138.89 64.348C139.156 64.5014 139.46 64.578 139.8 64.578ZM141.61 65.358V63.928L141.67 62.698L141.57 61.468V57.938H142.53V65.358H141.61ZM146.876 65.418C146.423 65.418 146.023 65.3347 145.676 65.168C145.336 65.0014 145.069 64.748 144.876 64.408C144.689 64.0614 144.596 63.628 144.596 63.108V60.058H145.556V62.998C145.556 63.518 145.679 63.908 145.926 64.168C146.179 64.428 146.533 64.558 146.986 64.558C147.319 64.558 147.609 64.4914 147.856 64.358C148.103 64.218 148.293 64.018 148.426 63.758C148.559 63.4914 148.626 63.1714 148.626 62.798V60.058H149.586V65.358H148.676V63.928L148.826 64.308C148.653 64.6614 148.393 64.9347 148.046 65.128C147.699 65.3214 147.309 65.418 146.876 65.418ZM154.024 65.418C153.484 65.418 153 65.3014 152.574 65.068C152.154 64.8347 151.824 64.5147 151.584 64.108C151.344 63.7014 151.224 63.2347 151.224 62.708C151.224 62.1814 151.344 61.7147 151.584 61.308C151.824 60.9014 152.154 60.5847 152.574 60.358C153 60.1247 153.484 60.008 154.024 60.008C154.504 60.008 154.93 60.1047 155.304 60.298C155.684 60.4847 155.977 60.7647 156.184 61.138L155.454 61.608C155.28 61.348 155.067 61.158 154.814 61.038C154.567 60.9114 154.3 60.848 154.014 60.848C153.667 60.848 153.357 60.9247 153.084 61.078C152.81 61.2314 152.594 61.448 152.434 61.728C152.274 62.0014 152.194 62.328 152.194 62.708C152.194 63.088 152.274 63.418 152.434 63.698C152.594 63.978 152.81 64.1947 153.084 64.348C153.357 64.5014 153.667 64.578 154.014 64.578C154.3 64.578 154.567 64.518 154.814 64.398C155.067 64.2714 155.28 64.078 155.454 63.818L156.184 64.278C155.977 64.6447 155.684 64.928 155.304 65.128C154.93 65.3214 154.504 65.418 154.024 65.418ZM161.016 65.358V64.238L160.966 64.028V62.118C160.966 61.7114 160.846 61.398 160.606 61.178C160.373 60.9514 160.02 60.838 159.546 60.838C159.233 60.838 158.926 60.8914 158.626 60.998C158.326 61.098 158.073 61.2347 157.866 61.408L157.466 60.688C157.74 60.468 158.066 60.3014 158.446 60.188C158.833 60.068 159.236 60.008 159.656 60.008C160.383 60.008 160.943 60.1847 161.336 60.538C161.73 60.8914 161.926 61.4314 161.926 62.158V65.358H161.016ZM159.276 65.418C158.883 65.418 158.536 65.3514 158.236 65.218C157.943 65.0847 157.716 64.9014 157.556 64.668C157.396 64.428 157.316 64.158 157.316 63.858C157.316 63.5714 157.383 63.3114 157.516 63.078C157.656 62.8447 157.88 62.658 158.186 62.518C158.5 62.378 158.92 62.308 159.446 62.308H161.126V62.998H159.486C159.006 62.998 158.683 63.078 158.516 63.238C158.35 63.398 158.266 63.5914 158.266 63.818C158.266 64.078 158.37 64.288 158.576 64.448C158.783 64.6014 159.07 64.678 159.436 64.678C159.796 64.678 160.11 64.598 160.376 64.438C160.65 64.278 160.846 64.0447 160.966 63.738L161.156 64.398C161.03 64.7114 160.806 64.9614 160.486 65.148C160.166 65.328 159.763 65.418 159.276 65.418ZM165.823 65.418C165.29 65.418 164.876 65.2747 164.583 64.988C164.29 64.7014 164.143 64.2914 164.143 63.758V58.898H165.103V63.718C165.103 64.0047 165.173 64.2247 165.313 64.378C165.46 64.5314 165.666 64.608 165.933 64.608C166.233 64.608 166.483 64.5247 166.683 64.358L166.983 65.048C166.836 65.1747 166.66 65.268 166.453 65.328C166.253 65.388 166.043 65.418 165.823 65.418ZM163.243 60.848V60.058H166.623V60.848H163.243ZM168.444 65.358V60.058H169.404V65.358H168.444ZM168.924 59.038C168.737 59.038 168.58 58.978 168.454 58.858C168.334 58.738 168.274 58.5914 168.274 58.418C168.274 58.238 168.334 58.088 168.454 57.968C168.58 57.848 168.737 57.788 168.924 57.788C169.11 57.788 169.264 57.848 169.384 57.968C169.51 58.0814 169.574 58.2247 169.574 58.398C169.574 58.578 169.514 58.7314 169.394 58.858C169.274 58.978 169.117 59.038 168.924 59.038ZM173.807 65.418C173.273 65.418 172.8 65.3014 172.387 65.068C171.973 64.8347 171.647 64.5147 171.407 64.108C171.167 63.6947 171.047 63.228 171.047 62.708C171.047 62.1814 171.167 61.7147 171.407 61.308C171.647 60.9014 171.973 60.5847 172.387 60.358C172.8 60.1247 173.273 60.008 173.807 60.008C174.333 60.008 174.803 60.1247 175.217 60.358C175.637 60.5847 175.963 60.9014 176.197 61.308C176.437 61.708 176.557 62.1747 176.557 62.708C176.557 63.2347 176.437 63.7014 176.197 64.108C175.963 64.5147 175.637 64.8347 175.217 65.068C174.803 65.3014 174.333 65.418 173.807 65.418ZM173.807 64.578C174.147 64.578 174.45 64.5014 174.717 64.348C174.99 64.1947 175.203 63.978 175.357 63.698C175.51 63.4114 175.587 63.0814 175.587 62.708C175.587 62.328 175.51 62.0014 175.357 61.728C175.203 61.448 174.99 61.2314 174.717 61.078C174.45 60.9247 174.147 60.848 173.807 60.848C173.467 60.848 173.163 60.9247 172.897 61.078C172.63 61.2314 172.417 61.448 172.257 61.728C172.097 62.0014 172.017 62.328 172.017 62.708C172.017 63.0814 172.097 63.4114 172.257 63.698C172.417 63.978 172.63 64.1947 172.897 64.348C173.163 64.5014 173.467 64.578 173.807 64.578ZM181.014 60.008C181.448 60.008 181.828 60.0914 182.154 60.258C182.488 60.4247 182.748 60.678 182.934 61.018C183.121 61.358 183.214 61.788 183.214 62.308V65.358H182.254V62.418C182.254 61.9047 182.128 61.518 181.874 61.258C181.628 60.998 181.278 60.868 180.824 60.868C180.484 60.868 180.188 60.9347 179.934 61.068C179.681 61.2014 179.484 61.398 179.344 61.658C179.211 61.918 179.144 62.2414 179.144 62.628V65.358H178.184V60.058H179.104V61.488L178.954 61.108C179.128 60.7614 179.394 60.4914 179.754 60.298C180.114 60.1047 180.534 60.008 181.014 60.008ZM184.911 66.838L185.411 64.818L185.541 65.398C185.348 65.398 185.184 65.338 185.051 65.218C184.924 65.098 184.861 64.9347 184.861 64.728C184.861 64.528 184.924 64.3647 185.051 64.238C185.184 64.1114 185.344 64.048 185.531 64.048C185.724 64.048 185.881 64.1147 186.001 64.248C186.121 64.3747 186.181 64.5347 186.181 64.728C186.181 64.7947 186.174 64.8614 186.161 64.928C186.154 64.988 186.138 65.0614 186.111 65.148C186.091 65.228 186.058 65.328 186.011 65.448L185.541 66.838H184.911ZM193.022 65.438C192.489 65.438 191.979 65.358 191.492 65.198C191.005 65.0314 190.622 64.818 190.342 64.558L190.712 63.778C190.979 64.0114 191.319 64.2047 191.732 64.358C192.145 64.5114 192.575 64.588 193.022 64.588C193.429 64.588 193.759 64.5414 194.012 64.448C194.265 64.3547 194.452 64.228 194.572 64.068C194.692 63.9014 194.752 63.7147 194.752 63.508C194.752 63.268 194.672 63.0747 194.512 62.928C194.359 62.7814 194.155 62.6647 193.902 62.578C193.655 62.4847 193.382 62.4047 193.082 62.338C192.782 62.2714 192.479 62.1947 192.172 62.108C191.872 62.0147 191.595 61.898 191.342 61.758C191.095 61.618 190.895 61.4314 190.742 61.198C190.589 60.958 190.512 60.6514 190.512 60.278C190.512 59.918 190.605 59.588 190.792 59.288C190.985 58.9814 191.279 58.738 191.672 58.558C192.072 58.3714 192.579 58.278 193.192 58.278C193.599 58.278 194.002 58.3314 194.402 58.438C194.802 58.5447 195.149 58.698 195.442 58.898L195.112 59.698C194.812 59.498 194.495 59.3547 194.162 59.268C193.829 59.1747 193.505 59.128 193.192 59.128C192.799 59.128 192.475 59.178 192.222 59.278C191.969 59.378 191.782 59.5114 191.662 59.678C191.549 59.8447 191.492 60.0314 191.492 60.238C191.492 60.4847 191.569 60.6814 191.722 60.828C191.882 60.9747 192.085 61.0914 192.332 61.178C192.585 61.2647 192.862 61.3447 193.162 61.418C193.462 61.4847 193.762 61.5614 194.062 61.648C194.369 61.7347 194.645 61.848 194.892 61.988C195.145 62.128 195.349 62.3147 195.502 62.548C195.655 62.7814 195.732 63.0814 195.732 63.448C195.732 63.8014 195.635 64.1314 195.442 64.438C195.249 64.738 194.949 64.9814 194.542 65.168C194.142 65.348 193.635 65.438 193.022 65.438ZM198.133 64.078L198.153 62.848L201.203 60.058H202.363L200.023 62.358L199.503 62.798L198.133 64.078ZM197.353 65.358V57.938H198.313V65.358H197.353ZM201.403 65.358L199.323 62.778L199.943 62.008L202.583 65.358H201.403ZM203.815 65.358V60.058H204.775V65.358H203.815ZM204.295 59.038C204.108 59.038 203.952 58.978 203.825 58.858C203.705 58.738 203.645 58.5914 203.645 58.418C203.645 58.238 203.705 58.088 203.825 57.968C203.952 57.848 204.108 57.788 204.295 57.788C204.482 57.788 204.635 57.848 204.755 57.968C204.882 58.0814 204.945 58.2247 204.945 58.398C204.945 58.578 204.885 58.7314 204.765 58.858C204.645 58.978 204.488 59.038 204.295 59.038ZM206.908 65.358V57.938H207.868V65.358H206.908ZM210.001 65.358V57.938H210.961V65.358H210.001ZM214.614 65.418C214.174 65.418 213.754 65.358 213.354 65.238C212.961 65.118 212.651 64.9714 212.424 64.798L212.824 64.038C213.051 64.1914 213.331 64.3214 213.664 64.428C213.997 64.5347 214.337 64.588 214.684 64.588C215.131 64.588 215.451 64.5247 215.644 64.398C215.844 64.2714 215.944 64.0947 215.944 63.868C215.944 63.7014 215.884 63.5714 215.764 63.478C215.644 63.3847 215.484 63.3147 215.284 63.268C215.091 63.2214 214.874 63.1814 214.634 63.148C214.394 63.108 214.154 63.0614 213.914 63.008C213.674 62.948 213.454 62.868 213.254 62.768C213.054 62.6614 212.894 62.518 212.774 62.338C212.654 62.1514 212.594 61.9047 212.594 61.598C212.594 61.278 212.684 60.998 212.864 60.758C213.044 60.518 213.297 60.3347 213.624 60.208C213.957 60.0747 214.351 60.008 214.804 60.008C215.151 60.008 215.501 60.0514 215.854 60.138C216.214 60.218 216.507 60.3347 216.734 60.488L216.324 61.248C216.084 61.088 215.834 60.978 215.574 60.918C215.314 60.858 215.054 60.828 214.794 60.828C214.374 60.828 214.061 60.898 213.854 61.038C213.647 61.1714 213.544 61.3447 213.544 61.558C213.544 61.738 213.604 61.878 213.724 61.978C213.851 62.0714 214.011 62.1447 214.204 62.198C214.404 62.2514 214.624 62.298 214.864 62.338C215.104 62.3714 215.344 62.418 215.584 62.478C215.824 62.5314 216.041 62.608 216.234 62.708C216.434 62.808 216.594 62.948 216.714 63.128C216.841 63.308 216.904 63.548 216.904 63.848C216.904 64.168 216.811 64.4447 216.624 64.678C216.437 64.9114 216.174 65.0947 215.834 65.228C215.494 65.3547 215.087 65.418 214.614 65.418ZM223.379 65.438C222.906 65.438 222.486 65.3614 222.119 65.208C221.753 65.0547 221.463 64.8414 221.249 64.568C221.036 64.2947 220.929 63.978 220.929 63.618C220.929 63.3047 220.999 63.018 221.139 62.758C221.279 62.498 221.503 62.248 221.809 62.008C222.116 61.7614 222.519 61.508 223.019 61.248C223.426 61.0347 223.743 60.848 223.969 60.688C224.203 60.528 224.366 60.378 224.459 60.238C224.559 60.0914 224.609 59.9347 224.609 59.768C224.609 59.5414 224.529 59.358 224.369 59.218C224.209 59.0714 223.979 58.998 223.679 58.998C223.366 58.998 223.119 59.078 222.939 59.238C222.766 59.3914 222.679 59.5947 222.679 59.848C222.679 59.9747 222.699 60.098 222.739 60.218C222.786 60.3314 222.866 60.4614 222.979 60.608C223.099 60.748 223.269 60.928 223.489 61.148L227.189 64.828L226.649 65.468L222.719 61.558C222.486 61.3247 222.303 61.118 222.169 60.938C222.036 60.7514 221.939 60.5714 221.879 60.398C221.819 60.2247 221.789 60.048 221.789 59.868C221.789 59.5547 221.866 59.2814 222.019 59.048C222.179 58.808 222.399 58.6247 222.679 58.498C222.966 58.3647 223.299 58.298 223.679 58.298C224.033 58.298 224.339 58.358 224.599 58.478C224.859 58.5914 225.059 58.758 225.199 58.978C225.346 59.1914 225.419 59.4514 225.419 59.758C225.419 60.0247 225.353 60.2714 225.219 60.498C225.093 60.7247 224.886 60.9447 224.599 61.158C224.313 61.3714 223.926 61.6014 223.439 61.848C223.039 62.0547 222.726 62.248 222.499 62.428C222.273 62.6014 222.109 62.7747 222.009 62.948C221.916 63.1214 221.869 63.3114 221.869 63.518C221.869 63.738 221.933 63.9347 222.059 64.108C222.193 64.2747 222.376 64.4047 222.609 64.498C222.849 64.5914 223.126 64.638 223.439 64.638C223.886 64.638 224.289 64.5414 224.649 64.348C225.009 64.1547 225.309 63.8647 225.549 63.478C225.796 63.0914 225.976 62.6114 226.089 62.038L226.859 62.288C226.726 62.9614 226.496 63.5314 226.169 63.998C225.849 64.4647 225.453 64.8214 224.979 65.068C224.506 65.3147 223.973 65.438 223.379 65.438ZM234.8 65.438C234.267 65.438 233.774 65.3514 233.32 65.178C232.874 64.998 232.484 64.748 232.15 64.428C231.824 64.1014 231.567 63.7214 231.38 63.288C231.194 62.8547 231.1 62.378 231.1 61.858C231.1 61.338 231.194 60.8614 231.38 60.428C231.567 59.9947 231.827 59.618 232.16 59.298C232.494 58.9714 232.884 58.7214 233.33 58.548C233.784 58.368 234.277 58.278 234.81 58.278C235.35 58.278 235.847 58.3714 236.3 58.558C236.76 58.738 237.15 59.008 237.47 59.368L236.82 59.998C236.554 59.718 236.254 59.5114 235.92 59.378C235.587 59.238 235.23 59.168 234.85 59.168C234.457 59.168 234.09 59.2347 233.75 59.368C233.417 59.5014 233.127 59.688 232.88 59.928C232.634 60.168 232.44 60.4547 232.3 60.788C232.167 61.1147 232.1 61.4714 232.1 61.858C232.1 62.2447 232.167 62.6047 232.3 62.938C232.44 63.2647 232.634 63.548 232.88 63.788C233.127 64.028 233.417 64.2147 233.75 64.348C234.09 64.4814 234.457 64.548 234.85 64.548C235.23 64.548 235.587 64.4814 235.92 64.348C236.254 64.208 236.554 63.9947 236.82 63.708L237.47 64.338C237.15 64.698 236.76 64.9714 236.3 65.158C235.847 65.3447 235.347 65.438 234.8 65.438ZM242.279 65.358V64.238L242.229 64.028V62.118C242.229 61.7114 242.109 61.398 241.869 61.178C241.635 60.9514 241.282 60.838 240.809 60.838C240.495 60.838 240.189 60.8914 239.889 60.998C239.589 61.098 239.335 61.2347 239.129 61.408L238.729 60.688C239.002 60.468 239.329 60.3014 239.709 60.188C240.095 60.068 240.499 60.008 240.919 60.008C241.645 60.008 242.205 60.1847 242.599 60.538C242.992 60.8914 243.189 61.4314 243.189 62.158V65.358H242.279ZM240.539 65.418C240.145 65.418 239.799 65.3514 239.499 65.218C239.205 65.0847 238.979 64.9014 238.819 64.668C238.659 64.428 238.579 64.158 238.579 63.858C238.579 63.5714 238.645 63.3114 238.779 63.078C238.919 62.8447 239.142 62.658 239.449 62.518C239.762 62.378 240.182 62.308 240.709 62.308H242.389V62.998H240.749C240.269 62.998 239.945 63.078 239.779 63.238C239.612 63.398 239.529 63.5914 239.529 63.818C239.529 64.078 239.632 64.288 239.839 64.448C240.045 64.6014 240.332 64.678 240.699 64.678C241.059 64.678 241.372 64.598 241.639 64.438C241.912 64.278 242.109 64.0447 242.229 63.738L242.419 64.398C242.292 64.7114 242.069 64.9614 241.749 65.148C241.429 65.328 241.025 65.418 240.539 65.418ZM245.265 65.358V60.058H246.185V61.498L246.095 61.138C246.242 60.7714 246.488 60.4914 246.835 60.298C247.182 60.1047 247.608 60.008 248.115 60.008V60.938C248.075 60.9314 248.035 60.928 247.995 60.928C247.962 60.928 247.928 60.928 247.895 60.928C247.382 60.928 246.975 61.0814 246.675 61.388C246.375 61.6947 246.225 62.138 246.225 62.718V65.358H245.265ZM251.909 65.418C251.343 65.418 250.843 65.3014 250.409 65.068C249.983 64.8347 249.649 64.5147 249.409 64.108C249.176 63.7014 249.059 63.2347 249.059 62.708C249.059 62.1814 249.173 61.7147 249.399 61.308C249.633 60.9014 249.949 60.5847 250.349 60.358C250.756 60.1247 251.213 60.008 251.719 60.008C252.233 60.008 252.686 60.1214 253.079 60.348C253.473 60.5747 253.779 60.8947 253.999 61.308C254.226 61.7147 254.339 62.1914 254.339 62.738C254.339 62.778 254.336 62.8247 254.329 62.878C254.329 62.9314 254.326 62.9814 254.319 63.028H249.809V62.338H253.819L253.429 62.578C253.436 62.238 253.366 61.9347 253.219 61.668C253.073 61.4014 252.869 61.1947 252.609 61.048C252.356 60.8947 252.059 60.818 251.719 60.818C251.386 60.818 251.089 60.8947 250.829 61.048C250.569 61.1947 250.366 61.4047 250.219 61.678C250.073 61.9447 249.999 62.2514 249.999 62.598V62.758C249.999 63.1114 250.079 63.428 250.239 63.708C250.406 63.9814 250.636 64.1947 250.929 64.348C251.223 64.5014 251.559 64.578 251.939 64.578C252.253 64.578 252.536 64.5247 252.789 64.418C253.049 64.3114 253.276 64.1514 253.469 63.938L253.999 64.558C253.759 64.838 253.459 65.0514 253.099 65.198C252.746 65.3447 252.349 65.418 251.909 65.418ZM258.333 65.418C257.766 65.418 257.266 65.3014 256.833 65.068C256.406 64.8347 256.073 64.5147 255.833 64.108C255.599 63.7014 255.483 63.2347 255.483 62.708C255.483 62.1814 255.596 61.7147 255.823 61.308C256.056 60.9014 256.373 60.5847 256.773 60.358C257.179 60.1247 257.636 60.008 258.143 60.008C258.656 60.008 259.109 60.1214 259.503 60.348C259.896 60.5747 260.203 60.8947 260.423 61.308C260.649 61.7147 260.763 62.1914 260.763 62.738C260.763 62.778 260.759 62.8247 260.753 62.878C260.753 62.9314 260.749 62.9814 260.743 63.028H256.233V62.338H260.243L259.853 62.578C259.859 62.238 259.789 61.9347 259.643 61.668C259.496 61.4014 259.293 61.1947 259.033 61.048C258.779 60.8947 258.483 60.818 258.143 60.818C257.809 60.818 257.513 60.8947 257.253 61.048C256.993 61.1947 256.789 61.4047 256.643 61.678C256.496 61.9447 256.423 62.2514 256.423 62.598V62.758C256.423 63.1114 256.503 63.428 256.663 63.708C256.829 63.9814 257.059 64.1947 257.353 64.348C257.646 64.5014 257.983 64.578 258.363 64.578C258.676 64.578 258.959 64.5247 259.213 64.418C259.473 64.3114 259.699 64.1514 259.893 63.938L260.423 64.558C260.183 64.838 259.883 65.0514 259.523 65.198C259.169 65.3447 258.773 65.418 258.333 65.418ZM262.396 65.358V60.058H263.316V61.498L263.226 61.138C263.372 60.7714 263.619 60.4914 263.966 60.298C264.312 60.1047 264.739 60.008 265.246 60.008V60.938C265.206 60.9314 265.166 60.928 265.126 60.928C265.092 60.928 265.059 60.928 265.026 60.928C264.512 60.928 264.106 61.0814 263.806 61.388C263.506 61.6947 263.356 62.138 263.356 62.718V65.358H262.396ZM268.863 65.358L272.033 58.358H273.023L276.203 65.358H275.153L272.323 58.918H272.723L269.893 65.358H268.863ZM270.213 63.608L270.483 62.808H274.423L274.713 63.608H270.213ZM279.548 65.418C279.035 65.418 278.575 65.3047 278.168 65.078C277.768 64.8514 277.451 64.5347 277.218 64.128C276.985 63.7214 276.868 63.248 276.868 62.708C276.868 62.168 276.985 61.698 277.218 61.298C277.451 60.8914 277.768 60.5747 278.168 60.348C278.575 60.1214 279.035 60.008 279.548 60.008C279.995 60.008 280.398 60.108 280.758 60.308C281.118 60.508 281.405 60.808 281.618 61.208C281.838 61.608 281.948 62.108 281.948 62.708C281.948 63.308 281.841 63.808 281.628 64.208C281.421 64.608 281.138 64.9114 280.778 65.118C280.418 65.318 280.008 65.418 279.548 65.418ZM279.628 64.578C279.961 64.578 280.261 64.5014 280.528 64.348C280.801 64.1947 281.015 63.978 281.168 63.698C281.328 63.4114 281.408 63.0814 281.408 62.708C281.408 62.328 281.328 62.0014 281.168 61.728C281.015 61.448 280.801 61.2314 280.528 61.078C280.261 60.9247 279.961 60.848 279.628 60.848C279.288 60.848 278.985 60.9247 278.718 61.078C278.451 61.2314 278.238 61.448 278.078 61.728C277.918 62.0014 277.838 62.328 277.838 62.708C277.838 63.0814 277.918 63.4114 278.078 63.698C278.238 63.978 278.451 64.1947 278.718 64.348C278.985 64.5014 279.288 64.578 279.628 64.578ZM281.438 65.358V63.928L281.498 62.698L281.398 61.468V57.938H282.358V65.358H281.438ZM285.864 65.358L283.544 60.058H284.544L286.604 64.858H286.124L288.224 60.058H289.164L286.844 65.358H285.864ZM293.484 65.358V64.238L293.434 64.028V62.118C293.434 61.7114 293.314 61.398 293.074 61.178C292.841 60.9514 292.488 60.838 292.014 60.838C291.701 60.838 291.394 60.8914 291.094 60.998C290.794 61.098 290.541 61.2347 290.334 61.408L289.934 60.688C290.208 60.468 290.534 60.3014 290.914 60.188C291.301 60.068 291.704 60.008 292.124 60.008C292.851 60.008 293.411 60.1847 293.804 60.538C294.198 60.8914 294.394 61.4314 294.394 62.158V65.358H293.484ZM291.744 65.418C291.351 65.418 291.004 65.3514 290.704 65.218C290.411 65.0847 290.184 64.9014 290.024 64.668C289.864 64.428 289.784 64.158 289.784 63.858C289.784 63.5714 289.851 63.3114 289.984 63.078C290.124 62.8447 290.348 62.658 290.654 62.518C290.968 62.378 291.388 62.308 291.914 62.308H293.594V62.998H291.954C291.474 62.998 291.151 63.078 290.984 63.238C290.818 63.398 290.734 63.5914 290.734 63.818C290.734 64.078 290.838 64.288 291.044 64.448C291.251 64.6014 291.538 64.678 291.904 64.678C292.264 64.678 292.578 64.598 292.844 64.438C293.118 64.278 293.314 64.0447 293.434 63.738L293.624 64.398C293.498 64.7114 293.274 64.9614 292.954 65.148C292.634 65.328 292.231 65.418 291.744 65.418ZM299.301 60.008C299.734 60.008 300.114 60.0914 300.441 60.258C300.774 60.4247 301.034 60.678 301.221 61.018C301.408 61.358 301.501 61.788 301.501 62.308V65.358H300.541V62.418C300.541 61.9047 300.414 61.518 300.161 61.258C299.914 60.998 299.564 60.868 299.111 60.868C298.771 60.868 298.474 60.9347 298.221 61.068C297.968 61.2014 297.771 61.398 297.631 61.658C297.498 61.918 297.431 62.2414 297.431 62.628V65.358H296.471V60.058H297.391V61.488L297.241 61.108C297.414 60.7614 297.681 60.4914 298.041 60.298C298.401 60.1047 298.821 60.008 299.301 60.008ZM305.888 65.418C305.348 65.418 304.864 65.3014 304.438 65.068C304.018 64.8347 303.688 64.5147 303.448 64.108C303.208 63.7014 303.088 63.2347 303.088 62.708C303.088 62.1814 303.208 61.7147 303.448 61.308C303.688 60.9014 304.018 60.5847 304.438 60.358C304.864 60.1247 305.348 60.008 305.888 60.008C306.368 60.008 306.794 60.1047 307.168 60.298C307.548 60.4847 307.841 60.7647 308.048 61.138L307.318 61.608C307.144 61.348 306.931 61.158 306.678 61.038C306.431 60.9114 306.164 60.848 305.878 60.848C305.531 60.848 305.221 60.9247 304.948 61.078C304.674 61.2314 304.458 61.448 304.298 61.728C304.138 62.0014 304.058 62.328 304.058 62.708C304.058 63.088 304.138 63.418 304.298 63.698C304.458 63.978 304.674 64.1947 304.948 64.348C305.221 64.5014 305.531 64.578 305.878 64.578C306.164 64.578 306.431 64.518 306.678 64.398C306.931 64.2714 307.144 64.078 307.318 63.818L308.048 64.278C307.841 64.6447 307.548 64.928 307.168 65.128C306.794 65.3214 306.368 65.418 305.888 65.418ZM311.872 65.418C311.306 65.418 310.806 65.3014 310.372 65.068C309.946 64.8347 309.612 64.5147 309.372 64.108C309.139 63.7014 309.022 63.2347 309.022 62.708C309.022 62.1814 309.136 61.7147 309.362 61.308C309.596 60.9014 309.912 60.5847 310.312 60.358C310.719 60.1247 311.176 60.008 311.682 60.008C312.196 60.008 312.649 60.1214 313.042 60.348C313.436 60.5747 313.742 60.8947 313.962 61.308C314.189 61.7147 314.302 62.1914 314.302 62.738C314.302 62.778 314.299 62.8247 314.292 62.878C314.292 62.9314 314.289 62.9814 314.282 63.028H309.772V62.338H313.782L313.392 62.578C313.399 62.238 313.329 61.9347 313.182 61.668C313.036 61.4014 312.832 61.1947 312.572 61.048C312.319 60.8947 312.022 60.818 311.682 60.818C311.349 60.818 311.052 60.8947 310.792 61.048C310.532 61.1947 310.329 61.4047 310.182 61.678C310.036 61.9447 309.962 62.2514 309.962 62.598V62.758C309.962 63.1114 310.042 63.428 310.202 63.708C310.369 63.9814 310.599 64.1947 310.892 64.348C311.186 64.5014 311.522 64.578 311.902 64.578C312.216 64.578 312.499 64.5247 312.752 64.418C313.012 64.3114 313.239 64.1514 313.432 63.938L313.962 64.558C313.722 64.838 313.422 65.0514 313.062 65.198C312.709 65.3447 312.312 65.418 311.872 65.418ZM322.565 60.008C322.992 60.008 323.369 60.0914 323.695 60.258C324.022 60.4247 324.275 60.678 324.455 61.018C324.642 61.358 324.735 61.788 324.735 62.308V65.358H323.775V62.418C323.775 61.9047 323.655 61.518 323.415 61.258C323.175 60.998 322.839 60.868 322.405 60.868C322.085 60.868 321.805 60.9347 321.565 61.068C321.325 61.2014 321.139 61.398 321.005 61.658C320.879 61.918 320.815 62.2414 320.815 62.628V65.358H319.855V62.418C319.855 61.9047 319.735 61.518 319.495 61.258C319.262 60.998 318.925 60.868 318.485 60.868C318.172 60.868 317.895 60.9347 317.655 61.068C317.415 61.2014 317.229 61.398 317.095 61.658C316.962 61.918 316.895 62.2414 316.895 62.628V65.358H315.935V60.058H316.855V61.468L316.705 61.108C316.872 60.7614 317.129 60.4914 317.475 60.298C317.822 60.1047 318.225 60.008 318.685 60.008C319.192 60.008 319.629 60.1347 319.995 60.388C320.362 60.6347 320.602 61.0114 320.715 61.518L320.325 61.358C320.485 60.9514 320.765 60.6247 321.165 60.378C321.565 60.1314 322.032 60.008 322.565 60.008ZM329.162 65.418C328.595 65.418 328.095 65.3014 327.662 65.068C327.235 64.8347 326.902 64.5147 326.662 64.108C326.428 63.7014 326.312 63.2347 326.312 62.708C326.312 62.1814 326.425 61.7147 326.652 61.308C326.885 60.9014 327.202 60.5847 327.602 60.358C328.008 60.1247 328.465 60.008 328.972 60.008C329.485 60.008 329.938 60.1214 330.332 60.348C330.725 60.5747 331.032 60.8947 331.252 61.308C331.478 61.7147 331.592 62.1914 331.592 62.738C331.592 62.778 331.588 62.8247 331.582 62.878C331.582 62.9314 331.578 62.9814 331.572 63.028H327.062V62.338H331.072L330.682 62.578C330.688 62.238 330.618 61.9347 330.472 61.668C330.325 61.4014 330.122 61.1947 329.862 61.048C329.608 60.8947 329.312 60.818 328.972 60.818C328.638 60.818 328.342 60.8947 328.082 61.048C327.822 61.1947 327.618 61.4047 327.472 61.678C327.325 61.9447 327.252 62.2514 327.252 62.598V62.758C327.252 63.1114 327.332 63.428 327.492 63.708C327.658 63.9814 327.888 64.1947 328.182 64.348C328.475 64.5014 328.812 64.578 329.192 64.578C329.505 64.578 329.788 64.5247 330.042 64.418C330.302 64.3114 330.528 64.1514 330.722 63.938L331.252 64.558C331.012 64.838 330.712 65.0514 330.352 65.198C329.998 65.3447 329.602 65.418 329.162 65.418ZM336.055 60.008C336.488 60.008 336.868 60.0914 337.195 60.258C337.528 60.4247 337.788 60.678 337.975 61.018C338.162 61.358 338.255 61.788 338.255 62.308V65.358H337.295V62.418C337.295 61.9047 337.168 61.518 336.915 61.258C336.668 60.998 336.318 60.868 335.865 60.868C335.525 60.868 335.228 60.9347 334.975 61.068C334.722 61.2014 334.525 61.398 334.385 61.658C334.252 61.918 334.185 62.2414 334.185 62.628V65.358H333.225V60.058H334.145V61.488L333.995 61.108C334.168 60.7614 334.435 60.4914 334.795 60.298C335.155 60.1047 335.575 60.008 336.055 60.008ZM342.151 65.418C341.618 65.418 341.205 65.2747 340.911 64.988C340.618 64.7014 340.471 64.2914 340.471 63.758V58.898H341.431V63.718C341.431 64.0047 341.501 64.2247 341.641 64.378C341.788 64.5314 341.995 64.608 342.261 64.608C342.561 64.608 342.811 64.5247 343.011 64.358L343.311 65.048C343.165 65.1747 342.988 65.268 342.781 65.328C342.581 65.388 342.371 65.418 342.151 65.418ZM339.571 60.848V60.058H342.951V60.848H339.571ZM348.988 67.298C348.608 66.6914 348.314 65.9914 348.108 65.198C347.901 64.398 347.798 63.538 347.798 62.618C347.798 61.698 347.901 60.838 348.108 60.038C348.314 59.2314 348.608 58.5314 348.988 57.938H349.898C349.498 58.6447 349.204 59.3847 349.018 60.158C348.831 60.9247 348.738 61.7447 348.738 62.618C348.738 63.4914 348.831 64.3147 349.018 65.088C349.204 65.8547 349.498 66.5914 349.898 67.298H348.988ZM354.697 65.438C354.163 65.438 353.67 65.3514 353.217 65.178C352.77 64.998 352.38 64.748 352.047 64.428C351.72 64.1014 351.463 63.7214 351.277 63.288C351.09 62.8547 350.997 62.378 350.997 61.858C350.997 61.338 351.09 60.8614 351.277 60.428C351.463 59.9947 351.723 59.618 352.057 59.298C352.39 58.9714 352.78 58.7214 353.227 58.548C353.68 58.368 354.173 58.278 354.707 58.278C355.247 58.278 355.743 58.3714 356.197 58.558C356.657 58.738 357.047 59.008 357.367 59.368L356.717 59.998C356.45 59.718 356.15 59.5114 355.817 59.378C355.483 59.238 355.127 59.168 354.747 59.168C354.353 59.168 353.987 59.2347 353.647 59.368C353.313 59.5014 353.023 59.688 352.777 59.928C352.53 60.168 352.337 60.4547 352.197 60.788C352.063 61.1147 351.997 61.4714 351.997 61.858C351.997 62.2447 352.063 62.6047 352.197 62.938C352.337 63.2647 352.53 63.548 352.777 63.788C353.023 64.028 353.313 64.2147 353.647 64.348C353.987 64.4814 354.353 64.548 354.747 64.548C355.127 64.548 355.483 64.4814 355.817 64.348C356.15 64.208 356.45 63.9947 356.717 63.708L357.367 64.338C357.047 64.698 356.657 64.9714 356.197 65.158C355.743 65.3447 355.243 65.438 354.697 65.438ZM360.003 61.378H363.603V62.228H360.003V61.378ZM360.093 64.488H364.173V65.358H359.093V58.358H364.033V59.228H360.093V64.488ZM368.133 65.438C367.599 65.438 367.089 65.358 366.603 65.198C366.116 65.0314 365.733 64.818 365.453 64.558L365.823 63.778C366.089 64.0114 366.429 64.2047 366.843 64.358C367.256 64.5114 367.686 64.588 368.133 64.588C368.539 64.588 368.869 64.5414 369.123 64.448C369.376 64.3547 369.563 64.228 369.683 64.068C369.803 63.9014 369.863 63.7147 369.863 63.508C369.863 63.268 369.783 63.0747 369.623 62.928C369.469 62.7814 369.266 62.6647 369.013 62.578C368.766 62.4847 368.493 62.4047 368.193 62.338C367.893 62.2714 367.589 62.1947 367.283 62.108C366.983 62.0147 366.706 61.898 366.453 61.758C366.206 61.618 366.006 61.4314 365.853 61.198C365.699 60.958 365.623 60.6514 365.623 60.278C365.623 59.918 365.716 59.588 365.903 59.288C366.096 58.9814 366.389 58.738 366.783 58.558C367.183 58.3714 367.689 58.278 368.303 58.278C368.709 58.278 369.113 58.3314 369.513 58.438C369.913 58.5447 370.259 58.698 370.553 58.898L370.223 59.698C369.923 59.498 369.606 59.3547 369.273 59.268C368.939 59.1747 368.616 59.128 368.303 59.128C367.909 59.128 367.586 59.178 367.333 59.278C367.079 59.378 366.893 59.5114 366.773 59.678C366.659 59.8447 366.603 60.0314 366.603 60.238C366.603 60.4847 366.679 60.6814 366.833 60.828C366.993 60.9747 367.196 61.0914 367.443 61.178C367.696 61.2647 367.973 61.3447 368.273 61.418C368.573 61.4847 368.873 61.5614 369.173 61.648C369.479 61.7347 369.756 61.848 370.003 61.988C370.256 62.128 370.459 62.3147 370.613 62.548C370.766 62.7814 370.843 63.0814 370.843 63.448C370.843 63.8014 370.746 64.1314 370.553 64.438C370.359 64.738 370.059 64.9814 369.653 65.168C369.253 65.348 368.746 65.438 368.133 65.438ZM375.734 65.438C375.2 65.438 374.707 65.3514 374.254 65.178C373.807 64.998 373.417 64.748 373.084 64.428C372.757 64.1014 372.5 63.7214 372.314 63.288C372.127 62.8547 372.034 62.378 372.034 61.858C372.034 61.338 372.127 60.8614 372.314 60.428C372.5 59.9947 372.76 59.618 373.094 59.298C373.427 58.9714 373.817 58.7214 374.264 58.548C374.717 58.368 375.21 58.278 375.744 58.278C376.284 58.278 376.78 58.3714 377.234 58.558C377.694 58.738 378.084 59.008 378.404 59.368L377.754 59.998C377.487 59.718 377.187 59.5114 376.854 59.378C376.52 59.238 376.164 59.168 375.784 59.168C375.39 59.168 375.024 59.2347 374.684 59.368C374.35 59.5014 374.06 59.688 373.814 59.928C373.567 60.168 373.374 60.4547 373.234 60.788C373.1 61.1147 373.034 61.4714 373.034 61.858C373.034 62.2447 373.1 62.6047 373.234 62.938C373.374 63.2647 373.567 63.548 373.814 63.788C374.06 64.028 374.35 64.2147 374.684 64.348C375.024 64.4814 375.39 64.548 375.784 64.548C376.164 64.548 376.52 64.4814 376.854 64.348C377.187 64.208 377.487 63.9947 377.754 63.708L378.404 64.338C378.084 64.698 377.694 64.9714 377.234 65.158C376.78 65.3447 376.28 65.438 375.734 65.438ZM378.904 65.358L382.074 58.358H383.064L386.244 65.358H385.194L382.364 58.918H382.764L379.934 65.358H378.904ZM380.254 63.608L380.524 62.808H384.464L384.754 63.608H380.254ZM387.768 67.298H386.858C387.265 66.5914 387.562 65.8547 387.748 65.088C387.935 64.3147 388.028 63.4914 388.028 62.618C388.028 61.7447 387.935 60.9247 387.748 60.158C387.562 59.3847 387.265 58.6447 386.858 57.938H387.768C388.162 58.5314 388.458 59.2314 388.658 60.038C388.865 60.838 388.968 61.698 388.968 62.618C388.968 63.538 388.865 64.398 388.658 65.198C388.458 65.9914 388.162 66.6914 387.768 67.298Z" fill="#212121"/>
<defs>
<linearGradient id="paint0_linear_175_4848" x1="31.1062" y1="29.5356" x2="31.1062" y2="60.2813" gradientUnits="userSpaceOnUse">
<stop stop-color="#F99C24"/>
<stop offset="1" stop-color="#EF4136"/>
</linearGradient>
<linearGradient id="paint1_linear_175_4848" x1="31.3025" y1="-0.508911" x2="31.3025" y2="33.7807" gradientUnits="userSpaceOnUse">
<stop stop-color="#FBF5A9"/>
<stop offset="0.0156" stop-color="#FEF492"/>
<stop offset="0.0363" stop-color="#FFF378"/>
<stop offset="0.0597" stop-color="#FFF25B"/>
<stop offset="0.0861" stop-color="#FFF23E"/>
<stop offset="0.117" stop-color="#FFF220"/>
<stop offset="0.1552" stop-color="#FFF200"/>
<stop offset="0.2088" stop-color="#FFF200"/>
<stop offset="0.3575" stop-color="#FFF200"/>
<stop offset="0.4639" stop-color="#FFE700"/>
<stop offset="0.6581" stop-color="#FFCF09"/>
<stop offset="0.9165" stop-color="#FBA921"/>
<stop offset="1" stop-color="#F99C24"/>
</linearGradient>
<linearGradient id="paint2_linear_175_4848" x1="11.9123" y1="84.8744" x2="11.9123" y2="49.755" gradientUnits="userSpaceOnUse">
<stop stop-color="#FFF200"/>
<stop offset="0.0293" stop-color="#FFE700"/>
<stop offset="0.175" stop-color="#FEBF22"/>
<stop offset="0.3215" stop-color="#F99C2F"/>
<stop offset="0.4657" stop-color="#F58134"/>
<stop offset="0.6072" stop-color="#F26A36"/>
<stop offset="0.7451" stop-color="#F15737"/>
<stop offset="0.878" stop-color="#F04A37"/>
<stop offset="1" stop-color="#EF4637"/>
</linearGradient>
<linearGradient id="paint3_linear_175_4848" x1="11.913" y1="49.1685" x2="11.913" y2="85.4611" gradientUnits="userSpaceOnUse">
<stop stop-color="#FFF200"/>
<stop offset="0.0293" stop-color="#FFE700"/>
<stop offset="0.175" stop-color="#FEBF22"/>
<stop offset="0.3215" stop-color="#F99C2F"/>
<stop offset="0.4657" stop-color="#F58134"/>
<stop offset="0.6072" stop-color="#F26A36"/>
<stop offset="0.7451" stop-color="#F15737"/>
<stop offset="0.878" stop-color="#F04A37"/>
<stop offset="1" stop-color="#EF4637"/>
</linearGradient>
<linearGradient id="paint4_linear_175_4848" x1="50.9407" y1="84.8744" x2="50.9407" y2="49.755" gradientUnits="userSpaceOnUse">
<stop stop-color="#FFF200"/>
<stop offset="0.0293" stop-color="#FFE700"/>
<stop offset="0.175" stop-color="#FEBF22"/>
<stop offset="0.3215" stop-color="#F99C2F"/>
<stop offset="0.4657" stop-color="#F58134"/>
<stop offset="0.6072" stop-color="#F26A36"/>
<stop offset="0.7451" stop-color="#F15737"/>
<stop offset="0.878" stop-color="#F04A37"/>
<stop offset="1" stop-color="#EF4637"/>
</linearGradient>
<linearGradient id="paint5_linear_175_4848" x1="50.9401" y1="49.1685" x2="50.9401" y2="85.461" gradientUnits="userSpaceOnUse">
<stop stop-color="#FFF200"/>
<stop offset="0.0293" stop-color="#FFE700"/>
<stop offset="0.175" stop-color="#FEBF22"/>
<stop offset="0.3215" stop-color="#F99C2F"/>
<stop offset="0.4657" stop-color="#F58134"/>
<stop offset="0.6072" stop-color="#F26A36"/>
<stop offset="0.7451" stop-color="#F15737"/>
<stop offset="0.878" stop-color="#F04A37"/>
<stop offset="1" stop-color="#EF4637"/>
</linearGradient>
<linearGradient id="paint6_linear_175_4848" x1="47.8608" y1="72.1303" x2="47.8608" y2="37.011" gradientUnits="userSpaceOnUse">
<stop stop-color="#EF4637"/>
<stop offset="1" stop-color="#F47634"/>
</linearGradient>
<linearGradient id="paint7_linear_175_4848" x1="47.8602" y1="36.4243" x2="47.8602" y2="72.7169" gradientUnits="userSpaceOnUse">
<stop stop-color="#FFCF50"/>
<stop offset="0.2166" stop-color="#FFCD4F"/>
<stop offset="0.3691" stop-color="#FEC64E"/>
<stop offset="0.5019" stop-color="#FCBA4C"/>
<stop offset="0.6235" stop-color="#F9AA49"/>
<stop offset="0.7374" stop-color="#F79645"/>
<stop offset="0.8456" stop-color="#F47D40"/>
<stop offset="0.9475" stop-color="#F15D3A"/>
<stop offset="1" stop-color="#EF4637"/>
</linearGradient>
<linearGradient id="paint8_linear_175_4848" x1="14.8457" y1="72.1303" x2="14.8457" y2="37.011" gradientUnits="userSpaceOnUse">
<stop stop-color="#EF4637"/>
<stop offset="1" stop-color="#F47634"/>
</linearGradient>
<linearGradient id="paint9_linear_175_4848" x1="14.8463" y1="36.4243" x2="14.8463" y2="72.7169" gradientUnits="userSpaceOnUse">
<stop stop-color="#FFCF50"/>
<stop offset="0.2166" stop-color="#FFCD4F"/>
<stop offset="0.3691" stop-color="#FEC64E"/>
<stop offset="0.5019" stop-color="#FCBA4C"/>
<stop offset="0.6235" stop-color="#F9AA49"/>
<stop offset="0.7374" stop-color="#F79645"/>
<stop offset="0.8456" stop-color="#F47D40"/>
<stop offset="0.9475" stop-color="#F15D3A"/>
<stop offset="1" stop-color="#EF4637"/>
</linearGradient>
<linearGradient id="paint10_linear_175_4848" x1="30.4844" y1="38.5409" x2="30.4844" y2="97.9411" gradientUnits="userSpaceOnUse">
<stop stop-color="#FFF200"/>
<stop offset="0.2301" stop-color="#FFC220"/>
<stop offset="0.5029" stop-color="#F79132"/>
<stop offset="0.7315" stop-color="#F36D36"/>
<stop offset="0.9038" stop-color="#F05237"/>
<stop offset="1" stop-color="#EF4637"/>
</linearGradient>
<linearGradient id="paint11_linear_175_4848" x1="28.1862" y1="42.8495" x2="30.208" y2="42.8495" gradientUnits="userSpaceOnUse">
<stop stop-color="#FFF200"/>
<stop offset="0.058" stop-color="#FFF108"/>
<stop offset="0.2203" stop-color="#FFF148"/>
<stop offset="0.3905" stop-color="#FEF165"/>
<stop offset="0.5696" stop-color="#FCF177"/>
<stop offset="0.7637" stop-color="#FBF180"/>
<stop offset="1" stop-color="#FBF4A2"/>
</linearGradient>
<linearGradient id="paint12_linear_175_4848" x1="14.8401" y1="17.7679" x2="25.7345" y2="17.7679" gradientUnits="userSpaceOnUse">
<stop stop-color="#F99C24"/>
<stop offset="1" stop-color="#EF4136"/>
</linearGradient>
<linearGradient id="paint13_linear_175_4848" x1="34.6593" y1="20.7728" x2="48.8101" y2="20.7728" gradientUnits="userSpaceOnUse">
<stop stop-color="#F99C24"/>
<stop offset="1" stop-color="#EF4136"/>
</linearGradient>
<linearGradient id="paint14_linear_175_4848" x1="6.25149" y1="28.2929" x2="23.3098" y2="28.2929" gradientUnits="userSpaceOnUse">
<stop stop-color="#F99C24"/>
<stop offset="1" stop-color="#EF4136"/>
</linearGradient>
<linearGradient id="paint15_linear_175_4848" x1="7.48899" y1="24.382" x2="23.5926" y2="24.382" gradientUnits="userSpaceOnUse">
<stop stop-color="#F99C24"/>
<stop offset="1" stop-color="#EF4136"/>
</linearGradient>
<linearGradient id="paint16_linear_175_4848" x1="20.1638" y1="15.6723" x2="27.1752" y2="15.6723" gradientUnits="userSpaceOnUse">
<stop stop-color="#F99C24"/>
<stop offset="1" stop-color="#EF4136"/>
</linearGradient>
<linearGradient id="paint17_linear_175_4848" x1="10.4559" y1="20.6965" x2="24.4907" y2="20.6965" gradientUnits="userSpaceOnUse">
<stop stop-color="#F99C24"/>
<stop offset="1" stop-color="#EF4136"/>
</linearGradient>
<linearGradient id="paint18_linear_175_4848" x1="35.9346" y1="28.3502" x2="52.9622" y2="28.3502" gradientUnits="userSpaceOnUse">
<stop stop-color="#F99C24"/>
<stop offset="1" stop-color="#EF4136"/>
</linearGradient>
<linearGradient id="paint19_linear_175_4848" x1="30.3245" y1="14.5696" x2="32.8792" y2="14.5696" gradientUnits="userSpaceOnUse">
<stop stop-color="#F99C24"/>
<stop offset="1" stop-color="#EF4136"/>
</linearGradient>
<linearGradient id="paint20_linear_175_4848" x1="26.3997" y1="14.5803" x2="28.8914" y2="14.5803" gradientUnits="userSpaceOnUse">
<stop stop-color="#F99C24"/>
<stop offset="1" stop-color="#EF4136"/>
</linearGradient>
<linearGradient id="paint21_linear_175_4848" x1="32.0152" y1="15.6661" x2="39.0809" y2="15.6661" gradientUnits="userSpaceOnUse">
<stop stop-color="#F99C24"/>
<stop offset="1" stop-color="#EF4136"/>
</linearGradient>
<linearGradient id="paint22_linear_175_4848" x1="35.5502" y1="24.4097" x2="51.721" y2="24.4097" gradientUnits="userSpaceOnUse">
<stop stop-color="#F99C24"/>
<stop offset="1" stop-color="#EF4136"/>
</linearGradient>
<linearGradient id="paint23_linear_175_4848" x1="33.4515" y1="17.7409" x2="44.4566" y2="17.7409" gradientUnits="userSpaceOnUse">
<stop stop-color="#F99C24"/>
<stop offset="1" stop-color="#EF4136"/>
</linearGradient>
<linearGradient id="paint24_linear_175_4848" x1="21.1387" y1="19.7826" x2="26.4175" y2="19.7826" gradientUnits="userSpaceOnUse">
<stop stop-color="#F99C24"/>
<stop offset="1" stop-color="#EF4136"/>
</linearGradient>
<linearGradient id="paint25_linear_175_4848" x1="29.3768" y1="18.136" x2="29.7314" y2="18.136" gradientUnits="userSpaceOnUse">
<stop stop-color="#F99C24"/>
<stop offset="1" stop-color="#EF4136"/>
</linearGradient>
<linearGradient id="paint26_linear_175_4848" x1="34.0524" y1="21.6681" x2="41.2294" y2="21.6681" gradientUnits="userSpaceOnUse">
<stop stop-color="#F99C24"/>
<stop offset="1" stop-color="#EF4136"/>
</linearGradient>
<linearGradient id="paint27_linear_175_4848" x1="25.0407" y1="18.6078" x2="27.9767" y2="18.6078" gradientUnits="userSpaceOnUse">
<stop stop-color="#F99C24"/>
<stop offset="1" stop-color="#EF4136"/>
</linearGradient>
<linearGradient id="paint28_linear_175_4848" x1="31.1298" y1="18.5857" x2="33.8562" y2="18.5857" gradientUnits="userSpaceOnUse">
<stop stop-color="#F99C24"/>
<stop offset="1" stop-color="#EF4136"/>
</linearGradient>
<linearGradient id="paint29_linear_175_4848" x1="15.3334" y1="24.2826" x2="23.9989" y2="24.2826" gradientUnits="userSpaceOnUse">
<stop stop-color="#F99C24"/>
<stop offset="1" stop-color="#EF4136"/>
</linearGradient>
<linearGradient id="paint30_linear_175_4848" x1="35.8007" y1="26.9998" x2="45.2118" y2="26.9998" gradientUnits="userSpaceOnUse">
<stop stop-color="#F99C24"/>
<stop offset="1" stop-color="#EF4136"/>
</linearGradient>
<linearGradient id="paint31_linear_175_4848" x1="32.6525" y1="19.7113" x2="37.8177" y2="19.7113" gradientUnits="userSpaceOnUse">
<stop stop-color="#F99C24"/>
<stop offset="1" stop-color="#EF4136"/>
</linearGradient>
<linearGradient id="paint32_linear_175_4848" x1="13.9368" y1="27.2209" x2="23.3393" y2="27.2209" gradientUnits="userSpaceOnUse">
<stop stop-color="#F99C24"/>
<stop offset="1" stop-color="#EF4136"/>
</linearGradient>
<linearGradient id="paint33_linear_175_4848" x1="17.7572" y1="21.8261" x2="25.1002" y2="21.8261" gradientUnits="userSpaceOnUse">
<stop stop-color="#F99C24"/>
<stop offset="1" stop-color="#EF4136"/>
</linearGradient>
<linearGradient id="paint34_linear_175_4848" x1="35.2212" y1="24.0521" x2="43.7482" y2="24.0521" gradientUnits="userSpaceOnUse">
<stop stop-color="#F99C24"/>
<stop offset="1" stop-color="#EF4136"/>
</linearGradient>
<linearGradient id="paint35_linear_175_4848" x1="30.0441" y1="15.0651" x2="30.0441" y2="28.3262" gradientUnits="userSpaceOnUse">
<stop stop-color="#F99C24"/>
<stop offset="1" stop-color="#EF4136"/>
</linearGradient>
<linearGradient id="paint36_linear_175_4848" x1="30.1686" y1="15.0265" x2="30.1686" y2="28.2853" gradientUnits="userSpaceOnUse">
<stop stop-color="#F99C24"/>
<stop offset="1" stop-color="#EF4136"/>
</linearGradient>
<linearGradient id="paint37_linear_175_4848" x1="21.7427" y1="25.9177" x2="37.9923" y2="25.9177" gradientUnits="userSpaceOnUse">
<stop stop-color="#FBF5A9"/>
<stop offset="0.0156" stop-color="#FEF492"/>
<stop offset="0.0363" stop-color="#FFF378"/>
<stop offset="0.0597" stop-color="#FFF25B"/>
<stop offset="0.0861" stop-color="#FFF23E"/>
<stop offset="0.117" stop-color="#FFF220"/>
<stop offset="0.1552" stop-color="#FFF200"/>
<stop offset="0.2088" stop-color="#FFF200"/>
<stop offset="0.3575" stop-color="#FFF200"/>
<stop offset="0.4639" stop-color="#FFE700"/>
<stop offset="0.6581" stop-color="#FFCF09"/>
<stop offset="0.9165" stop-color="#FBA921"/>
<stop offset="1" stop-color="#F99C24"/>
</linearGradient>
<clipPath id="clip0_175_4848">
<rect width="64" height="97.7161" fill="white"/>
</clipPath>
</defs>
</svg>
