<svg width="40" height="40" viewBox="0 0 40 40" fill="none" xmlns="http://www.w3.org/2000/svg">
<rect x="0.933594" width="39.066" height="39.066" rx="4" fill="white"/>
<path d="M29.1374 25.1505C28.9468 26.1509 28.1369 26.9132 27.1364 27.0561C25.5643 27.2943 22.944 27.5802 19.9902 27.5802C17.0841 27.5802 14.4638 27.2943 12.844 27.0561C11.8435 26.9132 11.0336 26.1509 10.843 25.1505C10.6525 24.0547 10.4619 22.4349 10.4619 20.4339C10.4619 18.433 10.6525 16.8132 10.843 15.7174C11.0336 14.717 11.8435 13.9547 12.844 13.8118C14.4162 13.5736 17.0364 13.2877 19.9902 13.2877C22.944 13.2877 25.5166 13.5736 27.1364 13.8118C28.1369 13.9547 28.9468 14.717 29.1374 15.7174C29.328 16.8132 29.5662 18.433 29.5662 20.4339C29.5185 22.4349 29.328 24.0547 29.1374 25.1505Z" fill="#FF3D00"/>
<path d="M18.085 23.7688V17.099L23.8019 20.4339L18.085 23.7688Z" fill="white"/>
</svg>
