<svg width="1366" height="591" viewBox="0 0 1366 591" fill="none" xmlns="http://www.w3.org/2000/svg">
<path fill-rule="evenodd" clip-rule="evenodd" d="M1366 562.002C1310.82 513.438 1276 442.285 1276 363C1276 283.715 1310.82 212.562 1366 163.998V562.002Z" fill="#FFEBE0"/>
<path fill-rule="evenodd" clip-rule="evenodd" d="M1263.85 0H1366V87.5033C1354.54 95.9848 1340.35 101 1325 101C1286.89 101 1256 70.1077 1256 32C1256 20.4509 1258.84 9.56458 1263.85 0Z" fill="#FBF4A2"/>
<path fill-rule="evenodd" clip-rule="evenodd" d="M57 101C95.1077 101 126 70.1077 126 32C126 20.4509 123.163 9.56458 118.147 0H0V70.8962C12.4268 89.0718 33.3204 101 57 101Z" fill="#FBF4A2"/>
<path fill-rule="evenodd" clip-rule="evenodd" d="M0 590.889C97.3155 551.67 166 456.356 166 345C166 233.644 97.3155 138.33 0 99.1113V590.889Z" fill="#FFEBE0"/>
</svg>
