<svg width="120" height="120" viewBox="0 0 120 120" fill="none" xmlns="http://www.w3.org/2000/svg">
<path d="M29.7261 115.744C29.2632 115.743 28.8169 115.571 28.4733 115.261C28.1298 114.951 27.9135 114.524 27.8661 114.064L26.3586 99.5962H17.7036C16.5319 99.5881 15.4042 99.149 14.5355 98.3626C13.6668 97.5762 13.118 96.4976 12.9936 95.3325L11.8986 84.075H7.35364C5.99989 84.075 4.87864 83.5012 4.27864 82.4962C3.67864 81.495 3.70114 80.2312 4.34239 79.0387L10.8936 64.5262L10.6574 60.3412C10.6536 53.1712 13.8899 46.26 19.5336 41.2725C19.9066 40.9433 20.3951 40.7757 20.8916 40.8067C21.3881 40.8376 21.8519 41.0645 22.1811 41.4375C22.5103 41.8105 22.6779 42.2989 22.647 42.7954C22.616 43.2919 22.3891 43.7558 22.0161 44.085C17.1036 48.42 14.4036 54.1575 14.4036 60.2362L14.6624 64.7737C14.6806 65.075 14.6253 65.3762 14.5011 65.6512L7.87489 80.3137L13.6011 80.325C14.0669 80.3246 14.5161 80.4976 14.8613 80.8102C15.2065 81.1228 15.423 81.5528 15.4686 82.0162L16.7286 94.965C16.7648 95.2014 16.8816 95.418 17.0594 95.5779C17.2371 95.7379 17.4648 95.8314 17.7036 95.8425H28.0461C29.0061 95.8425 29.8124 96.5662 29.9099 97.5225L31.5936 113.674C31.621 113.935 31.593 114.2 31.5116 114.449C31.4302 114.699 31.2971 114.93 31.121 115.125C30.9449 115.32 30.7297 115.476 30.4894 115.583C30.2491 115.689 29.989 115.744 29.7261 115.744Z" fill="#DBA05F"/>
<path d="M47.6926 115.898C47.2305 115.896 46.7851 115.725 46.4418 115.415C46.0985 115.106 45.8816 114.681 45.8326 114.221L43.6014 93.3338H33.3901C32.1108 93.3266 30.8792 92.8473 29.9317 91.9877C28.9842 91.1281 28.3876 89.9488 28.2564 88.6763L26.9701 75.4913H21.4876C20.0289 75.4913 18.8289 74.88 18.1876 73.815C17.5501 72.7463 17.5801 71.3963 18.2664 70.11L25.8376 53.3438L25.5639 48.4463C25.5601 38.9738 30.5364 29.9663 38.8726 24.2588C39.0755 24.1199 39.3038 24.0223 39.5443 23.9717C39.7849 23.921 40.0332 23.9182 40.2748 23.9635C40.5165 24.0088 40.7469 24.1012 40.9528 24.2355C41.1588 24.3698 41.3362 24.5434 41.4751 24.7463C41.614 24.9491 41.7115 25.1774 41.7622 25.418C41.8128 25.6586 41.8156 25.9068 41.7704 26.1485C41.7251 26.3901 41.6327 26.6205 41.4984 26.8265C41.364 27.0324 41.1905 27.2099 40.9876 27.3488C33.6751 32.3625 29.3101 40.2113 29.3101 48.3413L29.6064 53.5875C29.625 53.8888 29.5697 54.1901 29.4451 54.465L21.6526 71.7113L28.6726 71.7413C29.1383 71.7409 29.5875 71.9138 29.9328 72.2265C30.278 72.5391 30.4945 72.969 30.5401 73.4325L31.9914 88.3163C32.0372 88.6587 32.2028 88.9739 32.4589 89.2059C32.7149 89.4379 33.0448 89.5718 33.3901 89.5838H45.2851C46.2451 89.5838 47.0476 90.3038 47.1489 91.26L49.5601 113.828C49.5874 114.089 49.5595 114.353 49.4781 114.603C49.3966 114.853 49.2636 115.083 49.0874 115.278C48.9113 115.474 48.6961 115.63 48.4558 115.736C48.2155 115.843 47.9555 115.898 47.6926 115.898Z" fill="#DBA05F"/>
<path d="M61.7737 87.9937H52.0762C50.6909 87.9844 49.3577 87.4642 48.3322 86.5328C47.3067 85.6014 46.6609 84.3243 46.5187 82.9462L45.0487 67.8225H38.6212C37.0612 67.8225 35.7787 67.1737 35.1037 66.0412C34.4287 64.9125 34.4625 63.4762 35.205 62.1L43.785 43.0762L43.4737 37.4737C43.47 18.7275 60.1462 3.5625 80.6475 3.5625C100.882 3.5625 116.149 19.545 116.149 40.7325C116.149 48.825 114.169 56.5312 110.089 64.2862C109.851 64.7143 109.455 65.0322 108.986 65.1722C108.517 65.3122 108.011 65.263 107.578 65.0353C107.144 64.8075 106.817 64.4192 106.666 63.9534C106.515 63.4876 106.552 62.9812 106.77 62.5425C110.557 55.335 112.399 48.2025 112.399 40.7325C112.399 21.6788 98.7487 7.3125 80.6475 7.3125C62.2162 7.3125 47.22 20.7975 47.22 37.3725L47.5537 43.3275C47.5725 43.6275 47.5162 43.9275 47.3925 44.2012L38.565 63.765C38.5109 63.8649 38.4621 63.9675 38.4187 64.0725C38.4862 64.0758 38.5537 64.0771 38.6212 64.0762H46.7512C47.2175 64.076 47.6672 64.2494 48.0125 64.5628C48.3578 64.8763 48.574 65.3071 48.6187 65.7712L50.2537 82.5937C50.3362 83.49 51.1725 84.2437 52.0762 84.2437H61.7737C62.271 84.2437 62.7479 84.4413 63.0996 84.7929C63.4512 85.1445 63.6487 85.6215 63.6487 86.1187C63.6487 86.616 63.4512 87.0929 63.0996 87.4446C62.7479 87.7962 62.271 87.9937 61.7737 87.9937Z" fill="#DBA05F"/>
<path d="M83.9925 67.2262H77.25C76.8222 67.2257 76.4074 67.0789 76.0745 66.8101C75.7417 66.5414 75.5107 66.1669 75.42 65.7488L74.31 60.6787C72.7539 60.2246 71.2524 59.6008 69.8325 58.8187L65.46 61.62C65.1002 61.8506 64.6725 61.9514 64.2476 61.9057C63.8228 61.86 63.4262 61.6706 63.1238 61.3688L58.3575 56.6025C58.0557 56.3 57.8662 55.9035 57.8205 55.4786C57.7748 55.0537 57.8756 54.626 58.1063 54.2662L60.9075 49.8938C60.1254 48.4739 59.5017 46.9724 59.0475 45.4162L53.9775 44.3062C53.5585 44.216 53.1831 43.9847 52.9141 43.6509C52.6452 43.3172 52.499 42.9011 52.5 42.4725V35.7262C52.5 34.845 53.1113 34.0837 53.9738 33.8962L59.04 32.7862C59.4975 31.2262 60.1238 29.73 60.9038 28.3087L58.1025 23.9362C57.8719 23.5765 57.7711 23.1488 57.8168 22.7239C57.8625 22.299 58.0519 21.9025 58.3538 21.6L63.12 16.8337C63.4225 16.5319 63.819 16.3425 64.2439 16.2968C64.6688 16.2511 65.0965 16.3519 65.4563 16.5825L69.8288 19.3837C71.2493 18.6029 72.7506 17.9793 74.3063 17.5237L75.4163 12.4537C75.5077 12.0363 75.739 11.6627 76.0718 11.3947C76.4046 11.1267 76.819 10.9804 77.2463 10.98H83.9925C84.8738 10.98 85.635 11.5912 85.8225 12.4537L86.9325 17.5275C88.485 17.9775 89.9813 18.6 91.41 19.3837L95.7825 16.5825C96.1422 16.3504 96.5705 16.2485 96.9962 16.2935C97.4218 16.3385 97.8193 16.5278 98.1225 16.83L102.889 21.5962C103.191 21.8987 103.38 22.2953 103.426 22.7201C103.471 23.145 103.371 23.5727 103.14 23.9325L100.343 28.3125C101.126 29.7412 101.749 31.2375 102.199 32.7862L107.273 33.8962C107.69 33.9877 108.064 34.219 108.332 34.5518C108.6 34.8846 108.746 35.2989 108.746 35.7262V42.4725C108.747 42.9 108.601 43.3147 108.332 43.6476C108.064 43.9806 107.69 44.2117 107.273 44.3025L102.199 45.4125C101.746 46.9674 101.124 48.4677 100.343 49.8862L103.144 54.2625C103.374 54.6223 103.475 55.05 103.429 55.4749C103.384 55.8997 103.194 56.2963 102.893 56.5988L98.1263 61.3688C97.8238 61.6706 97.4272 61.86 97.0024 61.9057C96.5775 61.9514 96.1498 61.8506 95.79 61.62L91.4175 58.815C89.9925 59.5988 88.4963 60.2175 86.94 60.6713L85.83 65.745C85.7385 66.1644 85.5064 66.5399 85.1722 66.8093C84.838 67.0788 84.4218 67.2259 83.9925 67.2262ZM78.7575 63.4762H82.485L83.5163 58.7587C83.592 58.4128 83.7637 58.0952 84.0118 57.8425C84.2599 57.5897 84.5743 57.4121 84.9188 57.33C86.8807 56.8719 88.7543 56.0954 90.465 55.0312C90.7654 54.8441 91.1127 54.7462 91.4666 54.7488C91.8204 54.7515 92.1662 54.8546 92.4638 55.0462L96.5325 57.6525L99.1688 55.0162L96.5625 50.9475C96.3719 50.6504 96.2691 50.3056 96.2658 49.9527C96.2624 49.5998 96.3588 49.2531 96.5438 48.9525C97.6082 47.2401 98.3859 45.3655 98.8463 43.4025C98.9273 43.0581 99.1041 42.7436 99.3562 42.4955C99.6084 42.2473 99.9256 42.0755 100.271 42L104.989 40.9687V37.2375L100.275 36.2025C99.9294 36.127 99.6121 35.9552 99.36 35.707C99.1078 35.4589 98.931 35.1444 98.85 34.8C98.3911 32.8366 97.6132 30.9617 96.5475 29.25C96.3621 28.9496 96.2655 28.6028 96.2688 28.2498C96.2721 27.8968 96.3753 27.5519 96.5662 27.255L99.1725 23.1862L96.5363 20.55L92.4675 23.1562C92.17 23.3479 91.8242 23.451 91.4703 23.4537C91.1164 23.4563 90.7691 23.3584 90.4688 23.1712C88.7575 22.1082 86.8841 21.3317 84.9225 20.8725C84.5781 20.7915 84.2636 20.6147 84.0155 20.3625C83.7673 20.1104 83.5955 19.7931 83.52 19.4475L82.4888 14.73H78.7613L77.73 19.4475C77.6542 19.7936 77.4819 20.1112 77.233 20.3634C76.9841 20.6156 76.6689 20.7921 76.3238 20.8725C74.3616 21.3298 72.4879 22.1064 70.7775 23.1712C70.4772 23.3584 70.1298 23.4563 69.776 23.4537C69.4221 23.451 69.0763 23.3479 68.7788 23.1562L64.71 20.55L62.0738 23.1862L64.68 27.255C64.8708 27.5528 64.9734 27.8985 64.976 28.2522C64.9787 28.6059 64.8813 28.9531 64.695 29.2537C63.6307 30.967 62.8506 32.8413 62.385 34.8037C62.3049 35.1476 62.1288 35.4616 61.8772 35.7092C61.6256 35.9568 61.3088 36.1279 60.9638 36.2025L56.25 37.2375V40.965L60.9675 41.9962C61.3132 42.0718 61.6304 42.2435 61.8825 42.4917C62.1347 42.7399 62.3115 43.0543 62.3925 43.3988C62.85 45.36 63.6225 47.2275 64.6913 48.945C64.8793 49.245 64.9777 49.5925 64.9751 49.9466C64.9724 50.3006 64.8687 50.6466 64.6763 50.9437L62.07 55.0125L64.7063 57.6487L68.775 55.0425C69.0733 54.853 69.4188 54.7511 69.7722 54.7485C70.1256 54.7458 70.4726 54.8425 70.7738 55.0275C72.495 56.0962 74.3588 56.8725 76.32 57.3262C76.6656 57.4069 76.9812 57.584 77.2301 57.8369C77.479 58.0898 77.6511 58.4082 77.7263 58.755L78.7575 63.4762ZM80.6175 52.23C73.38 52.23 67.4925 46.3425 67.4925 39.105C67.4925 31.8675 73.38 25.98 80.6175 25.98C87.855 25.98 93.7425 31.8675 93.7425 39.105C93.7425 46.3425 87.855 52.23 80.6175 52.23ZM80.6175 29.73C75.4463 29.73 71.2425 33.9337 71.2425 39.105C71.2425 44.2762 75.4463 48.48 80.6175 48.48C85.7888 48.48 89.9925 44.2762 89.9925 39.105C89.9925 33.9337 85.7888 29.73 80.6175 29.73Z" fill="#DBA05F"/>
<path d="M95.4112 112.253H89.8462C89.4184 112.252 89.0036 112.105 88.6708 111.836C88.3379 111.568 88.1069 111.193 88.0162 110.775L87.1462 106.781C85.9701 106.424 84.832 105.952 83.7487 105.371L80.2987 107.576C79.9394 107.808 79.5114 107.91 79.0861 107.864C78.6609 107.818 78.2643 107.628 77.9625 107.325L74.025 103.388C73.7222 103.085 73.5322 102.688 73.4865 102.262C73.4408 101.836 73.5422 101.408 73.7737 101.048L75.9862 97.605C75.404 96.5219 74.9305 95.3839 74.5725 94.2075L70.5825 93.3338C70.1644 93.2431 69.7899 93.0121 69.5211 92.6792C69.2524 92.3463 69.1055 91.9316 69.105 91.5037V85.9388C69.1055 85.5109 69.2524 85.0962 69.5211 84.7633C69.7899 84.4304 70.1644 84.1995 70.5825 84.1088L74.5725 83.235C74.9287 82.0613 75.4012 80.925 75.9862 79.8375L73.7737 76.3875C73.5431 76.0278 73.4423 75.6 73.488 75.1751C73.5337 74.7503 73.7231 74.3537 74.025 74.0513L77.9587 70.1175C78.2605 69.8144 78.6572 69.6241 79.0824 69.5784C79.5076 69.5327 79.9357 69.6343 80.295 69.8663L83.745 72.0713C84.8282 71.4893 85.9662 71.0158 87.1425 70.6575L88.0125 66.6713C88.1032 66.2532 88.3341 65.8786 88.667 65.6099C88.9999 65.3411 89.4147 65.1943 89.8425 65.1938H95.4075C95.8348 65.1941 96.2492 65.3404 96.582 65.6084C96.9148 65.8764 97.146 66.2501 97.2375 66.6675L98.1112 70.6575C99.285 71.0138 100.421 71.4863 101.512 72.0713L104.955 69.8663C105.315 69.6356 105.742 69.5348 106.167 69.5805C106.592 69.6262 106.989 69.8157 107.291 70.1175L111.225 74.0513C111.527 74.3537 111.716 74.7503 111.762 75.1751C111.808 75.6 111.707 76.0278 111.476 76.3875L109.271 79.8375C109.852 80.925 110.329 82.065 110.685 83.235L114.675 84.1088C115.093 84.1995 115.468 84.4304 115.736 84.7633C116.005 85.0962 116.152 85.5109 116.152 85.9388V91.5C116.152 91.9278 116.005 92.3426 115.736 92.6755C115.468 93.0083 115.093 93.2393 114.675 93.33L110.681 94.2038C110.329 95.3775 109.856 96.51 109.271 97.6013L111.476 101.048C111.707 101.407 111.808 101.835 111.762 102.26C111.716 102.685 111.527 103.081 111.225 103.384L107.291 107.321C106.988 107.622 106.592 107.812 106.167 107.857C105.743 107.903 105.315 107.802 104.955 107.573L101.512 105.364C100.427 105.943 99.2881 106.415 98.1112 106.774L97.2375 110.771C97.1509 111.191 96.9217 111.568 96.5888 111.838C96.2559 112.108 95.8399 112.254 95.4112 112.253ZM91.3575 108.503H93.9037L94.7025 104.861C94.7791 104.515 94.9517 104.198 95.2005 103.946C95.4492 103.694 95.764 103.517 96.1087 103.436C97.6837 103.069 99.1875 102.446 100.586 101.584C100.886 101.396 101.233 101.298 101.586 101.3C101.939 101.303 102.285 101.407 102.581 101.599L105.712 103.605L107.512 101.805L105.506 98.67C105.315 98.3722 105.213 98.0265 105.21 97.6728C105.208 97.3191 105.305 96.9719 105.491 96.6713C106.357 95.2725 106.98 93.7688 107.344 92.2013C107.424 91.855 107.601 91.5386 107.854 91.289C108.106 91.0393 108.425 90.8667 108.772 90.7913L112.41 89.9963V87.4463L108.78 86.6513C108.434 86.5757 108.117 86.404 107.865 86.1558C107.613 85.9076 107.436 85.5932 107.355 85.2488C106.978 83.6659 106.349 82.154 105.491 80.7713C105.303 80.4712 105.205 80.1238 105.207 79.7697C105.21 79.4156 105.314 79.0697 105.506 78.7725L107.512 75.6338L105.712 73.8338L102.581 75.84C102.284 76.03 101.939 76.1322 101.586 76.1349C101.233 76.1375 100.886 76.0405 100.586 75.855C99.2024 74.9969 97.6892 74.3675 96.105 73.9913C95.7607 73.9114 95.4461 73.7354 95.1978 73.4838C94.9496 73.2322 94.7778 72.9153 94.7025 72.57L93.9037 68.94H91.3537L90.5625 72.5625C90.487 72.9082 90.3152 73.2254 90.067 73.4775C89.8188 73.7297 89.5044 73.9065 89.16 73.9875C87.5767 74.363 86.0646 74.9924 84.6825 75.8513C84.3821 76.0384 84.0348 76.1363 83.6809 76.1337C83.3271 76.131 82.9812 76.0279 82.6837 75.8363L79.545 73.83L77.745 75.63L79.7587 78.7688C79.9495 79.0666 80.0521 79.4123 80.0548 79.766C80.0574 80.1196 79.96 80.4668 79.7737 80.7675C78.9112 82.1625 78.285 83.6663 77.91 85.245C77.8298 85.5898 77.6533 85.9047 77.401 86.153C77.1487 86.4013 76.831 86.5728 76.485 86.6475L72.855 87.4425V89.9925L76.485 90.7875C76.8306 90.863 77.1479 91.0348 77.4 91.283C77.6522 91.5311 77.829 91.8456 77.91 92.19C78.285 93.7688 78.9112 95.2725 79.7737 96.6675C79.9616 96.9683 80.06 97.3163 80.0573 97.6709C80.0547 98.0256 79.9511 98.3721 79.7587 98.67L77.7487 101.805L79.545 103.601L82.6837 101.595C82.982 101.406 83.3276 101.304 83.681 101.301C84.0343 101.298 84.3814 101.395 84.6825 101.58C86.0623 102.438 87.5737 103.064 89.1562 103.433C89.5018 103.513 89.8174 103.69 90.0663 103.943C90.3153 104.196 90.4873 104.514 90.5625 104.861L91.3575 108.503ZM92.6287 99.8775C86.475 99.8775 81.4725 94.875 81.4725 88.7213C81.4725 82.5675 86.475 77.565 92.6287 77.565C98.7825 77.565 103.785 82.5675 103.785 88.7213C103.785 94.875 98.7825 99.8775 92.6287 99.8775ZM92.6287 81.3188C88.545 81.3188 85.2225 84.6413 85.2225 88.725C85.2225 92.8088 88.545 96.1313 92.6287 96.1313C96.7125 96.1313 100.035 92.8088 100.035 88.725C100.035 84.6413 96.7125 81.3188 92.6287 81.3188Z" fill="#DBA05F"/>
</svg>
