<svg width="120" height="120" viewBox="0 0 120 120" fill="none" xmlns="http://www.w3.org/2000/svg">
<path d="M85 50H55C52.24 50 50 47.76 50 45C50 42.24 52.24 40 55 40H85C87.76 40 90 42.24 90 45C90 47.76 87.76 50 85 50Z" fill="#5EC5EE"/>
<path d="M65 60C63.72 60 62.44 59.51 61.465 58.535L51.465 48.535C49.51 46.58 49.51 43.42 51.465 41.465L61.465 31.465C63.42 29.51 66.58 29.51 68.535 31.465C70.49 33.42 70.49 36.58 68.535 38.535L62.07 45L68.53 51.46C70.485 53.415 70.485 56.575 68.53 58.53C67.555 59.51 66.275 60 65 60ZM65 80H35C32.24 80 30 77.765 30 75C30 72.235 32.24 70 35 70H65C67.76 70 70 72.235 70 75C70 77.765 67.76 80 65 80Z" fill="#5EC5EE"/>
<path d="M55 90.005C53.72 90.005 52.44 89.515 51.465 88.54C49.51 86.585 49.51 83.425 51.465 81.47L57.93 75L51.47 68.54C49.515 66.585 49.515 63.425 51.47 61.47C53.425 59.515 56.585 59.515 58.54 61.47L68.54 71.465C69.475 72.4 70 73.67 70 75C70 76.325 69.475 77.6 68.535 78.535L58.535 88.54C57.555 89.515 56.275 90.005 55 90.005Z" fill="#5EC5EE"/>
<path d="M100 110H20C14.475 110 10 105.525 10 100V20C10 14.475 14.475 10 20 10H100C105.525 10 110 14.475 110 20V100C110 105.525 105.525 110 100 110ZM20 100H100V20H20V100Z" fill="#5EC5EE"/>
</svg>
