<svg width="120" height="108" viewBox="0 0 120 108" fill="none" xmlns="http://www.w3.org/2000/svg">
<path d="M119.419 39.4221C119.294 38.5254 118.85 37.704 118.167 37.1095C117.484 36.515 116.61 36.1875 115.704 36.1875H105V28.6875H108.75C109.383 28.6806 110.004 28.5147 110.556 28.2052C111.108 27.8956 111.573 27.4523 111.909 26.916C112.245 26.3796 112.441 25.7675 112.478 25.1357C112.516 24.504 112.394 23.873 112.124 23.3006L104.844 8.30062C104.537 7.66719 104.058 7.13305 103.461 6.75934C102.865 6.38564 102.175 6.18746 101.471 6.1875H94.6876V4.3125C94.6876 3.31794 94.2925 2.36411 93.5893 1.66085C92.886 0.957588 91.9322 0.5625 90.9376 0.5625C89.9431 0.5625 88.9892 0.957588 88.286 1.66085C87.5827 2.36411 87.1876 3.31794 87.1876 4.3125V6.1875H74.7795C74.0755 6.18746 73.3856 6.38563 72.789 6.75934C72.1924 7.13305 71.713 7.66718 71.4057 8.30062L64.1264 23.3006C63.8564 23.873 63.7345 24.504 63.7721 25.1357C63.8096 25.7675 64.0053 26.3796 64.3412 26.916C64.6772 27.4523 65.1425 27.8956 65.6944 28.2052C66.2464 28.5147 66.8673 28.6806 67.5001 28.6875H71.2501V36.1875H48.7501V28.6875H52.5001C53.1329 28.6806 53.7538 28.5147 54.3058 28.2052C54.8578 27.8956 55.3231 27.4523 55.659 26.916C55.9949 26.3796 56.1906 25.7675 56.2282 25.1357C56.2657 24.504 56.1439 23.873 55.8738 23.3006L48.5945 8.30062C48.2872 7.66719 47.8079 7.13305 47.2112 6.75934C46.6146 6.38564 45.9248 6.18746 45.2208 6.1875H38.4376V4.3125C38.4376 3.31794 38.0425 2.36411 37.3393 1.66085C36.636 0.957588 35.6822 0.5625 34.6876 0.5625C33.6931 0.5625 32.7392 0.957588 32.036 1.66085C31.3327 2.36411 30.9376 3.31794 30.9376 4.3125V6.1875H18.5295C17.8255 6.18746 17.1356 6.38563 16.539 6.75934C15.9424 7.13305 15.463 7.66718 15.1557 8.30062L7.87637 23.3006C7.60637 23.873 7.48454 24.504 7.52208 25.1357C7.55963 25.7675 7.75535 26.3796 8.09125 26.916C8.42715 27.4523 8.89247 27.8956 9.44443 28.2052C9.9964 28.5147 10.6173 28.6806 11.2501 28.6875H15.0001V36.1875H4.29574C3.39046 36.1875 2.51573 36.5149 1.83303 37.1094C1.15033 37.7039 0.70575 38.5254 0.581367 39.4221C-0.610595 47.9222 0.0350578 56.5791 2.47473 64.8084C4.91441 73.0377 9.09132 80.6477 14.7235 87.1247C20.3556 93.6018 27.3119 98.795 35.1226 102.354C42.9333 105.913 51.4167 107.754 60 107.754C68.5833 107.754 77.0667 105.913 84.8774 102.354C92.6882 98.795 99.6444 93.6018 105.277 87.1247C110.909 80.6477 115.086 73.0377 117.525 64.8084C119.965 56.5791 120.611 47.9222 119.419 39.4221ZM77.1278 13.6875H87.7079C88.0331 14.2571 88.5031 14.7305 89.0703 15.0598C89.6376 15.3891 90.2818 15.5625 90.9376 15.5625C91.5935 15.5625 92.2377 15.3891 92.8049 15.0598C93.3721 14.7305 93.8422 14.2571 94.1674 13.6875H99.1224L102.762 21.1875H73.4886L77.1278 13.6875ZM97.5001 28.6875V36.1875H78.7501V28.6875H97.5001ZM20.8778 13.6875H31.4579C31.7831 14.2571 32.2531 14.7305 32.8203 15.0598C33.3876 15.3891 34.0318 15.5625 34.6876 15.5625C35.3435 15.5625 35.9877 15.3891 36.5549 15.0598C37.1221 14.7305 37.5922 14.2571 37.9174 13.6875H42.8724L46.5117 21.1875H17.2386L20.8778 13.6875ZM41.2501 28.6875V36.1875H22.5001V28.6875H41.2501ZM21.3365 82.9832C12.437 73.3754 7.49513 60.7607 7.50012 47.6645C7.50012 46.3599 7.55322 45.0306 7.6585 43.6875C12.5777 42.929 18.108 45.6658 17.4574 51.1106C17.4598 52.8523 17.8155 54.5755 18.5028 56.1759C19.1902 57.7762 20.195 59.2206 21.4564 60.4215C24.0063 62.8408 27.3907 64.184 30.9056 64.1715C31.4163 64.1304 31.9299 64.1955 32.4142 64.3627C32.8985 64.5299 33.3429 64.7956 33.7194 65.143C34.096 65.4904 34.3965 65.9121 34.602 66.3814C34.8075 66.8507 34.9136 67.3575 34.9136 67.8698C34.9136 68.3821 34.8075 68.8889 34.602 69.3582C34.3965 69.8275 34.096 70.2492 33.7194 70.5966C33.3429 70.9441 32.8985 71.2097 32.4142 71.3769C31.9299 71.5441 31.4163 71.6092 30.9056 71.5681C29.4899 71.5813 28.0939 71.9012 26.8137 72.5058C25.5336 73.1104 24.3997 73.9853 23.4902 75.0702C22.5807 76.1552 21.9172 77.4244 21.5454 78.7905C21.1735 80.1565 21.1023 81.5869 21.3365 82.9832ZM69.3751 99.0847C63.805 100.115 58.1022 100.213 52.5001 99.3722V96.7872C52.5012 95.8825 52.861 95.0152 53.5007 94.3756C54.1404 93.7359 55.0076 93.376 55.9123 93.375H65.963C66.8676 93.376 67.7349 93.7359 68.3746 94.3756C69.0142 95.0152 69.3741 95.8825 69.3751 96.7872V99.0847ZM103.596 76.7554H80.3669C80.0781 76.7577 79.8002 76.6453 79.5941 76.443C79.3879 76.2407 79.2705 75.9648 79.2674 75.676V69.8807C79.2705 69.5919 79.3879 69.3161 79.594 69.1138C79.8002 68.9114 80.0781 68.7991 80.3669 68.8013H88.1251C90.4003 68.7944 92.5805 67.8889 94.1912 66.282C95.8018 64.6752 96.7124 62.497 96.7247 60.2219C96.7273 59.9331 96.8445 59.657 97.0505 59.4545C97.2565 59.252 97.5344 59.1394 97.8233 59.1416H111.21C109.789 65.4351 107.207 71.4085 103.596 76.7554ZM112.333 51.6417H97.8233C95.546 51.6417 93.3617 52.5452 91.7497 54.1538C90.1377 55.7623 89.2296 57.9447 89.2247 60.222C89.2241 60.3653 89.1951 60.507 89.1393 60.639C89.0836 60.771 89.0023 60.8906 88.9 60.991C88.7978 61.0914 88.6767 61.1704 88.5436 61.2237C88.4106 61.277 88.2684 61.3033 88.1251 61.3012H80.3669C78.0897 61.3012 75.9054 62.2045 74.2932 63.8129C72.6811 65.4212 71.7727 67.6034 71.7674 69.8807V75.6759C71.7727 77.9532 72.6811 80.1354 74.2932 81.7437C75.9054 83.3521 78.0897 84.2554 80.3669 84.2553H97.4454C91.6862 90.0961 84.6423 94.5109 76.8751 97.1479V96.7872C76.8718 93.8941 75.7211 91.1205 73.6754 89.0748C71.6296 87.0291 68.856 85.8783 65.963 85.875H55.9123C53.0192 85.8783 50.2456 87.0291 48.1999 89.0748C46.1542 91.1205 45.0034 93.8941 45.0001 96.7872V97.7195C39.1898 95.9997 33.7211 93.2868 28.8365 89.7009V80.9046C28.8697 80.3876 29.1058 79.9046 29.4932 79.5607C29.8807 79.2168 30.3883 79.0397 30.9056 79.068C32.4019 79.1089 33.8912 78.8495 35.2855 78.3051C36.6799 77.7607 37.951 76.9424 39.0238 75.8985C40.0966 74.8546 40.9493 73.6063 41.5315 72.2273C42.1137 70.8483 42.4137 69.3666 42.4137 67.8698C42.4137 66.3729 42.1137 64.8912 41.5315 63.5123C40.9493 62.1333 40.0966 60.885 39.0238 59.8411C37.951 58.7972 36.6799 57.9789 35.2855 57.4345C33.8912 56.8901 32.4019 56.6306 30.9056 56.6715C30.0721 56.6903 29.2442 56.5307 28.4774 56.2036C27.7105 55.8764 27.0225 55.3891 26.4592 54.7744C25.896 54.1597 25.4707 53.4317 25.2117 52.6393C24.9526 51.8468 24.866 51.0082 24.9574 50.1795C24.9563 47.911 24.3865 45.6789 23.3001 43.6875H112.342C112.553 46.3348 112.55 48.9949 112.333 51.6417Z" fill="#63D1B6"/>
</svg>
