<svg width="120" height="120" viewBox="0 0 120 120" fill="none" xmlns="http://www.w3.org/2000/svg">
<path d="M106.875 41.25V18.75C108.509 18.2952 109.946 17.3132 110.963 15.9567C111.98 14.6002 112.521 12.9455 112.5 11.25C112.5 9.26088 111.71 7.35322 110.303 5.9467C108.897 4.54018 106.989 3.75 105 3.75C103.011 3.75 101.103 4.54018 99.6968 5.9467C98.2902 7.35322 97.5001 9.26088 97.5001 11.25C97.5202 12.9134 98.0794 14.5253 99.0937 15.8438C100.108 17.1624 101.523 18.1163 103.125 18.5625V41.25H99.3751C99.3751 37.769 97.9922 34.4306 95.5308 31.9692C93.0694 29.5078 89.731 28.125 86.2501 28.125H33.7501C30.2691 28.125 26.9307 29.5078 24.4693 31.9692C22.0079 34.4306 20.6251 37.769 20.6251 41.25H16.8751V18.75C18.5085 18.2952 19.9458 17.3132 20.9631 15.9567C21.9805 14.6002 22.5208 12.9455 22.5001 11.25C22.5001 9.26088 21.7099 7.35322 20.3034 5.9467C18.8968 4.54018 16.9892 3.75 15.0001 3.75C13.0109 3.75 11.1033 4.54018 9.69675 5.9467C8.29023 7.35322 7.50005 9.26088 7.50005 11.25C7.52025 12.9134 8.07944 14.5253 9.09369 15.8438C10.1079 17.1624 11.5225 18.1163 13.1251 18.5625V41.25C12.3793 41.2238 11.6362 41.3514 10.9419 41.6248C10.2476 41.8982 9.61695 42.3116 9.08931 42.8393C8.56167 43.3669 8.14827 43.9975 7.87486 44.6918C7.60145 45.3861 7.47386 46.1293 7.50005 46.875V73.125C7.47386 73.8707 7.60145 74.6139 7.87486 75.3082C8.14827 76.0025 8.56167 76.6331 9.08931 77.1607C9.61695 77.6884 10.2476 78.1018 10.9419 78.3752C11.6362 78.6486 12.3793 78.7762 13.1251 78.75H20.6251C20.6251 82.231 22.0079 85.5694 24.4693 88.0308C26.9307 90.4922 30.2691 91.875 33.7501 91.875H86.2501C89.731 91.875 93.0694 90.4922 95.5308 88.0308C97.9922 85.5694 99.3751 82.231 99.3751 78.75H103.125V93.75C103.125 99.9375 97.1251 105 89.8126 105H78.5626C78.1303 102.882 76.9797 100.979 75.3055 99.6125C73.6313 98.2458 71.5363 97.4996 69.3751 97.5H61.8751C59.3886 97.5 57.0041 98.4877 55.2459 100.246C53.4878 102.004 52.5001 104.389 52.5001 106.875C52.5001 109.361 53.4878 111.746 55.2459 113.504C57.0041 115.262 59.3886 116.25 61.8751 116.25H69.3751C71.5363 116.25 73.6313 115.504 75.3055 114.137C76.9797 112.771 78.1303 110.868 78.5626 108.75H89.8126C99.1876 108.75 106.875 102 106.875 93.75V78.75C107.621 78.7762 108.364 78.6486 109.058 78.3752C109.753 78.1018 110.383 77.6884 110.911 77.1607C111.438 76.6331 111.852 76.0025 112.125 75.3082C112.399 74.6139 112.526 73.8707 112.5 73.125V46.875C112.526 46.1293 112.399 45.3861 112.125 44.6918C111.852 43.9975 111.438 43.3669 110.911 42.8393C110.383 42.3116 109.753 41.8982 109.058 41.6248C108.364 41.3514 107.621 41.2238 106.875 41.25ZM13.1251 75C12.8716 75.0302 12.6145 75.0024 12.3733 74.9188C12.1321 74.8353 11.913 74.6981 11.7325 74.5176C11.552 74.337 11.4148 74.1179 11.3312 73.8767C11.2477 73.6355 11.2199 73.3785 11.2501 73.125V46.875C11.2199 46.6215 11.2477 46.3645 11.3312 46.1233C11.4148 45.8821 11.552 45.663 11.7325 45.4824C11.913 45.3019 12.1321 45.1647 12.3733 45.0812C12.6145 44.9976 12.8716 44.9698 13.1251 45H20.6251V75H13.1251ZM89.8126 73.125C89.8126 75.1141 89.0224 77.0218 87.6159 78.4283C86.2093 79.8348 84.3017 80.625 82.3126 80.625H37.6876C35.6984 80.625 33.7908 79.8348 32.3843 78.4283C30.9777 77.0218 30.1876 75.1141 30.1876 73.125V45C30.1876 43.0109 30.9777 41.1032 32.3843 39.6967C33.7908 38.2902 35.6984 37.5 37.6876 37.5H48.5626C49.4837 37.4914 50.393 37.7091 51.2103 38.1342C52.0276 38.5592 52.7281 39.1784 53.2501 39.9375L54.7501 42.375C55.1924 42.8366 55.7985 43.106 56.4376 43.125H63.5626C64.2017 43.106 64.8077 42.8366 65.2501 42.375L66.7501 39.9375C67.272 39.1784 67.9725 38.5592 68.7898 38.1342C69.6071 37.7091 70.5164 37.4914 71.4375 37.5H82.3126C84.3017 37.5 86.2093 38.2902 87.6159 39.6967C89.0224 41.1032 89.8126 43.0109 89.8126 45V73.125ZM108.75 73.125C108.78 73.3785 108.752 73.6355 108.669 73.8767C108.585 74.1179 108.448 74.337 108.268 74.5176C108.087 74.6981 107.868 74.8353 107.627 74.9188C107.386 75.0024 107.129 75.0302 106.875 75H99.3751V45H106.875C107.129 44.9698 107.386 44.9976 107.627 45.0812C107.868 45.1647 108.087 45.3019 108.268 45.4824C108.448 45.663 108.585 45.8821 108.669 46.1233C108.752 46.3645 108.78 46.6215 108.75 46.875V73.125Z" fill="#DB7B58"/>
<path d="M73.125 71.25C78.3027 71.25 82.5 67.0527 82.5 61.875C82.5 56.6973 78.3027 52.5 73.125 52.5C67.9473 52.5 63.75 56.6973 63.75 61.875C63.75 67.0527 67.9473 71.25 73.125 71.25Z" fill="#DB7B58"/>
<path d="M46.875 71.25C52.0527 71.25 56.25 67.0527 56.25 61.875C56.25 56.6973 52.0527 52.5 46.875 52.5C41.6973 52.5 37.5 56.6973 37.5 61.875C37.5 67.0527 41.6973 71.25 46.875 71.25Z" fill="#DB7B58"/>
</svg>
