<svg width="207" height="324" viewBox="0 0 207 324" fill="none" xmlns="http://www.w3.org/2000/svg">
<g filter="url(#filter0_d_345_170)">
<path d="M12 8H165C181.569 8 195 21.4315 195 38V308H42C25.4315 308 12 294.569 12 278V8Z" fill="white"/>
<path d="M14 10H165C180.464 10 193 22.536 193 38V306H42C26.536 306 14 293.464 14 278V10Z" stroke="#F58B20" stroke-width="4"/>
</g>
<g clip-path="url(#clip0_345_170)">
<path d="M164.581 88.5196C154.867 66.0673 137.981 52.4767 114.392 48.1238C110.206 47.3533 105.96 46.9634 101.77 46.9634C87.5716 46.9634 74.0169 51.33 62.5757 59.5908C51.0657 67.902 42.5469 79.5616 37.9336 93.3036C35.9119 97.794 34.7402 104.358 34.5473 112.293C34.4554 113.518 34.8046 118.581 35.0573 120.219C35.7833 124.879 37.1847 129.273 39.2294 133.282C40.4195 135.621 41.922 140.612 43.3785 145.441C45.8414 153.624 47.059 157.317 48.3501 158.353C50.4592 160.041 52.8071 162.202 55.077 164.284C57.5674 166.573 60.1451 168.94 62.5436 170.825C75.3585 183.021 90.2366 195.933 90.3836 196.061L90.7145 196.35L113.436 198.139L113.877 197.602C115.784 195.286 160.643 140.777 163.23 136.736C167.453 130.131 169.709 122.471 169.948 113.953V113.889C169.92 105.225 168.119 96.6932 164.581 88.5196Z" fill="#FFCF50"/>
<path d="M112.26 195.373L91.8035 193.763C89.5337 191.786 76.0616 180.012 64.3402 168.852L64.2437 168.77C61.9095 166.935 59.3548 164.591 56.8828 162.321C54.5808 160.206 52.2007 158.019 50.0411 156.289C49.1773 155.436 47.2291 148.96 45.9379 144.671C45.1522 142.057 44.3481 139.401 43.5762 137.098C52.0444 128.035 64.308 121.352 78.4004 117.815C85.8716 115.935 93.8528 114.944 102.055 114.944C110.169 114.944 118.049 115.907 125.419 117.724C139.429 121.173 151.578 127.723 160.009 136.635C154.312 144.125 127.234 177.177 112.26 195.373Z" fill="url(#paint0_linear_345_170)"/>
<path d="M167.278 113.871V113.894C167.067 121.512 165.142 128.392 161.548 134.374C152.933 125.475 140.761 118.889 126.784 115.32C125.915 115.1 125.047 114.889 124.16 114.687C117.139 113.105 109.691 112.275 102.054 112.275C94.326 112.275 86.7675 113.141 79.6317 114.784C78.7495 114.981 77.8719 115.201 77.0035 115.426C63.2374 119.003 51.1851 125.521 42.579 134.296C42.2482 133.438 41.922 132.681 41.6095 132.071C39.6981 128.31 38.3839 124.186 37.6993 119.801C37.442 118.169 37.1387 113.233 37.2168 112.495L37.2214 112.394C37.396 104.872 38.5264 98.4592 40.3965 94.3403L40.447 94.2072C44.8764 80.9698 53.069 69.746 64.1426 61.7512C75.1196 53.8207 88.1367 49.6238 101.77 49.6238C105.799 49.6238 109.879 49.9999 113.905 50.743C136.571 54.9215 152.791 67.9846 162.127 89.5746C165.523 97.4134 167.255 105.596 167.278 113.871Z" fill="url(#paint1_linear_345_170)"/>
<path d="M81.4007 234.604C76.7232 223.334 65.521 217.114 56.5013 209.358C37.9152 195.635 30.0719 182.081 32.6082 160.032C51.3505 193.745 90.1447 191.328 83.2662 239.819L81.4007 234.604Z" fill="url(#paint2_linear_345_170)"/>
<path d="M83.2662 241.158C82.7057 241.158 82.2002 240.81 82.0072 240.273L80.1509 235.086C76.737 226.884 69.4955 221.284 62.4884 215.872C60.214 214.11 57.8614 212.294 55.6605 210.404C45.7265 203.065 39.2983 196.08 35.434 188.42C31.2987 180.228 29.98 171.16 31.2757 159.885C31.34 159.312 31.772 158.844 32.3417 158.729C32.9115 158.619 33.4858 158.885 33.7707 159.39C40.6584 171.779 50.2248 179.131 59.4742 186.236C67.2395 192.204 74.5728 197.836 79.4709 205.918C84.9709 214.991 86.5975 225.825 84.5849 240.012C84.4976 240.617 84.0106 241.09 83.3995 241.149C83.3581 241.154 83.3122 241.158 83.2662 241.158ZM33.5823 164.261C32.5301 182.489 39.4315 195.103 57.2962 208.29C57.3238 208.308 57.3468 208.331 57.3743 208.349C59.5293 210.202 61.8681 212.009 64.1288 213.762C71.3702 219.362 78.8552 225.146 82.5632 233.92C84.3644 208.716 72.0089 199.226 57.8522 188.351C49.2966 181.778 40.4838 175.003 33.5823 164.261Z" fill="url(#paint3_linear_345_170)"/>
<path d="M123.641 234.604C128.319 223.334 139.521 217.114 148.54 209.358C167.127 195.635 174.97 182.081 172.434 160.032C153.691 193.745 114.897 191.328 121.776 239.819L123.641 234.604Z" fill="url(#paint4_linear_345_170)"/>
<path d="M121.78 241.158C121.734 241.158 121.688 241.158 121.647 241.154C121.036 241.094 120.544 240.622 120.461 240.016C118.449 225.829 120.075 214.995 125.575 205.923C130.474 197.841 137.807 192.204 145.572 186.241C154.822 179.136 164.388 171.783 171.276 159.394C171.556 158.89 172.135 158.624 172.705 158.734C173.274 158.849 173.706 159.312 173.771 159.89C175.066 171.164 173.748 180.232 169.612 188.424C165.748 196.079 159.32 203.065 149.386 210.408C147.185 212.298 144.832 214.115 142.558 215.876C135.555 221.293 128.314 226.889 124.895 235.09L123.039 240.278C122.842 240.81 122.336 241.158 121.78 241.158ZM171.464 164.261C164.563 175.003 155.745 181.778 147.194 188.351C133.037 199.226 120.682 208.721 122.483 233.92C126.191 225.15 133.676 219.362 140.913 213.761C143.174 212.014 145.512 210.207 147.667 208.349C147.69 208.326 147.718 208.308 147.746 208.289C165.615 195.102 172.516 182.489 171.464 164.261Z" fill="url(#paint5_linear_345_170)"/>
<path d="M99.0174 150.413C100.768 150.413 102.188 148.997 102.188 147.249C102.188 145.501 100.768 144.084 99.0174 144.084C97.2664 144.084 95.8469 145.501 95.8469 147.249C95.8469 148.997 97.2664 150.413 99.0174 150.413Z" fill="#010101"/>
<path d="M116.634 205.652C121.311 194.382 132.513 188.163 141.533 180.407C160.119 166.683 167.963 153.129 165.426 131.08C146.684 164.793 107.89 162.376 114.768 210.867L116.634 205.652Z" fill="url(#paint6_linear_345_170)"/>
<path d="M114.768 212.207C114.722 212.207 114.677 212.207 114.635 212.202C114.024 212.142 113.532 211.67 113.45 211.064C111.437 196.878 113.064 186.044 118.564 176.971C123.462 168.889 130.795 163.252 138.56 157.289C147.81 150.184 157.376 142.832 164.264 130.443C164.544 129.938 165.123 129.672 165.693 129.782C166.263 129.897 166.695 130.36 166.759 130.938C168.055 142.212 166.736 151.28 162.601 159.472C158.736 167.128 152.308 174.113 142.374 181.452C140.173 183.342 137.821 185.158 135.546 186.92C128.544 192.337 121.302 197.933 117.888 206.134L116.032 211.321C115.834 211.853 115.329 212.207 114.768 212.207ZM164.452 135.305C157.551 146.047 148.733 152.822 140.182 159.394C126.026 170.27 113.67 179.764 115.471 204.964C119.179 196.194 126.664 190.406 133.901 184.805C136.162 183.058 138.501 181.25 140.66 179.393C140.683 179.37 140.711 179.351 140.738 179.333C158.608 166.146 165.509 153.533 164.452 135.305Z" fill="url(#paint7_linear_345_170)"/>
<path d="M88.077 205.652C83.3994 194.382 72.1972 188.163 63.1776 180.407C44.5915 166.683 36.7481 153.129 39.2845 131.08C58.0268 164.793 96.8209 162.376 89.9425 210.867L88.077 205.652Z" fill="url(#paint8_linear_345_170)"/>
<path d="M89.9425 212.207C89.3819 212.207 88.8765 211.858 88.6835 211.321L86.8272 206.134C83.4132 197.933 76.1718 192.332 69.1647 186.92C66.8902 185.158 64.5377 183.342 62.3368 181.452C52.4027 174.113 45.9746 167.128 42.1103 159.472C37.975 151.28 36.6562 142.212 37.952 130.938C38.0163 130.365 38.4482 129.897 39.018 129.782C39.5878 129.672 40.1621 129.938 40.447 130.443C47.3346 142.832 56.9011 150.184 66.1505 157.289C73.9157 163.256 81.2491 168.889 86.1472 176.971C91.6472 186.044 93.2737 196.878 91.2612 211.064C91.1739 211.67 90.6869 212.142 90.0757 212.202C90.0344 212.202 89.9884 212.207 89.9425 212.207ZM40.2586 135.305C39.2064 153.533 46.1078 166.146 63.9725 179.333C64.0001 179.351 64.023 179.374 64.0506 179.393C66.2056 181.246 68.5444 183.058 70.805 184.805C78.0465 190.406 85.5314 196.19 89.2349 204.964C91.0361 179.76 78.6806 170.27 64.5239 159.394C55.9729 152.826 47.16 146.051 40.2586 135.305Z" fill="url(#paint9_linear_345_170)"/>
<path d="M114.571 265.005C98.6772 257.345 90.5444 244.704 90.4065 227.43C90.2733 210.725 90.3008 193.74 90.3284 177.315C90.3422 169.829 90.0206 162.036 90.0206 154.578C90.0206 150.505 88.7018 147.946 85.4487 146.973C84.2678 146.529 80.9688 146.84 80.9688 146.84L81.9383 145.033C84.8054 139.561 90.3881 136.3 96.8761 136.3C97.6388 136.3 98.4199 136.346 99.1918 136.442C106.245 137.291 112.227 142.533 113.748 149.193C114.139 150.914 114.332 152.84 114.336 155.083C114.373 192.869 114.709 223.889 114.672 251.988C114.663 257.143 115.788 261.826 117.861 264.285C118.642 265.211 119.671 266.12 120.645 266.89C121.036 267.198 120.673 267.808 120.213 267.61C118.26 266.78 115.958 265.762 114.571 265.005Z" fill="#EF4637"/>
<path d="M120.383 268.982C120.149 268.982 119.915 268.936 119.685 268.84C117.079 267.734 115.154 266.844 113.96 266.198C97.5882 258.299 89.2119 245.259 89.0694 227.448C88.9362 210.702 88.9637 193.731 88.9913 177.32C88.9959 173.503 88.9178 169.54 88.8351 165.706C88.7616 162.036 88.6788 158.243 88.6788 154.588C88.6788 151.996 88.2469 149.212 85.0581 148.262L84.9708 148.235C84.4378 148.038 82.531 148.047 81.0836 148.184L78.6116 148.418L80.7528 144.423C83.8497 138.515 89.8735 134.984 96.8668 134.984C97.6847 134.984 98.5164 135.034 99.3389 135.135C106.939 136.052 113.394 141.717 115.039 148.914C115.453 150.73 115.66 152.753 115.66 155.097C115.678 173.247 115.765 189.534 115.843 205.29C115.931 221.802 116.009 237.402 115.991 252.006C115.986 256.951 117.084 261.331 118.867 263.441C119.492 264.179 120.36 264.991 121.458 265.858C122.157 266.409 122.336 267.367 121.881 268.133C121.559 268.67 120.985 268.982 120.383 268.982ZM85.8714 145.712C89.5611 146.831 91.3576 149.735 91.3576 154.578C91.3576 158.206 91.4358 161.986 91.5139 165.642C91.592 169.49 91.6747 173.471 91.6701 177.315C91.6425 193.722 91.6103 210.684 91.7482 227.416C91.8814 244.14 99.757 256.382 115.159 263.799L115.219 263.831C115.508 263.987 115.853 264.166 116.252 264.363C114.382 261.611 113.326 257.175 113.335 251.983C113.353 237.388 113.275 221.793 113.188 205.285C113.105 189.53 113.022 173.237 113.004 155.083C113.004 152.941 112.82 151.115 112.448 149.492C111.051 143.368 105.537 138.548 99.0356 137.768C98.3188 137.681 97.5928 137.639 96.8806 137.639C91.0038 137.639 85.9357 140.538 83.2661 145.405C84.2035 145.405 85.2052 145.478 85.8714 145.712Z" fill="url(#paint10_linear_345_170)"/>
<path d="M97.4505 146.648C98.7218 146.648 99.7525 145.619 99.7525 144.35C99.7525 143.081 98.7218 142.052 97.4505 142.052C96.1791 142.052 95.1484 143.081 95.1484 144.35C95.1484 145.619 96.1791 146.648 97.4505 146.648Z" fill="url(#paint11_linear_345_170)"/>
<path d="M131.843 115.37H126.982C126.917 115.352 126.848 115.338 126.784 115.32C125.92 115.1 125.047 114.889 124.165 114.692C122.809 114.384 121.436 114.109 120.048 113.861C119.276 102.945 110.155 94.3218 99.0174 94.3218C87.4338 94.3218 78.0328 103.651 77.9363 115.192L77.2287 115.37H66.1919C66.1919 115.37 69.1969 115.068 72.5328 113.38C74.8945 112.187 75.5194 109.105 73.7917 107.101C71.407 104.321 68.8018 102.894 68.6915 102.83C68.8018 102.862 71.6506 103.697 75.3218 103.413C77.9593 103.216 79.7007 100.592 78.8782 98.0783C77.7709 94.6933 75.9789 92.4228 75.8181 92.2164C76.0248 92.377 78.2993 94.1612 81.6994 95.2712C84.2128 96.0923 86.8411 94.3539 87.0386 91.7119C87.3235 88.0792 86.5056 85.2445 86.4597 85.0977C86.5378 85.2399 87.9576 87.8223 90.7237 90.1845C92.7362 91.9137 95.8332 91.2899 97.0278 88.9323C98.7187 85.5931 99.0174 82.6025 99.0174 82.6025C99.0174 82.6025 99.3206 85.5931 101.012 88.9323C102.206 91.2899 105.294 91.9137 107.311 90.1845C110.077 87.8223 111.506 85.2399 111.584 85.0977C111.538 85.2445 110.72 88.0792 111.001 91.7119C111.207 94.3493 113.826 96.0923 116.344 95.2712C119.735 94.1612 122.01 92.377 122.217 92.2164C122.06 92.4228 120.268 94.6933 119.161 98.0783C118.329 100.596 120.075 103.216 122.717 103.413C126.384 103.697 129.242 102.862 129.343 102.83C129.233 102.894 126.628 104.321 124.243 107.101C122.52 109.105 123.145 112.187 125.511 113.38C128.847 115.068 131.843 115.37 131.843 115.37Z" fill="#F4C120"/>
<path d="M89.5703 102.009C88.996 102.894 88.6743 102.344 88.3435 101.945C86.1058 99.2388 83.836 96.5556 81.6396 93.8127C76.0937 86.8866 70.5799 79.9285 65.0569 72.9841C64.9007 72.7869 64.7858 72.5576 64.7766 72.2502C73.2908 81.9375 81.488 91.8908 89.5703 102.009Z" fill="url(#paint12_linear_345_170)"/>
<path d="M110.573 105.706C110.311 105.376 110.16 105.174 109.879 104.821C120.53 97.418 131.13 90.0516 141.731 82.6807C141.85 82.8458 141.965 83.0155 142.085 83.1806C131.595 90.68 121.105 98.1794 110.573 105.706Z" fill="url(#paint13_linear_345_170)"/>
<path d="M45.2945 109.619C58.1693 110.408 71.0394 111.201 83.9141 111.99C83.96 112.16 84.006 112.33 84.0519 112.504C83.7303 112.655 83.4041 112.953 83.087 112.935C80.1831 112.798 77.2792 112.628 74.3798 112.426C69.5966 112.091 64.8134 111.743 60.0348 111.371C55.2929 111 50.551 110.596 45.8138 110.201C45.6162 110.183 45.4232 110.087 45.2302 110.027C45.2486 109.894 45.2716 109.756 45.2945 109.619Z" fill="url(#paint14_linear_345_170)"/>
<path d="M48.2306 95.519C50.9278 96.4226 53.6387 97.2895 56.3221 98.2298C65.4888 101.445 74.6463 104.693 83.8038 107.922C84.3184 108.105 84.9663 108.188 84.5711 109.261C72.3673 104.826 60.2048 100.409 48.0422 95.9869C48.1066 95.8355 48.1709 95.6796 48.2306 95.519Z" fill="url(#paint15_linear_345_170)"/>
<path d="M77.3574 64.6958C78.0925 66.2874 78.8507 67.8698 79.5583 69.4752C83.9004 79.3276 88.2333 89.18 92.5616 99.037C92.7822 99.5415 93.2601 100.138 92.0976 100.519C87.0249 88.6342 81.9568 76.7544 76.8887 64.8747C77.0449 64.8105 77.2011 64.7554 77.3574 64.6958Z" fill="url(#paint16_linear_345_170)"/>
<path d="M55.0447 82.6028C65.6174 89.9691 76.1855 97.3355 86.7352 104.684C86.2987 105.61 86.2941 105.619 85.4671 105.041C80.8355 101.789 76.1809 98.5602 71.5769 95.2623C66.2377 91.4323 60.9445 87.5427 55.6374 83.6715C55.3434 83.4559 55.0723 83.2082 54.792 82.9743C54.8793 82.8505 54.962 82.7266 55.0447 82.6028Z" fill="url(#paint17_linear_345_170)"/>
<path d="M151.536 110.16C149.983 110.316 148.43 110.509 146.873 110.619C135.941 111.412 125.01 112.188 114.079 112.967C113.928 112.976 113.758 113.027 113.629 112.972C113.335 112.848 113.064 112.669 112.788 112.513C113.041 112.366 113.284 112.114 113.546 112.087C115.467 111.908 117.388 111.747 119.308 111.637C129.647 111.027 139.985 110.426 150.328 109.83C150.728 109.807 151.127 109.825 151.532 109.825C151.527 109.94 151.532 110.05 151.536 110.16Z" fill="url(#paint18_linear_345_170)"/>
<path d="M105.827 60.9026C105.652 62.4851 105.505 64.0675 105.308 65.6454C104.517 71.9613 103.741 78.2773 102.904 84.5842C102.284 89.2489 101.586 93.9045 100.892 98.5555C100.851 98.8261 100.538 99.0554 100.35 99.3077C100.23 99.0371 99.9822 98.7481 100.014 98.5004C101.806 86.0152 103.621 73.5346 105.436 61.054C105.445 60.9944 105.514 60.9393 105.556 60.8843C105.648 60.8935 105.739 60.898 105.827 60.9026Z" fill="url(#paint19_linear_345_170)"/>
<path d="M91.3485 60.9348C91.5553 62.132 91.7988 63.3245 91.9689 64.5308C93.5173 75.4887 95.052 86.4511 96.5912 97.4134C96.6418 97.785 96.7704 98.1611 96.7475 98.528C96.7291 98.7987 96.5177 99.0555 96.3937 99.3215C96.2145 99.1014 95.9158 98.895 95.8791 98.6519C95.4747 96.0879 95.0933 93.5147 94.7487 90.9415C93.9308 84.8182 93.1176 78.6994 92.341 72.5715C91.877 68.9112 91.4956 65.2372 91.0821 61.5678C91.0591 61.3706 91.1004 61.1687 91.1096 60.9669C91.1923 60.9532 91.2704 60.944 91.3485 60.9348Z" fill="url(#paint20_linear_345_170)"/>
<path d="M104.687 100.464C103.534 100.326 103.856 99.7985 104.072 99.3123C107.155 92.2716 110.21 85.2217 113.326 78.1993C115.173 74.03 117.107 69.9019 119.005 65.7554C119.166 65.4068 119.349 65.0674 119.524 64.7234C119.662 64.7876 119.804 64.8518 119.942 64.916C114.86 76.7591 109.778 88.6067 104.687 100.464Z" fill="url(#paint21_linear_345_170)"/>
<path d="M111.906 108.83C112.145 108.559 112.328 108.151 112.627 108.041C119.046 105.738 125.465 103.436 131.907 101.202C136.998 99.4363 142.117 97.7575 147.226 96.0466C147.667 95.8998 148.122 95.7989 148.573 95.6797C148.618 95.8173 148.664 95.9549 148.706 96.0925C136.575 100.473 124.445 104.849 112.315 109.229C112.181 109.096 112.044 108.963 111.906 108.83Z" fill="url(#paint22_linear_345_170)"/>
<path d="M107.132 101.945C115.37 91.9963 123.6 82.0567 131.834 72.1172C131.949 72.2043 132.063 72.2915 132.178 72.3786C132.013 72.6355 131.866 72.9061 131.677 73.1446C123.935 82.7539 116.184 92.3586 108.437 101.963C108.101 102.376 107.789 102.922 107.132 101.945Z" fill="url(#paint23_linear_345_170)"/>
<path d="M79.3789 82.6118C83.2937 88.7168 87.2085 94.8218 91.1187 100.927C91.0773 101.041 91.036 101.161 90.9992 101.275C90.6868 101.207 90.2089 101.243 90.094 101.055C86.4136 95.0557 82.7653 89.0333 79.117 83.0155C79.0894 82.965 79.1308 82.8733 79.14 82.7999C79.2227 82.7357 79.3008 82.676 79.3789 82.6118Z" fill="url(#paint24_linear_345_170)"/>
<path d="M97.8594 98.8444C97.8594 91.7533 97.8594 84.6667 97.8594 77.5755C97.9605 77.5709 98.0615 77.5664 98.1626 77.5618C98.2132 78.2865 98.3005 79.0066 98.3143 79.7313C98.4383 85.7308 98.5532 91.7257 98.6635 97.7252C98.6773 98.6288 98.6589 98.6288 97.8594 98.8444Z" fill="url(#paint25_linear_345_170)"/>
<path d="M109.14 104.064C108.91 103.771 108.754 103.573 108.496 103.248C113.84 98.2756 119.156 93.3311 124.473 88.3911C124.592 88.515 124.711 88.6388 124.831 88.7626C119.648 93.8173 114.46 98.8765 109.14 104.064Z" fill="url(#paint26_linear_345_170)"/>
<path d="M88.3665 78.7634C88.5089 79.1258 88.6835 79.4836 88.7938 79.8551C90.6869 86.0748 92.5754 92.299 94.4409 98.5278C94.5741 98.9774 95.1255 99.7433 93.8022 99.7892C91.8677 92.8357 89.9241 85.8638 87.9851 78.8919C88.1138 78.846 88.2424 78.8047 88.3665 78.7634Z" fill="url(#paint27_linear_345_170)"/>
<path d="M102.257 99.7848C102.114 99.5234 101.797 99.2115 101.857 99.0005C103.745 92.235 105.671 85.4786 107.596 78.7223C107.61 78.6719 107.706 78.6398 108.055 78.6765C106.259 85.6759 104.462 92.6799 102.666 99.6793C102.528 99.716 102.39 99.7527 102.257 99.7848Z" fill="url(#paint28_linear_345_170)"/>
<path d="M85.6187 106.573C85.389 107.683 84.8881 107.307 84.4149 107.059C79.7557 104.651 75.092 102.252 70.442 99.8398C68.9165 99.0462 67.414 98.216 65.8977 97.3996C65.962 97.2666 66.031 97.1381 66.0953 97.0051C72.597 100.193 79.1032 103.381 85.6187 106.573Z" fill="url(#paint29_linear_345_170)"/>
<path d="M133.897 106.101C126.839 107.72 119.781 109.339 112.724 110.958C112.181 110.174 112.623 109.963 113.197 109.844C116.85 109.068 120.498 108.284 124.156 107.536C127.073 106.94 130 106.39 132.927 105.826C133.221 105.771 133.529 105.761 133.832 105.729C133.855 105.849 133.874 105.977 133.897 106.101Z" fill="url(#paint30_linear_345_170)"/>
<path d="M117.07 82.5431C116.515 83.5477 115.977 84.5613 115.398 85.5521C112.499 90.5287 109.599 95.5008 106.672 100.459C106.475 100.794 106.047 100.996 105.726 101.262C105.588 101.133 105.455 101.01 105.317 100.881C109.112 94.6889 112.908 88.4968 116.703 82.3C116.822 82.3826 116.946 82.4606 117.07 82.5431Z" fill="url(#paint31_linear_345_170)"/>
<path d="M84.0475 111.261C76.8795 109.766 69.7989 108.289 62.7183 106.812C62.7275 106.706 62.7366 106.601 62.7504 106.495C62.9434 106.472 63.141 106.404 63.3202 106.436C69.9184 107.642 76.5165 108.848 83.1101 110.087C83.5558 110.169 84.3553 110.105 84.0475 111.261Z" fill="url(#paint32_linear_345_170)"/>
<path d="M88.123 103.505C87.8289 103.821 87.6543 104.005 87.4154 104.261C82.0027 99.193 76.7095 94.2393 71.4116 89.2855C71.5265 89.1617 71.6414 89.0333 71.7562 88.9094C77.1552 93.7255 82.5541 98.5371 88.123 103.505Z" fill="url(#paint33_linear_345_170)"/>
<path d="M130.565 96.6519C130.313 96.8216 130.069 97.0051 129.803 97.1519C123.949 100.358 118.09 103.569 112.218 106.752C111.933 106.908 111.511 106.812 111.157 106.835C111.327 106.564 111.432 106.169 111.676 106.041C117.764 102.876 123.866 99.7342 129.973 96.5969C130.12 96.5189 130.294 96.4914 130.455 96.4409C130.496 96.5143 130.529 96.5831 130.565 96.6519Z" fill="url(#paint34_linear_345_170)"/>
<path d="M132.201 115.458H127.34C127.275 115.439 126.761 115.476 126.696 115.458C125.833 115.237 125.369 115.118 124.491 114.916C123.135 114.609 121.702 114.288 120.314 114.045C119.46 113.889 118.646 113.738 117.778 113.609C112.788 112.843 107.706 112.527 102.45 112.527C95.0335 112.527 87.6358 113.045 80.7481 114.563C80.4587 114.627 80.0635 114.728 79.7786 114.793C79.2135 114.921 78.8183 114.985 78.2623 115.127L77.4399 115.334L66.5593 115.458C66.5593 115.458 69.5643 115.155 72.9002 113.467C75.2619 112.274 75.8868 109.192 74.1592 107.188C71.7744 104.408 69.1692 102.982 69.0589 102.917C69.1692 102.949 72.018 103.784 75.6893 103.5C78.3267 103.303 80.0681 100.679 79.2456 98.1655C78.1383 94.7804 76.3463 92.51 76.1855 92.3036C76.3923 92.4641 78.6667 94.2484 82.0669 95.3584C84.5802 96.1794 87.2085 94.441 87.4061 91.799C87.6909 88.1663 86.8731 85.3317 86.8271 85.1849C86.9052 85.3271 88.325 87.9094 91.0911 90.2716C93.1036 92.0009 96.2006 91.3771 97.3952 89.0195C99.0861 85.6803 99.3848 82.6897 99.3848 82.6897C99.3848 82.6897 99.688 85.6803 101.379 89.0195C102.574 91.3771 105.661 92.0009 107.678 90.2716C110.445 87.9094 111.874 85.3271 111.952 85.1849C111.906 85.3317 111.088 88.1663 111.368 91.799C111.575 94.4364 114.194 96.1794 116.712 95.3584C120.103 94.2484 122.377 92.4641 122.584 92.3036C122.428 92.51 120.636 94.7804 119.529 98.1655C118.697 100.684 120.443 103.303 123.085 103.5C126.752 103.784 129.61 102.949 129.711 102.917C129.6 102.982 126.995 104.408 124.61 107.188C122.887 109.192 123.512 112.274 125.879 113.467C129.205 115.155 132.201 115.458 132.201 115.458Z" fill="url(#paint35_linear_345_170)"/>
<path d="M132.486 115.371H127.625C127.56 115.352 127.491 115.339 127.427 115.32C126.563 115.1 125.69 114.889 124.808 114.692C123.453 114.385 122.079 114.109 120.691 113.862C119.836 113.706 118.982 113.559 118.113 113.43C113.123 112.664 108.069 112.527 102.817 112.527C95.4011 112.527 88.0218 113.073 81.1341 114.591C80.8447 114.655 80.5598 114.719 80.2795 114.784C79.7144 114.912 79.1492 115.045 78.5886 115.187L77.881 115.366H66.8442C66.8442 115.366 69.8493 115.063 73.1851 113.375C75.5468 112.183 76.1717 109.101 74.4441 107.096C72.0594 104.317 69.4541 102.89 69.3438 102.826C69.4541 102.858 72.3029 103.693 75.9742 103.408C78.6116 103.211 80.353 100.587 79.5306 98.0739C78.4232 94.6889 76.6312 92.4184 76.4704 92.212C76.6772 92.3726 78.9516 94.1568 82.3518 95.2668C84.8652 96.0879 87.4934 94.3495 87.691 91.7075C87.9759 88.0748 87.158 85.2401 87.112 85.0934C87.1901 85.2355 88.6099 87.8179 91.376 90.1801C93.3886 91.9093 96.4855 91.2855 97.6801 88.9279C99.371 85.5887 99.6697 82.5981 99.6697 82.5981C99.6697 82.5981 99.973 85.5887 101.664 88.9279C102.859 91.2855 105.946 91.9093 107.963 90.1801C110.729 87.8179 112.158 85.2355 112.237 85.0934C112.191 85.2401 111.373 88.0748 111.653 91.7075C111.86 94.3449 114.479 96.0879 116.997 95.2668C120.388 94.1568 122.662 92.3726 122.869 92.212C122.713 92.4184 120.921 94.6889 119.813 98.0739C118.982 100.592 120.728 103.211 123.37 103.408C127.037 103.693 129.894 102.858 129.996 102.826C129.885 102.89 127.28 104.317 124.895 107.096C123.172 109.101 123.797 112.183 126.163 113.375C129.49 115.068 132.486 115.371 132.486 115.371Z" fill="url(#paint36_linear_345_170)"/>
<path d="M117.466 113.591C112.476 112.825 107.293 112.527 102.036 112.527C94.62 112.527 87.374 113.233 80.4863 114.756C80.8907 104.885 89.0281 97.0144 99.0173 97.0144C108.607 97.0098 116.496 104.275 117.466 113.591Z" fill="url(#paint37_linear_345_170)"/>
</g>
<defs>
<filter id="filter0_d_345_170" x="0" y="0" width="207" height="324" filterUnits="userSpaceOnUse" color-interpolation-filters="sRGB">
<feFlood flood-opacity="0" result="BackgroundImageFix"/>
<feColorMatrix in="SourceAlpha" type="matrix" values="0 0 0 0 0 0 0 0 0 0 0 0 0 0 0 0 0 0 127 0" result="hardAlpha"/>
<feOffset dy="4"/>
<feGaussianBlur stdDeviation="6"/>
<feComposite in2="hardAlpha" operator="out"/>
<feColorMatrix type="matrix" values="0 0 0 0 0 0 0 0 0 0 0 0 0 0 0 0 0 0 0.25 0"/>
<feBlend mode="normal" in2="BackgroundImageFix" result="effect1_dropShadow_345_170"/>
<feBlend mode="normal" in="SourceGraphic" in2="effect1_dropShadow_345_170" result="shape"/>
</filter>
<linearGradient id="paint0_linear_345_170" x1="101.794" y1="114.102" x2="101.794" y2="183.952" gradientUnits="userSpaceOnUse">
<stop stop-color="#F99C24"/>
<stop offset="1" stop-color="#EF4136"/>
</linearGradient>
<linearGradient id="paint1_linear_345_170" x1="102.241" y1="45.8438" x2="102.241" y2="123.746" gradientUnits="userSpaceOnUse">
<stop stop-color="#FBF5A9"/>
<stop offset="0.0156" stop-color="#FEF492"/>
<stop offset="0.0363" stop-color="#FFF378"/>
<stop offset="0.0597" stop-color="#FFF25B"/>
<stop offset="0.0861" stop-color="#FFF23E"/>
<stop offset="0.117" stop-color="#FFF220"/>
<stop offset="0.1552" stop-color="#FFF200"/>
<stop offset="0.2088" stop-color="#FFF200"/>
<stop offset="0.3575" stop-color="#FFF200"/>
<stop offset="0.4639" stop-color="#FFE700"/>
<stop offset="0.6581" stop-color="#FFCF09"/>
<stop offset="0.9165" stop-color="#FBA921"/>
<stop offset="1" stop-color="#F99C24"/>
</linearGradient>
<linearGradient id="paint2_linear_345_170" x1="58.1109" y1="239.825" x2="58.1109" y2="160.038" gradientUnits="userSpaceOnUse">
<stop stop-color="#FFF200"/>
<stop offset="0.0293" stop-color="#FFE700"/>
<stop offset="0.175" stop-color="#FEBF22"/>
<stop offset="0.3215" stop-color="#F99C2F"/>
<stop offset="0.4657" stop-color="#F58134"/>
<stop offset="0.6072" stop-color="#F26A36"/>
<stop offset="0.7451" stop-color="#F15737"/>
<stop offset="0.878" stop-color="#F04A37"/>
<stop offset="1" stop-color="#EF4637"/>
</linearGradient>
<linearGradient id="paint3_linear_345_170" x1="58.1125" y1="158.705" x2="58.1125" y2="241.158" gradientUnits="userSpaceOnUse">
<stop stop-color="#FFF200"/>
<stop offset="0.0293" stop-color="#FFE700"/>
<stop offset="0.175" stop-color="#FEBF22"/>
<stop offset="0.3215" stop-color="#F99C2F"/>
<stop offset="0.4657" stop-color="#F58134"/>
<stop offset="0.6072" stop-color="#F26A36"/>
<stop offset="0.7451" stop-color="#F15737"/>
<stop offset="0.878" stop-color="#F04A37"/>
<stop offset="1" stop-color="#EF4637"/>
</linearGradient>
<linearGradient id="paint4_linear_345_170" x1="146.935" y1="239.825" x2="146.935" y2="160.038" gradientUnits="userSpaceOnUse">
<stop stop-color="#FFF200"/>
<stop offset="0.0293" stop-color="#FFE700"/>
<stop offset="0.175" stop-color="#FEBF22"/>
<stop offset="0.3215" stop-color="#F99C2F"/>
<stop offset="0.4657" stop-color="#F58134"/>
<stop offset="0.6072" stop-color="#F26A36"/>
<stop offset="0.7451" stop-color="#F15737"/>
<stop offset="0.878" stop-color="#F04A37"/>
<stop offset="1" stop-color="#EF4637"/>
</linearGradient>
<linearGradient id="paint5_linear_345_170" x1="146.933" y1="158.705" x2="146.933" y2="241.158" gradientUnits="userSpaceOnUse">
<stop stop-color="#FFF200"/>
<stop offset="0.0293" stop-color="#FFE700"/>
<stop offset="0.175" stop-color="#FEBF22"/>
<stop offset="0.3215" stop-color="#F99C2F"/>
<stop offset="0.4657" stop-color="#F58134"/>
<stop offset="0.6072" stop-color="#F26A36"/>
<stop offset="0.7451" stop-color="#F15737"/>
<stop offset="0.878" stop-color="#F04A37"/>
<stop offset="1" stop-color="#EF4637"/>
</linearGradient>
<linearGradient id="paint6_linear_345_170" x1="139.925" y1="210.872" x2="139.925" y2="131.085" gradientUnits="userSpaceOnUse">
<stop stop-color="#EF4637"/>
<stop offset="1" stop-color="#F47634"/>
</linearGradient>
<linearGradient id="paint7_linear_345_170" x1="139.924" y1="129.752" x2="139.924" y2="212.205" gradientUnits="userSpaceOnUse">
<stop stop-color="#FFCF50"/>
<stop offset="0.2166" stop-color="#FFCD4F"/>
<stop offset="0.3691" stop-color="#FEC64E"/>
<stop offset="0.5019" stop-color="#FCBA4C"/>
<stop offset="0.6235" stop-color="#F9AA49"/>
<stop offset="0.7374" stop-color="#F79645"/>
<stop offset="0.8456" stop-color="#F47D40"/>
<stop offset="0.9475" stop-color="#F15D3A"/>
<stop offset="1" stop-color="#EF4637"/>
</linearGradient>
<linearGradient id="paint8_linear_345_170" x1="64.7867" y1="210.872" x2="64.7867" y2="131.085" gradientUnits="userSpaceOnUse">
<stop stop-color="#EF4637"/>
<stop offset="1" stop-color="#F47634"/>
</linearGradient>
<linearGradient id="paint9_linear_345_170" x1="64.7882" y1="129.752" x2="64.7882" y2="212.205" gradientUnits="userSpaceOnUse">
<stop stop-color="#FFCF50"/>
<stop offset="0.2166" stop-color="#FFCD4F"/>
<stop offset="0.3691" stop-color="#FEC64E"/>
<stop offset="0.5019" stop-color="#FCBA4C"/>
<stop offset="0.6235" stop-color="#F9AA49"/>
<stop offset="0.7374" stop-color="#F79645"/>
<stop offset="0.8456" stop-color="#F47D40"/>
<stop offset="0.9475" stop-color="#F15D3A"/>
<stop offset="1" stop-color="#EF4637"/>
</linearGradient>
<linearGradient id="paint10_linear_345_170" x1="100.379" y1="134.561" x2="100.379" y2="269.511" gradientUnits="userSpaceOnUse">
<stop stop-color="#FFF200"/>
<stop offset="0.2301" stop-color="#FFC220"/>
<stop offset="0.5029" stop-color="#F79132"/>
<stop offset="0.7315" stop-color="#F36D36"/>
<stop offset="0.9038" stop-color="#F05237"/>
<stop offset="1" stop-color="#EF4637"/>
</linearGradient>
<linearGradient id="paint11_linear_345_170" x1="95.1483" y1="144.349" x2="99.7497" y2="144.349" gradientUnits="userSpaceOnUse">
<stop stop-color="#FFF200"/>
<stop offset="0.058" stop-color="#FFF108"/>
<stop offset="0.2203" stop-color="#FFF148"/>
<stop offset="0.3905" stop-color="#FEF165"/>
<stop offset="0.5696" stop-color="#FCF177"/>
<stop offset="0.7637" stop-color="#FBF180"/>
<stop offset="1" stop-color="#FBF4A2"/>
</linearGradient>
<linearGradient id="paint12_linear_345_170" x1="64.7741" y1="87.3666" x2="89.5685" y2="87.3666" gradientUnits="userSpaceOnUse">
<stop stop-color="#F99C24"/>
<stop offset="1" stop-color="#EF4136"/>
</linearGradient>
<linearGradient id="paint13_linear_345_170" x1="109.88" y1="94.1935" x2="142.086" y2="94.1935" gradientUnits="userSpaceOnUse">
<stop stop-color="#F99C24"/>
<stop offset="1" stop-color="#EF4136"/>
</linearGradient>
<linearGradient id="paint14_linear_345_170" x1="45.2275" y1="111.279" x2="84.0501" y2="111.279" gradientUnits="userSpaceOnUse">
<stop stop-color="#F99C24"/>
<stop offset="1" stop-color="#EF4136"/>
</linearGradient>
<linearGradient id="paint15_linear_345_170" x1="48.0438" y1="102.393" x2="84.6937" y2="102.393" gradientUnits="userSpaceOnUse">
<stop stop-color="#F99C24"/>
<stop offset="1" stop-color="#EF4136"/>
</linearGradient>
<linearGradient id="paint16_linear_345_170" x1="76.8904" y1="82.6057" x2="92.8473" y2="82.6057" gradientUnits="userSpaceOnUse">
<stop stop-color="#F99C24"/>
<stop offset="1" stop-color="#EF4136"/>
</linearGradient>
<linearGradient id="paint17_linear_345_170" x1="54.796" y1="94.0205" x2="86.7374" y2="94.0205" gradientUnits="userSpaceOnUse">
<stop stop-color="#F99C24"/>
<stop offset="1" stop-color="#EF4136"/>
</linearGradient>
<linearGradient id="paint18_linear_345_170" x1="112.783" y1="111.409" x2="151.535" y2="111.409" gradientUnits="userSpaceOnUse">
<stop stop-color="#F99C24"/>
<stop offset="1" stop-color="#EF4136"/>
</linearGradient>
<linearGradient id="paint19_linear_345_170" x1="100.015" y1="80.1005" x2="105.829" y2="80.1005" gradientUnits="userSpaceOnUse">
<stop stop-color="#F99C24"/>
<stop offset="1" stop-color="#EF4136"/>
</linearGradient>
<linearGradient id="paint20_linear_345_170" x1="91.0822" y1="80.1249" x2="96.753" y2="80.1249" gradientUnits="userSpaceOnUse">
<stop stop-color="#F99C24"/>
<stop offset="1" stop-color="#EF4136"/>
</linearGradient>
<linearGradient id="paint21_linear_345_170" x1="103.863" y1="82.5918" x2="119.943" y2="82.5918" gradientUnits="userSpaceOnUse">
<stop stop-color="#F99C24"/>
<stop offset="1" stop-color="#EF4136"/>
</linearGradient>
<linearGradient id="paint22_linear_345_170" x1="111.908" y1="102.456" x2="148.71" y2="102.456" gradientUnits="userSpaceOnUse">
<stop stop-color="#F99C24"/>
<stop offset="1" stop-color="#EF4136"/>
</linearGradient>
<linearGradient id="paint23_linear_345_170" x1="107.131" y1="87.3052" x2="132.178" y2="87.3052" gradientUnits="userSpaceOnUse">
<stop stop-color="#F99C24"/>
<stop offset="1" stop-color="#EF4136"/>
</linearGradient>
<linearGradient id="paint24_linear_345_170" x1="79.1087" y1="91.9438" x2="91.1228" y2="91.9438" gradientUnits="userSpaceOnUse">
<stop stop-color="#F99C24"/>
<stop offset="1" stop-color="#EF4136"/>
</linearGradient>
<linearGradient id="paint25_linear_345_170" x1="97.8579" y1="88.2029" x2="98.665" y2="88.2029" gradientUnits="userSpaceOnUse">
<stop stop-color="#F99C24"/>
<stop offset="1" stop-color="#EF4136"/>
</linearGradient>
<linearGradient id="paint26_linear_345_170" x1="108.499" y1="96.2275" x2="124.833" y2="96.2275" gradientUnits="userSpaceOnUse">
<stop stop-color="#F99C24"/>
<stop offset="1" stop-color="#EF4136"/>
</linearGradient>
<linearGradient id="paint27_linear_345_170" x1="87.9893" y1="89.2748" x2="94.6713" y2="89.2748" gradientUnits="userSpaceOnUse">
<stop stop-color="#F99C24"/>
<stop offset="1" stop-color="#EF4136"/>
</linearGradient>
<linearGradient id="paint28_linear_345_170" x1="101.847" y1="89.2247" x2="108.052" y2="89.2247" gradientUnits="userSpaceOnUse">
<stop stop-color="#F99C24"/>
<stop offset="1" stop-color="#EF4136"/>
</linearGradient>
<linearGradient id="paint29_linear_345_170" x1="65.8966" y1="102.167" x2="85.6182" y2="102.167" gradientUnits="userSpaceOnUse">
<stop stop-color="#F99C24"/>
<stop offset="1" stop-color="#EF4136"/>
</linearGradient>
<linearGradient id="paint30_linear_345_170" x1="112.478" y1="108.341" x2="133.896" y2="108.341" gradientUnits="userSpaceOnUse">
<stop stop-color="#F99C24"/>
<stop offset="1" stop-color="#EF4136"/>
</linearGradient>
<linearGradient id="paint31_linear_345_170" x1="105.313" y1="91.782" x2="117.068" y2="91.782" gradientUnits="userSpaceOnUse">
<stop stop-color="#F99C24"/>
<stop offset="1" stop-color="#EF4136"/>
</linearGradient>
<linearGradient id="paint32_linear_345_170" x1="62.7184" y1="108.843" x2="84.1174" y2="108.843" gradientUnits="userSpaceOnUse">
<stop stop-color="#F99C24"/>
<stop offset="1" stop-color="#EF4136"/>
</linearGradient>
<linearGradient id="paint33_linear_345_170" x1="71.413" y1="96.5863" x2="88.1249" y2="96.5863" gradientUnits="userSpaceOnUse">
<stop stop-color="#F99C24"/>
<stop offset="1" stop-color="#EF4136"/>
</linearGradient>
<linearGradient id="paint34_linear_345_170" x1="111.159" y1="101.644" x2="130.565" y2="101.644" gradientUnits="userSpaceOnUse">
<stop stop-color="#F99C24"/>
<stop offset="1" stop-color="#EF4136"/>
</linearGradient>
<linearGradient id="paint35_linear_345_170" x1="99.3765" y1="81.2261" x2="99.3765" y2="111.354" gradientUnits="userSpaceOnUse">
<stop stop-color="#F99C24"/>
<stop offset="1" stop-color="#EF4136"/>
</linearGradient>
<linearGradient id="paint36_linear_345_170" x1="99.6597" y1="81.1386" x2="99.6597" y2="111.261" gradientUnits="userSpaceOnUse">
<stop stop-color="#F99C24"/>
<stop offset="1" stop-color="#EF4136"/>
</linearGradient>
<linearGradient id="paint37_linear_345_170" x1="80.4837" y1="105.882" x2="117.466" y2="105.882" gradientUnits="userSpaceOnUse">
<stop stop-color="#FBF5A9"/>
<stop offset="0.0156" stop-color="#FEF492"/>
<stop offset="0.0363" stop-color="#FFF378"/>
<stop offset="0.0597" stop-color="#FFF25B"/>
<stop offset="0.0861" stop-color="#FFF23E"/>
<stop offset="0.117" stop-color="#FFF220"/>
<stop offset="0.1552" stop-color="#FFF200"/>
<stop offset="0.2088" stop-color="#FFF200"/>
<stop offset="0.3575" stop-color="#FFF200"/>
<stop offset="0.4639" stop-color="#FFE700"/>
<stop offset="0.6581" stop-color="#FFCF09"/>
<stop offset="0.9165" stop-color="#FBA921"/>
<stop offset="1" stop-color="#F99C24"/>
</linearGradient>
<clipPath id="clip0_345_170">
<rect width="145.656" height="222" fill="white" transform="translate(31 47)"/>
</clipPath>
</defs>
</svg>
